%TF.GenerationSoftware,KiCad,Pcbnew,8.0.2*%
%TF.CreationDate,2024-05-01T23:32:07+01:00*%
%TF.ProjectId,PIC_QuickDevBoard,5049435f-5175-4696-936b-446576426f61,2.2*%
%TF.SameCoordinates,Original*%
%TF.FileFunction,Drillmap*%
%TF.FilePolarity,Positive*%
%FSLAX45Y45*%
G04 Gerber Fmt 4.5, Leading zero omitted, Abs format (unit mm)*
G04 Created by KiCad (PCBNEW 8.0.2) date 2024-05-01 23:32:07*
%MOMM*%
%LPD*%
G01*
G04 APERTURE LIST*
%ADD10C,0.100000*%
%ADD11C,0.200000*%
G04 APERTURE END LIST*
D10*
X6299200Y-3302000D02*
X13385800Y-3302000D01*
X13385800Y-11430000D01*
X6299200Y-11430000D01*
X6299200Y-3302000D01*
D11*
X6554977Y-11746484D02*
X6554977Y-11546484D01*
X6554977Y-11546484D02*
X6602596Y-11546484D01*
X6602596Y-11546484D02*
X6631167Y-11556008D01*
X6631167Y-11556008D02*
X6650215Y-11575055D01*
X6650215Y-11575055D02*
X6659739Y-11594103D01*
X6659739Y-11594103D02*
X6669262Y-11632198D01*
X6669262Y-11632198D02*
X6669262Y-11660769D01*
X6669262Y-11660769D02*
X6659739Y-11698865D01*
X6659739Y-11698865D02*
X6650215Y-11717912D01*
X6650215Y-11717912D02*
X6631167Y-11736960D01*
X6631167Y-11736960D02*
X6602596Y-11746484D01*
X6602596Y-11746484D02*
X6554977Y-11746484D01*
X6754977Y-11746484D02*
X6754977Y-11613150D01*
X6754977Y-11651246D02*
X6764501Y-11632198D01*
X6764501Y-11632198D02*
X6774024Y-11622674D01*
X6774024Y-11622674D02*
X6793072Y-11613150D01*
X6793072Y-11613150D02*
X6812120Y-11613150D01*
X6878786Y-11746484D02*
X6878786Y-11613150D01*
X6878786Y-11546484D02*
X6869262Y-11556008D01*
X6869262Y-11556008D02*
X6878786Y-11565531D01*
X6878786Y-11565531D02*
X6888310Y-11556008D01*
X6888310Y-11556008D02*
X6878786Y-11546484D01*
X6878786Y-11546484D02*
X6878786Y-11565531D01*
X7002596Y-11746484D02*
X6983548Y-11736960D01*
X6983548Y-11736960D02*
X6974024Y-11717912D01*
X6974024Y-11717912D02*
X6974024Y-11546484D01*
X7107358Y-11746484D02*
X7088310Y-11736960D01*
X7088310Y-11736960D02*
X7078786Y-11717912D01*
X7078786Y-11717912D02*
X7078786Y-11546484D01*
X7335929Y-11746484D02*
X7335929Y-11546484D01*
X7335929Y-11546484D02*
X7402596Y-11689341D01*
X7402596Y-11689341D02*
X7469262Y-11546484D01*
X7469262Y-11546484D02*
X7469262Y-11746484D01*
X7650215Y-11746484D02*
X7650215Y-11641722D01*
X7650215Y-11641722D02*
X7640691Y-11622674D01*
X7640691Y-11622674D02*
X7621643Y-11613150D01*
X7621643Y-11613150D02*
X7583548Y-11613150D01*
X7583548Y-11613150D02*
X7564501Y-11622674D01*
X7650215Y-11736960D02*
X7631167Y-11746484D01*
X7631167Y-11746484D02*
X7583548Y-11746484D01*
X7583548Y-11746484D02*
X7564501Y-11736960D01*
X7564501Y-11736960D02*
X7554977Y-11717912D01*
X7554977Y-11717912D02*
X7554977Y-11698865D01*
X7554977Y-11698865D02*
X7564501Y-11679817D01*
X7564501Y-11679817D02*
X7583548Y-11670293D01*
X7583548Y-11670293D02*
X7631167Y-11670293D01*
X7631167Y-11670293D02*
X7650215Y-11660769D01*
X7745453Y-11613150D02*
X7745453Y-11813150D01*
X7745453Y-11622674D02*
X7764501Y-11613150D01*
X7764501Y-11613150D02*
X7802596Y-11613150D01*
X7802596Y-11613150D02*
X7821643Y-11622674D01*
X7821643Y-11622674D02*
X7831167Y-11632198D01*
X7831167Y-11632198D02*
X7840691Y-11651246D01*
X7840691Y-11651246D02*
X7840691Y-11708388D01*
X7840691Y-11708388D02*
X7831167Y-11727436D01*
X7831167Y-11727436D02*
X7821643Y-11736960D01*
X7821643Y-11736960D02*
X7802596Y-11746484D01*
X7802596Y-11746484D02*
X7764501Y-11746484D01*
X7764501Y-11746484D02*
X7745453Y-11736960D01*
X7926405Y-11727436D02*
X7935929Y-11736960D01*
X7935929Y-11736960D02*
X7926405Y-11746484D01*
X7926405Y-11746484D02*
X7916882Y-11736960D01*
X7916882Y-11736960D02*
X7926405Y-11727436D01*
X7926405Y-11727436D02*
X7926405Y-11746484D01*
X7926405Y-11622674D02*
X7935929Y-11632198D01*
X7935929Y-11632198D02*
X7926405Y-11641722D01*
X7926405Y-11641722D02*
X7916882Y-11632198D01*
X7916882Y-11632198D02*
X7926405Y-11622674D01*
X7926405Y-11622674D02*
X7926405Y-11641722D01*
M02*
