M48
; DRILL file {KiCad 8.0.2} date 2024-05-01T23:32:08+0100
; FORMAT={-:-/ absolute / inch / decimal}
; #@! TF.CreationDate,2024-05-01T23:32:08+01:00
; #@! TF.GenerationSoftware,Kicad,Pcbnew,8.0.2
; #@! TF.FileFunction,Plated,1,2,PTH
FMAT,2
INCH
; #@! TA.AperFunction,Plated,PTH,ViaDrill
T1C0.0157
; #@! TA.AperFunction,Plated,PTH,ComponentDrill
T2C0.0315
; #@! TA.AperFunction,Plated,PTH,ComponentDrill
T3C0.0354
; #@! TA.AperFunction,Plated,PTH,ComponentDrill
T4C0.0394
; #@! TA.AperFunction,Plated,PTH,ComponentDrill
T5C0.0433
; #@! TA.AperFunction,Plated,PTH,ComponentDrill
T6C0.0984
%
G90
G05
T1
X2.7944Y-2.472
X2.9469Y-4.0906
X2.97Y-3.495
X3.1358Y-3.6024
X3.145Y-2.81
X3.25Y-3.9
X3.38Y-4.18
X3.51Y-4.22
X3.555Y-3.265
X3.6Y-4.22
X3.63Y-3.76
X3.64Y-3.47
X3.665Y-3.24
X3.7Y-4.22
X3.7295Y-3.59
X3.78Y-4.22
X3.8051Y-1.9803
X3.8505Y-4.22
X3.965Y-3.605
X3.98Y-4.21
X4.05Y-3.1
X4.0572Y-3.7518
X4.06Y-3.605
X4.09Y-3.08
X4.11Y-4.21
X4.2382Y-3.7362
X4.2854Y-2.1063
X4.4265Y-3.5431
X4.53Y-3.1728
T2
X2.9Y-2.71
X2.9Y-2.8084
X2.91Y-3.8
X2.91Y-3.8984
X3.05Y-2.43
X3.05Y-2.56
X3.05Y-2.7
X3.05Y-2.8
X3.05Y-2.9
X3.05Y-3.0
X3.05Y-3.1
X3.05Y-3.2
X3.05Y-3.3
X3.05Y-3.4
X3.05Y-3.5
X3.05Y-3.6
X3.05Y-3.7
X3.05Y-3.8
X3.05Y-3.9
X3.05Y-4.0
X3.1113Y-2.06
X3.1113Y-2.1387
X3.1113Y-2.2175
X3.19Y-2.06
X3.19Y-2.1387
X3.19Y-2.2175
X3.35Y-2.43
X3.35Y-2.56
X3.35Y-2.7
X3.35Y-2.8
X3.35Y-2.9
X3.35Y-3.0
X3.35Y-3.1
X3.35Y-3.2
X3.35Y-3.3
X3.35Y-3.4
X3.35Y-3.5
X3.35Y-3.6
X3.35Y-3.7
X3.35Y-3.8
X3.35Y-3.9
X3.35Y-4.0
X3.3513Y-2.06
X3.3513Y-2.1387
X3.3513Y-2.2175
X3.43Y-2.06
X3.43Y-2.1387
X3.43Y-2.2175
X3.47Y-2.7016
X3.47Y-2.8
X3.55Y-3.4916
X3.55Y-3.59
X3.61Y-2.06
X3.61Y-2.1387
X3.61Y-2.2175
X3.6887Y-2.06
X3.6887Y-2.1387
X3.6887Y-2.2175
X3.75Y-2.9
X3.75Y-2.9984
X3.8602Y-2.0591
X3.8602Y-2.1378
X3.8602Y-2.2165
X3.87Y-2.9
X3.87Y-3.0
X3.87Y-3.1
X3.87Y-3.2
X3.87Y-3.3
X3.87Y-3.4
X3.87Y-3.5
X3.87Y-3.6
X3.87Y-3.7
X3.87Y-3.8
X3.939Y-2.0591
X3.939Y-2.1378
X3.939Y-2.2165
X4.17Y-2.9
X4.17Y-3.0
X4.17Y-3.1
X4.17Y-3.2
X4.17Y-3.3
X4.17Y-3.4
X4.17Y-3.5
X4.17Y-3.6
X4.17Y-3.7
X4.17Y-3.8
X4.3642Y-2.2402
X4.3642Y-2.3386
X4.439Y-2.948
X4.439Y-3.248
X4.59Y-2.76
X4.63Y-2.94
X4.63Y-3.04
X4.63Y-3.14
X4.63Y-3.24
X4.63Y-3.34
X4.63Y-3.44
X4.63Y-3.54
X4.63Y-3.64
X4.63Y-3.74
X4.65Y-2.12
X4.65Y-2.3
X4.6884Y-2.76
X4.69Y-2.56
X4.7333Y-1.5753
X4.7648Y-1.5064
X4.7963Y-1.5753
X4.8278Y-1.5064
X4.8593Y-1.5753
X4.8716Y-2.76
X4.8821Y-2.56
X4.93Y-2.94
X4.93Y-3.04
X4.93Y-3.14
X4.93Y-3.24
X4.93Y-3.34
X4.93Y-3.44
X4.93Y-3.54
X4.93Y-3.64
X4.93Y-3.74
X4.95Y-2.12
X4.95Y-2.3
X4.97Y-2.76
X5.07Y-3.3616
X5.07Y-3.46
T3
X4.8648Y-1.83
X4.9648Y-1.83
T4
X2.68Y-2.18
X2.68Y-2.28
X2.68Y-2.38
X2.68Y-2.48
X2.68Y-2.58
X2.68Y-2.68
X2.68Y-2.78
X2.68Y-2.88
X2.68Y-3.14
X2.68Y-3.24
X2.68Y-3.34
X2.68Y-3.44
X2.68Y-3.54
X2.68Y-3.64
X2.68Y-3.74
X2.68Y-3.84
X2.68Y-3.94
X2.68Y-4.04
X2.8957Y-1.5394
X2.9Y-2.45
X2.9Y-2.55
X2.9957Y-1.5394
X3.0957Y-1.5394
X3.1957Y-1.5394
X3.2957Y-1.5394
X3.3957Y-1.5394
X3.46Y-4.3
X3.56Y-4.3
X3.66Y-4.3
X3.76Y-4.3
X3.86Y-4.3
X3.96Y-4.3
X4.06Y-4.3
X4.16Y-4.3
X4.26Y-4.3
X4.27Y-1.54
X4.36Y-4.3
X4.37Y-1.54
T5
X3.7106Y-1.6142
X3.9272Y-1.6142
T6
X2.6Y-1.42
X2.62Y-4.31
X5.14Y-1.43
X5.14Y-4.3
T3
G00X4.6546Y-1.3646
M15
G01X4.6546Y-1.4316
M16
G05
G00X4.6546Y-1.5024
M15
G01X4.6546Y-1.5694
M16
G05
G00X4.94Y-1.3646
M15
G01X4.94Y-1.4316
M16
G05
G00X4.94Y-1.5024
M15
G01X4.94Y-1.5694
M16
G05
M30
