%TF.GenerationSoftware,KiCad,Pcbnew,8.0.2*%
%TF.CreationDate,2024-05-01T23:32:11+01:00*%
%TF.ProjectId,PIC_QuickDevBoard,5049435f-5175-4696-936b-446576426f61,2.2*%
%TF.SameCoordinates,Original*%
%TF.FileFunction,Copper,L1,Top*%
%TF.FilePolarity,Positive*%
%FSLAX46Y46*%
G04 Gerber Fmt 4.6, Leading zero omitted, Abs format (unit mm)*
G04 Created by KiCad (PCBNEW 8.0.2) date 2024-05-01 23:32:11*
%MOMM*%
%LPD*%
G01*
G04 APERTURE LIST*
%TA.AperFunction,ComponentPad*%
%ADD10C,2.000000*%
%TD*%
%TA.AperFunction,ComponentPad*%
%ADD11R,1.350000X1.350000*%
%TD*%
%TA.AperFunction,ComponentPad*%
%ADD12O,1.350000X1.350000*%
%TD*%
%TA.AperFunction,ComponentPad*%
%ADD13C,1.600000*%
%TD*%
%TA.AperFunction,ComponentPad*%
%ADD14O,1.600000X1.600000*%
%TD*%
%TA.AperFunction,ComponentPad*%
%ADD15R,1.600000X1.600000*%
%TD*%
%TA.AperFunction,SMDPad,CuDef*%
%ADD16R,1.500000X2.000000*%
%TD*%
%TA.AperFunction,SMDPad,CuDef*%
%ADD17R,3.800000X2.000000*%
%TD*%
%TA.AperFunction,ComponentPad*%
%ADD18C,5.000000*%
%TD*%
%TA.AperFunction,ComponentPad*%
%ADD19R,1.700000X1.700000*%
%TD*%
%TA.AperFunction,ComponentPad*%
%ADD20O,1.700000X1.700000*%
%TD*%
%TA.AperFunction,ComponentPad*%
%ADD21R,1.800000X1.800000*%
%TD*%
%TA.AperFunction,ComponentPad*%
%ADD22C,1.800000*%
%TD*%
%TA.AperFunction,ComponentPad*%
%ADD23C,1.200000*%
%TD*%
%TA.AperFunction,ComponentPad*%
%ADD24R,1.200000X1.200000*%
%TD*%
%TA.AperFunction,ComponentPad*%
%ADD25O,1.300000X3.200000*%
%TD*%
%TA.AperFunction,ComponentPad*%
%ADD26C,1.500000*%
%TD*%
%TA.AperFunction,ViaPad*%
%ADD27C,0.800000*%
%TD*%
%TA.AperFunction,Conductor*%
%ADD28C,0.350000*%
%TD*%
%TA.AperFunction,Conductor*%
%ADD29C,0.250000*%
%TD*%
%TA.AperFunction,Conductor*%
%ADD30C,0.500000*%
%TD*%
G04 APERTURE END LIST*
D10*
%TO.P,SW1,1,1*%
%TO.N,GND*%
X94250000Y-41000000D03*
%TO.P,SW1,2,2*%
%TO.N,RA0*%
X99750000Y-41000000D03*
%TD*%
D11*
%TO.P,J7,1,Pin_1*%
%TO.N,PIC16F14_PGEC*%
X79026000Y-52324000D03*
D12*
%TO.P,J7,2,Pin_2*%
%TO.N,PGEC*%
X81026000Y-52324000D03*
%TO.P,J7,3,Pin_3*%
%TO.N,PIC16F14_PGEC*%
X79026000Y-54324000D03*
%TO.P,J7,4,Pin_4*%
%TO.N,PGEC*%
X81026000Y-54324000D03*
%TO.P,J7,5,Pin_5*%
%TO.N,PIC16F84_PGEC*%
X79026000Y-56324000D03*
%TO.P,J7,6,Pin_6*%
%TO.N,PGEC*%
X81026000Y-56324000D03*
%TD*%
D13*
%TO.P,R4,1*%
%TO.N,RA1*%
X118110000Y-58420000D03*
D14*
%TO.P,R4,2*%
%TO.N,Net-(D1-A)*%
X125730000Y-58420000D03*
%TD*%
D11*
%TO.P,J10,1,Pin_1*%
%TO.N,VCC*%
X98050000Y-52300000D03*
D12*
%TO.P,J10,2,Pin_2*%
%TO.N,+3.3V*%
X100050000Y-52300000D03*
%TO.P,J10,3,Pin_3*%
%TO.N,VCC*%
X98050000Y-54300000D03*
%TO.P,J10,4,Pin_4*%
%TO.N,+5V*%
X100050000Y-54300000D03*
%TO.P,J10,5,Pin_5*%
%TO.N,VCC*%
X98050000Y-56300000D03*
%TO.P,J10,6,Pin_6*%
%TO.N,+5V*%
X100050000Y-56300000D03*
%TD*%
D15*
%TO.P,U1,1,Vpp/~{MCLR}/RE3*%
%TO.N,PIC24_MCLR*%
X77470000Y-68580000D03*
D14*
%TO.P,U1,2,RA0*%
%TO.N,RA0*%
X77470000Y-71120000D03*
%TO.P,U1,3,RA1*%
%TO.N,RA1*%
X77470000Y-73660000D03*
%TO.P,U1,4,RB0*%
%TO.N,PIC16F14_PGED*%
X77470000Y-76200000D03*
%TO.P,U1,5,RB1*%
%TO.N,PIC16F14_PGEC*%
X77470000Y-78740000D03*
%TO.P,U1,6,RB2*%
%TO.N,RB2*%
X77470000Y-81280000D03*
%TO.P,U1,7,RB3*%
%TO.N,RB3*%
X77470000Y-83820000D03*
%TO.P,U1,8,Vss*%
%TO.N,GND*%
X77470000Y-86360000D03*
%TO.P,U1,9,RA2*%
%TO.N,RA2*%
X77470000Y-88900000D03*
%TO.P,U1,10,RA3*%
%TO.N,PIC16F14_MCLR*%
X77470000Y-91440000D03*
%TO.P,U1,11,RB4*%
%TO.N,RB4*%
X77470000Y-93980000D03*
%TO.P,U1,12,RA4*%
%TO.N,RA4*%
X77470000Y-96520000D03*
%TO.P,U1,13,Vdd*%
%TO.N,VCC*%
X77470000Y-99060000D03*
%TO.P,U1,14,TMS/RB5*%
%TO.N,RB5*%
X77470000Y-101600000D03*
%TO.P,U1,15,Vbus*%
%TO.N,unconnected-(U1-Vbus-Pad15)*%
X85090000Y-101600000D03*
%TO.P,U1,16,TDI/RB7*%
%TO.N,PIC16F84_PGED*%
X85090000Y-99060000D03*
%TO.P,U1,17,TCK/RB8*%
%TO.N,RB8*%
X85090000Y-96520000D03*
%TO.P,U1,18,TDO/RB9*%
%TO.N,RB9*%
X85090000Y-93980000D03*
%TO.P,U1,19,DISVREG*%
%TO.N,GND*%
X85090000Y-91440000D03*
%TO.P,U1,20,Vcap/Vddcore*%
%TO.N,Net-(U1-Vcap{slash}Vddcore)*%
X85090000Y-88900000D03*
%TO.P,U1,21,RB10*%
%TO.N,RB10*%
X85090000Y-86360000D03*
%TO.P,U1,22,RB11*%
%TO.N,RB11*%
X85090000Y-83820000D03*
%TO.P,U1,23,Vusb*%
%TO.N,unconnected-(U1-Vusb-Pad23)*%
X85090000Y-81280000D03*
%TO.P,U1,24,RB13*%
%TO.N,RB13*%
X85090000Y-78740000D03*
%TO.P,U1,25,RB14*%
%TO.N,RB14*%
X85090000Y-76200000D03*
%TO.P,U1,26,RB15*%
%TO.N,RB15*%
X85090000Y-73660000D03*
%TO.P,U1,27,Vss*%
%TO.N,GND*%
X85090000Y-71120000D03*
%TO.P,U1,28,Vdd*%
%TO.N,VCC*%
X85090000Y-68580000D03*
%TD*%
D16*
%TO.P,U3,1,GND*%
%TO.N,GND*%
X108750000Y-50800000D03*
%TO.P,U3,2,VO*%
%TO.N,+3.3V*%
X111050000Y-50800000D03*
D17*
X111050000Y-44500000D03*
D16*
%TO.P,U3,3,VI*%
%TO.N,+5V*%
X113350000Y-50800000D03*
%TD*%
D13*
%TO.P,C8,1*%
%TO.N,VCC*%
X95250000Y-73660000D03*
%TO.P,C8,2*%
%TO.N,GND*%
X95250000Y-76160000D03*
%TD*%
D18*
%TO.P,H4,1*%
%TO.N,N/C*%
X130556000Y-109220000D03*
%TD*%
D13*
%TO.P,C1,1*%
%TO.N,Net-(JP1-A)*%
X73660000Y-68834000D03*
%TO.P,C1,2*%
%TO.N,GND*%
X73660000Y-71334000D03*
%TD*%
D19*
%TO.P,J4,1,Pin_1*%
%TO.N,+5V*%
X108458000Y-39116000D03*
D20*
%TO.P,J4,2,Pin_2*%
%TO.N,GND*%
X110998000Y-39116000D03*
%TD*%
D15*
%TO.P,U4,1,VDD*%
%TO.N,VCC*%
X98298000Y-73660000D03*
D14*
%TO.P,U4,2,RA5/SOSCI/T1CKI/OSC1/CLKIN*%
%TO.N,RA5*%
X98298000Y-76200000D03*
%TO.P,U4,3,RA4/AN3/SOSCO/T1G/OSC2/CLKOUT/CLKR*%
%TO.N,RA4*%
X98298000Y-78740000D03*
%TO.P,U4,4,RA3/T1G/~{SS}/~{MCLR}/Vpp*%
%TO.N,PIC16F14_MCLR*%
X98298000Y-81280000D03*
%TO.P,U4,5,PWM1/CWG1A/T0CKI/RC5*%
%TO.N,RB13*%
X98298000Y-83820000D03*
%TO.P,U4,6,CWG1B/C1OUT/C2OUT/RC4*%
%TO.N,RB11*%
X98298000Y-86360000D03*
%TO.P,U4,7,CLKR/C1IN3-/C2IN3-/DACOUT2/AN7/RC3*%
%TO.N,RB3*%
X98298000Y-88900000D03*
%TO.P,U4,8,~{SS}/PWM2/AN8/RC6*%
%TO.N,RB14*%
X98298000Y-91440000D03*
%TO.P,U4,9,SDO/AN9/RC7*%
%TO.N,RB15*%
X98298000Y-93980000D03*
%TO.P,U4,10,RB7/TX/CK*%
%TO.N,PIC16F84_PGED*%
X98298000Y-96520000D03*
%TO.P,U4,11,RB6/SCL/SCK*%
%TO.N,PIC16F84_PGEC*%
X105918000Y-96520000D03*
%TO.P,U4,12,RB5/AN11/RX/DX*%
%TO.N,RB5*%
X105918000Y-93980000D03*
%TO.P,U4,13,RB4/AN10/SDA/SDI*%
%TO.N,RB4*%
X105918000Y-91440000D03*
%TO.P,U4,14,C2IN2-/C1IN2-/DACOUT1/AN6/RC2*%
%TO.N,RB2*%
X105918000Y-88900000D03*
%TO.P,U4,15,ICSPCLK/~{CWGFLT}/C2IN-/C1IN-/AN5/RC1*%
%TO.N,PIC16F14_PGEC*%
X105918000Y-86360000D03*
%TO.P,U4,16,ICSPDAT/C2IN+/C1IN+/Vref+/AN4/RC0*%
%TO.N,PIC16F14_PGED*%
X105918000Y-83820000D03*
%TO.P,U4,17,Vusb3v3*%
%TO.N,unconnected-(U4-Vusb3v3-Pad17)*%
X105918000Y-81280000D03*
%TO.P,U4,18,RA1/D-/ICSPCLK*%
%TO.N,RA1*%
X105918000Y-78740000D03*
%TO.P,U4,19,RA0/D+/ICSPDAT*%
%TO.N,RA0*%
X105918000Y-76200000D03*
%TO.P,U4,20,VSS*%
%TO.N,GND*%
X105918000Y-73660000D03*
%TD*%
D13*
%TO.P,C6,1*%
%TO.N,GND*%
X123738000Y-70104000D03*
%TO.P,C6,2*%
%TO.N,Net-(U2-OSC2{slash}CLKOUT)*%
X126238000Y-70104000D03*
%TD*%
%TO.P,C2,1*%
%TO.N,VCC*%
X88138000Y-68620000D03*
%TO.P,C2,2*%
%TO.N,GND*%
X88138000Y-71120000D03*
%TD*%
D11*
%TO.P,J9,1,Pin_1*%
%TO.N,PIC24_MCLR*%
X91694000Y-52324000D03*
D12*
%TO.P,J9,2,Pin_2*%
%TO.N,{slash}MCLR*%
X93694000Y-52324000D03*
%TO.P,J9,3,Pin_3*%
%TO.N,PIC16F14_MCLR*%
X91694000Y-54324000D03*
%TO.P,J9,4,Pin_4*%
%TO.N,{slash}MCLR*%
X93694000Y-54324000D03*
%TO.P,J9,5,Pin_5*%
%TO.N,PIC16F84_MCLR*%
X91694000Y-56324000D03*
%TO.P,J9,6,Pin_6*%
%TO.N,{slash}MCLR*%
X93694000Y-56324000D03*
%TD*%
D13*
%TO.P,C9,1*%
%TO.N,VCC*%
X128778000Y-85384000D03*
%TO.P,C9,2*%
%TO.N,GND*%
X128778000Y-87884000D03*
%TD*%
%TO.P,R1,1*%
%TO.N,Net-(JP1-B)*%
X77470000Y-65024000D03*
D14*
%TO.P,R1,2*%
%TO.N,VCC*%
X85090000Y-65024000D03*
%TD*%
D15*
%TO.P,C4,1*%
%TO.N,Net-(U1-Vcap{slash}Vddcore)*%
X90170000Y-88687144D03*
D13*
%TO.P,C4,2*%
%TO.N,GND*%
X90170000Y-91187144D03*
%TD*%
%TO.P,R2,1*%
%TO.N,PIC24_MCLR*%
X85090000Y-61722000D03*
D14*
%TO.P,R2,2*%
%TO.N,Net-(JP1-B)*%
X77470000Y-61722000D03*
%TD*%
D13*
%TO.P,C5,1*%
%TO.N,GND*%
X116586000Y-70104000D03*
%TO.P,C5,2*%
%TO.N,Net-(U2-OSC1{slash}CLKIN)*%
X119086000Y-70104000D03*
%TD*%
D21*
%TO.P,D1,1,K*%
%TO.N,GND*%
X123566000Y-46482000D03*
D22*
%TO.P,D1,2,A*%
%TO.N,Net-(D1-A)*%
X126106000Y-46482000D03*
%TD*%
D19*
%TO.P,J2,1,Pin_1*%
%TO.N,PIC16F14_PGED*%
X68072000Y-79756000D03*
D20*
%TO.P,J2,2,Pin_2*%
%TO.N,PIC16F14_PGEC*%
X68072000Y-82296000D03*
%TO.P,J2,3,Pin_3*%
%TO.N,RB2*%
X68072000Y-84836000D03*
%TO.P,J2,4,Pin_4*%
%TO.N,RB3*%
X68072000Y-87376000D03*
%TO.P,J2,5,Pin_5*%
%TO.N,RB4*%
X68072000Y-89916000D03*
%TO.P,J2,6,Pin_6*%
%TO.N,RB5*%
X68072000Y-92456000D03*
%TO.P,J2,7,Pin_7*%
%TO.N,PIC16F84_PGEC*%
X68072000Y-94996000D03*
%TO.P,J2,8,Pin_8*%
%TO.N,PIC16F84_PGED*%
X68072000Y-97536000D03*
%TO.P,J2,9,Pin_9*%
%TO.N,+3.3V*%
X68072000Y-100076000D03*
%TO.P,J2,10,Pin_10*%
%TO.N,GND*%
X68072000Y-102616000D03*
%TD*%
D19*
%TO.P,J5,1,Pin_1*%
%TO.N,{slash}MCLR*%
X86250000Y-39100000D03*
D20*
%TO.P,J5,2,Pin_2*%
%TO.N,VCC*%
X83710000Y-39100000D03*
%TO.P,J5,3,Pin_3*%
%TO.N,GND*%
X81170000Y-39100000D03*
%TO.P,J5,4,Pin_4*%
%TO.N,PGED*%
X78630000Y-39100000D03*
%TO.P,J5,5,Pin_5*%
%TO.N,PGEC*%
X76090000Y-39100000D03*
%TO.P,J5,6,Pin_6*%
%TO.N,unconnected-(J5-Pin_6-Pad6)*%
X73550000Y-39100000D03*
%TD*%
D19*
%TO.P,J1,1,Pin_1*%
%TO.N,RA0*%
X68072000Y-55372000D03*
D20*
%TO.P,J1,2,Pin_2*%
%TO.N,RA1*%
X68072000Y-57912000D03*
%TO.P,J1,3,Pin_3*%
%TO.N,RA2*%
X68072000Y-60452000D03*
%TO.P,J1,4,Pin_4*%
%TO.N,PIC16F14_MCLR*%
X68072000Y-62992000D03*
%TO.P,J1,5,Pin_5*%
%TO.N,RA4*%
X68072000Y-65532000D03*
%TO.P,J1,6,Pin_6*%
%TO.N,RA5*%
X68072000Y-68072000D03*
%TO.P,J1,7,Pin_7*%
%TO.N,+3.3V*%
X68072000Y-70612000D03*
%TO.P,J1,8,Pin_8*%
%TO.N,GND*%
X68072000Y-73152000D03*
%TD*%
D18*
%TO.P,H3,1*%
%TO.N,N/C*%
X66548000Y-109474000D03*
%TD*%
%TO.P,H1,1*%
%TO.N,N/C*%
X66040000Y-36068000D03*
%TD*%
D19*
%TO.P,J3,1,Pin_1*%
%TO.N,RB8*%
X87884000Y-109220000D03*
D20*
%TO.P,J3,2,Pin_2*%
%TO.N,RB9*%
X90424000Y-109220000D03*
%TO.P,J3,3,Pin_3*%
%TO.N,RB10*%
X92964000Y-109220000D03*
%TO.P,J3,4,Pin_4*%
%TO.N,RB11*%
X95504000Y-109220000D03*
%TO.P,J3,5,Pin_5*%
%TO.N,RB13*%
X98044000Y-109220000D03*
%TO.P,J3,6,Pin_6*%
%TO.N,RB14*%
X100584000Y-109220000D03*
%TO.P,J3,7,Pin_7*%
%TO.N,RB15*%
X103124000Y-109220000D03*
%TO.P,J3,8,Pin_8*%
%TO.N,+5V*%
X105664000Y-109220000D03*
%TO.P,J3,9,Pin_9*%
%TO.N,+3.3V*%
X108204000Y-109220000D03*
%TO.P,J3,10,Pin_10*%
%TO.N,GND*%
X110744000Y-109220000D03*
%TD*%
D19*
%TO.P,JP1,1,A*%
%TO.N,Net-(JP1-A)*%
X73660000Y-62230000D03*
D20*
%TO.P,JP1,2,B*%
%TO.N,Net-(JP1-B)*%
X73660000Y-64770000D03*
%TD*%
D11*
%TO.P,J8,1,Pin_1*%
%TO.N,PIC16F14_PGED*%
X85122000Y-52324000D03*
D12*
%TO.P,J8,2,Pin_2*%
%TO.N,PGED*%
X87122000Y-52324000D03*
%TO.P,J8,3,Pin_3*%
%TO.N,PIC16F14_PGED*%
X85122000Y-54324000D03*
%TO.P,J8,4,Pin_4*%
%TO.N,PGED*%
X87122000Y-54324000D03*
%TO.P,J8,5,Pin_5*%
%TO.N,PIC16F84_PGED*%
X85122000Y-56324000D03*
%TO.P,J8,6,Pin_6*%
%TO.N,PGED*%
X87122000Y-56324000D03*
%TD*%
D23*
%TO.P,J6,1,VBUS*%
%TO.N,+5V*%
X123426000Y-40012000D03*
%TO.P,J6,2,D-*%
%TO.N,unconnected-(J6-D--Pad2)*%
X122626000Y-38262000D03*
%TO.P,J6,3,D+*%
%TO.N,unconnected-(J6-D+-Pad3)*%
X121826000Y-40012000D03*
%TO.P,J6,4,ID*%
%TO.N,unconnected-(J6-ID-Pad4)*%
X121026000Y-38262000D03*
D24*
%TO.P,J6,5,GND*%
%TO.N,GND*%
X120226000Y-40012000D03*
D25*
%TO.P,J6,6,Shield*%
X118226000Y-35512000D03*
X118226000Y-39012000D03*
X125476000Y-35512000D03*
X125476000Y-39012000D03*
%TD*%
D15*
%TO.P,U2,1,RA2*%
%TO.N,RA2*%
X117602000Y-74676000D03*
D14*
%TO.P,U2,2,RA3*%
%TO.N,PIC16F14_MCLR*%
X117602000Y-77216000D03*
%TO.P,U2,3,TOCKI/RA4*%
%TO.N,RA4*%
X117602000Y-79756000D03*
%TO.P,U2,4,~{MCLR}*%
%TO.N,PIC16F84_MCLR*%
X117602000Y-82296000D03*
%TO.P,U2,5,VSS*%
%TO.N,GND*%
X117602000Y-84836000D03*
%TO.P,U2,6,INT/RB0*%
%TO.N,PIC16F14_PGED*%
X117602000Y-87376000D03*
%TO.P,U2,7,RB1*%
%TO.N,PIC16F14_PGEC*%
X117602000Y-89916000D03*
%TO.P,U2,8,RB2*%
%TO.N,RB2*%
X117602000Y-92456000D03*
%TO.P,U2,9,RB3*%
%TO.N,RB3*%
X117602000Y-94996000D03*
%TO.P,U2,10,RB4*%
%TO.N,RB4*%
X125222000Y-94996000D03*
%TO.P,U2,11,RB5*%
%TO.N,RB5*%
X125222000Y-92456000D03*
%TO.P,U2,12,RB6*%
%TO.N,PIC16F84_PGEC*%
X125222000Y-89916000D03*
%TO.P,U2,13,RB7*%
%TO.N,PIC16F84_PGED*%
X125222000Y-87376000D03*
%TO.P,U2,14,VDD*%
%TO.N,VCC*%
X125222000Y-84836000D03*
%TO.P,U2,15,OSC2/CLKOUT*%
%TO.N,Net-(U2-OSC2{slash}CLKOUT)*%
X125222000Y-82296000D03*
%TO.P,U2,16,OSC1/CLKIN*%
%TO.N,Net-(U2-OSC1{slash}CLKIN)*%
X125222000Y-79756000D03*
%TO.P,U2,17,RA0*%
%TO.N,RA0*%
X125222000Y-77216000D03*
%TO.P,U2,18,RA1*%
%TO.N,RA1*%
X125222000Y-74676000D03*
%TD*%
D13*
%TO.P,C3,1*%
%TO.N,VCC*%
X73914000Y-99020000D03*
%TO.P,C3,2*%
%TO.N,GND*%
X73914000Y-96520000D03*
%TD*%
D15*
%TO.P,C7,1*%
%TO.N,+5V*%
X110850000Y-56900000D03*
D13*
%TO.P,C7,2*%
%TO.N,GND*%
X110850000Y-59400000D03*
%TD*%
D18*
%TO.P,H2,1*%
%TO.N,N/C*%
X130556000Y-36322000D03*
%TD*%
D13*
%TO.P,R5,1*%
%TO.N,VCC*%
X118110000Y-53848000D03*
D14*
%TO.P,R5,2*%
%TO.N,RA0*%
X125730000Y-53848000D03*
%TD*%
D26*
%TO.P,Y1,1,1*%
%TO.N,Net-(U2-OSC2{slash}CLKOUT)*%
X124006000Y-65024000D03*
%TO.P,Y1,2,2*%
%TO.N,Net-(U2-OSC1{slash}CLKIN)*%
X119126000Y-65024000D03*
%TD*%
D13*
%TO.P,R3,1*%
%TO.N,PIC16F84_MCLR*%
X112750000Y-82500000D03*
D14*
%TO.P,R3,2*%
%TO.N,VCC*%
X112750000Y-74880000D03*
%TD*%
D27*
%TO.N,GND*%
X90297000Y-82931000D03*
X103124000Y-91567000D03*
X91440000Y-107188000D03*
X93980000Y-107188000D03*
X104394000Y-106934000D03*
X101092000Y-106934000D03*
X75438000Y-88773000D03*
X79650000Y-91500000D03*
X100711000Y-91567000D03*
X79883000Y-71374000D03*
X96012000Y-107188000D03*
X108850000Y-53500000D03*
X93091000Y-82296000D03*
X97802500Y-107188000D03*
X89154000Y-107188000D03*
X85852000Y-106172000D03*
%TO.N,RA2*%
X112433719Y-89995208D03*
%TO.N,RA4*%
X92202000Y-95504000D03*
X102870000Y-78740000D03*
%TO.N,RB14*%
X92456000Y-88138000D03*
%TO.N,RA1*%
X70979014Y-62790069D03*
%TO.N,PIC16F14_PGED*%
X103886000Y-78232000D03*
%TO.N,PIC16F14_MCLR*%
X94729500Y-91186000D03*
X115062000Y-80590000D03*
%TO.N,PIC16F84_PGEC*%
X74850000Y-103900000D03*
%TO.N,PIC16F84_PGED*%
X103053153Y-95296847D03*
X82550000Y-99060000D03*
%TO.N,VCC*%
X107650000Y-94900000D03*
%TO.N,+3.3V*%
X96650000Y-50300000D03*
%TD*%
D28*
%TO.N,GND*%
X100711000Y-91567000D02*
X103124000Y-91567000D01*
X75438000Y-88773000D02*
X76815703Y-90150703D01*
X100838000Y-107188000D02*
X97802500Y-107188000D01*
X86868000Y-107188000D02*
X85852000Y-106172000D01*
X105918000Y-73660000D02*
X105918000Y-73332000D01*
X90932000Y-82296000D02*
X90297000Y-82931000D01*
X108750000Y-50800000D02*
X108750000Y-53400000D01*
X105918000Y-73332000D02*
X109146000Y-70104000D01*
X80137000Y-71120000D02*
X85090000Y-71120000D01*
X75438000Y-87630000D02*
X76708000Y-86360000D01*
X79303647Y-91440000D02*
X85090000Y-91440000D01*
X108750000Y-53400000D02*
X108850000Y-53500000D01*
X93091000Y-82296000D02*
X90932000Y-82296000D01*
X103124000Y-91567000D02*
X102997000Y-91567000D01*
X79883000Y-71374000D02*
X80137000Y-71120000D01*
X75438000Y-88773000D02*
X75438000Y-87630000D01*
X76708000Y-86360000D02*
X77470000Y-86360000D01*
X89154000Y-107188000D02*
X86868000Y-107188000D01*
X85090000Y-91440000D02*
X89917144Y-91440000D01*
X91440000Y-107188000D02*
X93980000Y-107188000D01*
X96012000Y-107188000D02*
X97802500Y-107188000D01*
X68072000Y-73152000D02*
X71842000Y-73152000D01*
X93980000Y-107188000D02*
X96012000Y-107188000D01*
X76815703Y-90150703D02*
X78014350Y-90150703D01*
X89917144Y-91440000D02*
X90170000Y-91187144D01*
X109146000Y-70104000D02*
X116586000Y-70104000D01*
X78014350Y-90150703D02*
X79303647Y-91440000D01*
X101092000Y-106934000D02*
X100838000Y-107188000D01*
X71842000Y-73152000D02*
X73660000Y-71334000D01*
X101092000Y-106934000D02*
X104394000Y-106934000D01*
X89154000Y-107188000D02*
X91440000Y-107188000D01*
%TO.N,Net-(U2-OSC2{slash}CLKOUT)*%
X126238000Y-67256000D02*
X126238000Y-70104000D01*
X124006000Y-65024000D02*
X126238000Y-67256000D01*
X127037999Y-80480001D02*
X125222000Y-82296000D01*
X126238000Y-70104000D02*
X127037999Y-70903999D01*
X127037999Y-70903999D02*
X127037999Y-80480001D01*
%TO.N,Net-(U2-OSC1{slash}CLKIN)*%
X119126000Y-65024000D02*
X119126000Y-70064000D01*
X119126000Y-70064000D02*
X119086000Y-70104000D01*
%TO.N,Net-(D1-A)*%
X127889000Y-48265000D02*
X127889000Y-56261000D01*
X127889000Y-56261000D02*
X125730000Y-58420000D01*
X126106000Y-46482000D02*
X127889000Y-48265000D01*
%TO.N,{slash}MCLR*%
X93694000Y-46544000D02*
X86250000Y-39100000D01*
X93694000Y-52324000D02*
X93694000Y-46544000D01*
%TO.N,PGED*%
X78630000Y-39100000D02*
X78630000Y-41080000D01*
X78630000Y-41080000D02*
X87122000Y-49572000D01*
X87122000Y-49572000D02*
X87122000Y-52324000D01*
%TO.N,PGEC*%
X80250000Y-46300000D02*
X81026000Y-47076000D01*
X80250000Y-45900000D02*
X80250000Y-46300000D01*
X81026000Y-52324000D02*
X81026000Y-54324000D01*
X81026000Y-54324000D02*
X81026000Y-56324000D01*
X81026000Y-47076000D02*
X81026000Y-52324000D01*
X76090000Y-39100000D02*
X76090000Y-41740000D01*
X76090000Y-41740000D02*
X80250000Y-45900000D01*
D29*
%TO.N,RA2*%
X97173000Y-88434009D02*
X97173000Y-89365991D01*
X95629604Y-86868000D02*
X97184307Y-88422703D01*
X112433719Y-89957374D02*
X112383273Y-90007820D01*
X97173000Y-89365991D02*
X97832009Y-90025000D01*
X79050000Y-88900000D02*
X80309834Y-90159834D01*
X88888733Y-86868000D02*
X95629604Y-86868000D01*
X112433719Y-89995208D02*
X112433719Y-89957374D01*
X97184307Y-88422703D02*
X97173000Y-88434009D01*
X112403927Y-90025000D02*
X112433719Y-89995208D01*
X85596899Y-90159834D02*
X88888733Y-86868000D01*
X77470000Y-88900000D02*
X79050000Y-88900000D01*
X80309834Y-90159834D02*
X85596899Y-90159834D01*
X97832009Y-90025000D02*
X112403927Y-90025000D01*
%TO.N,RA4*%
X78595000Y-97645000D02*
X77470000Y-96520000D01*
X90061000Y-97645000D02*
X78595000Y-97645000D01*
X117493000Y-79865000D02*
X117602000Y-79756000D01*
X92202000Y-95504000D02*
X90061000Y-97645000D01*
X102870000Y-78740000D02*
X103995000Y-79865000D01*
X103995000Y-79865000D02*
X117493000Y-79865000D01*
D28*
%TO.N,RB2*%
X68072000Y-84836000D02*
X71628000Y-81280000D01*
D29*
X95344966Y-84997957D02*
X97832009Y-87485000D01*
X114046000Y-88900000D02*
X117602000Y-92456000D01*
X97832009Y-87485000D02*
X104503000Y-87485000D01*
X81187957Y-84997957D02*
X95344966Y-84997957D01*
X104503000Y-87485000D02*
X105918000Y-88900000D01*
X77470000Y-81280000D02*
X81187957Y-84997957D01*
X105918000Y-88900000D02*
X114046000Y-88900000D01*
D28*
X71628000Y-81280000D02*
X77470000Y-81280000D01*
D29*
%TO.N,RB3*%
X81135000Y-87485000D02*
X85555991Y-87485000D01*
D28*
X71628000Y-83820000D02*
X77470000Y-83820000D01*
X68072000Y-87376000D02*
X71628000Y-83820000D01*
D29*
X77470000Y-83820000D02*
X81135000Y-87485000D01*
X87188991Y-85852000D02*
X95250000Y-85852000D01*
X85555991Y-87485000D02*
X87188991Y-85852000D01*
X95250000Y-85852000D02*
X98298000Y-88900000D01*
%TO.N,RB4*%
X108059000Y-93581000D02*
X123807000Y-93581000D01*
X105918000Y-91440000D02*
X108059000Y-93581000D01*
X92816774Y-92855000D02*
X104503000Y-92855000D01*
D28*
X73406000Y-89916000D02*
X77470000Y-93980000D01*
D29*
X77470000Y-93980000D02*
X78885000Y-95395000D01*
X123807000Y-93581000D02*
X125222000Y-94996000D01*
X90276774Y-95395000D02*
X92816774Y-92855000D01*
D28*
X68072000Y-89916000D02*
X73406000Y-89916000D01*
D29*
X104503000Y-92855000D02*
X105918000Y-91440000D01*
X78885000Y-95395000D02*
X90276774Y-95395000D01*
%TO.N,RB5*%
X107821604Y-93980000D02*
X107872604Y-94031000D01*
X125508991Y-96300000D02*
X126347000Y-95461991D01*
X105370000Y-93980000D02*
X105918000Y-93980000D01*
X126347000Y-95461991D02*
X126347000Y-93581000D01*
X126347000Y-93581000D02*
X125222000Y-92456000D01*
X92202000Y-98552000D02*
X100823305Y-98552000D01*
X103778153Y-95571847D02*
X105370000Y-93980000D01*
X100823305Y-98552000D02*
X103778153Y-95597152D01*
X77470000Y-101600000D02*
X78595000Y-100475000D01*
X110850000Y-96300000D02*
X125508991Y-96300000D01*
X78595000Y-100475000D02*
X90279000Y-100475000D01*
X108581000Y-94031000D02*
X110850000Y-96300000D01*
X90279000Y-100475000D02*
X92202000Y-98552000D01*
X103778153Y-95597152D02*
X103778153Y-95571847D01*
X105918000Y-93980000D02*
X107821604Y-93980000D01*
X107872604Y-94031000D02*
X108581000Y-94031000D01*
%TO.N,RB11*%
X85090000Y-83820000D02*
X95758000Y-83820000D01*
X95758000Y-83820000D02*
X98298000Y-86360000D01*
%TO.N,RB13*%
X93218000Y-78740000D02*
X98298000Y-83820000D01*
X85090000Y-78740000D02*
X93218000Y-78740000D01*
D28*
%TO.N,RB14*%
X92964000Y-88646000D02*
X95504000Y-88646000D01*
X95504000Y-88646000D02*
X98298000Y-91440000D01*
X92456000Y-88138000D02*
X92964000Y-88646000D01*
D29*
%TO.N,RA0*%
X77470000Y-71120000D02*
X78630000Y-71120000D01*
X90258991Y-71400000D02*
X100134000Y-71400000D01*
X80495000Y-69745000D02*
X88603991Y-69745000D01*
X125222000Y-77216000D02*
X124097000Y-76091000D01*
X100134000Y-71400000D02*
X104934000Y-76200000D01*
X124097000Y-76091000D02*
X106027000Y-76091000D01*
X78630000Y-71120000D02*
X80250000Y-69500000D01*
X104934000Y-76200000D02*
X105918000Y-76200000D01*
X88603991Y-69745000D02*
X90258991Y-71400000D01*
X80250000Y-69500000D02*
X80495000Y-69745000D01*
X106027000Y-76091000D02*
X105918000Y-76200000D01*
%TO.N,RA1*%
X126347000Y-77681991D02*
X126347000Y-75801000D01*
X99713000Y-72535000D02*
X78595000Y-72535000D01*
X74785000Y-68035000D02*
X70998099Y-64248099D01*
X78595000Y-72535000D02*
X77470000Y-73660000D01*
X106027000Y-78631000D02*
X125397991Y-78631000D01*
X126347000Y-75801000D02*
X125222000Y-74676000D01*
X105918000Y-78740000D02*
X106027000Y-78631000D01*
X77470000Y-73660000D02*
X74785000Y-70975000D01*
X74785000Y-70975000D02*
X74785000Y-68035000D01*
X125397991Y-78631000D02*
X126347000Y-77681991D01*
X70998099Y-64248099D02*
X70979014Y-62790069D01*
X70979014Y-62790069D02*
X70998099Y-62856865D01*
X105918000Y-78740000D02*
X99713000Y-72535000D01*
D28*
%TO.N,PIC24_MCLR*%
X78232000Y-68580000D02*
X77470000Y-68580000D01*
X85090000Y-61722000D02*
X78232000Y-68580000D01*
%TO.N,Net-(JP1-B)*%
X77470000Y-61722000D02*
X77470000Y-65024000D01*
X77470000Y-65024000D02*
X73914000Y-65024000D01*
X73914000Y-65024000D02*
X73660000Y-64770000D01*
%TO.N,PIC16F14_PGED*%
X69850000Y-76200000D02*
X77470000Y-76200000D01*
D29*
X105918000Y-83820000D02*
X114046000Y-83820000D01*
X97215009Y-78232000D02*
X97832009Y-77615000D01*
X103269000Y-77615000D02*
X103886000Y-78232000D01*
X84624009Y-77615000D02*
X85555991Y-77615000D01*
D28*
X68072000Y-79756000D02*
X68072000Y-77978000D01*
D29*
X79502000Y-78232000D02*
X84007009Y-78232000D01*
X84007009Y-78232000D02*
X84624009Y-77615000D01*
X97832009Y-77615000D02*
X103269000Y-77615000D01*
X114046000Y-83820000D02*
X117602000Y-87376000D01*
D28*
X68072000Y-77978000D02*
X69850000Y-76200000D01*
D29*
X77470000Y-76200000D02*
X79502000Y-78232000D01*
X85122000Y-52324000D02*
X85122000Y-54324000D01*
X85555991Y-77615000D02*
X86172991Y-78232000D01*
X86172991Y-78232000D02*
X97215009Y-78232000D01*
D28*
%TO.N,PIC16F14_PGEC*%
X71628000Y-78740000D02*
X77470000Y-78740000D01*
X68072000Y-82296000D02*
X71628000Y-78740000D01*
D29*
X104793000Y-85235000D02*
X105918000Y-86360000D01*
X77470000Y-78740000D02*
X78885000Y-80155000D01*
X114046000Y-86360000D02*
X117602000Y-89916000D01*
X92729396Y-80155000D02*
X97809396Y-85235000D01*
X97809396Y-85235000D02*
X104793000Y-85235000D01*
X78885000Y-80155000D02*
X92729396Y-80155000D01*
X105918000Y-86360000D02*
X114046000Y-86360000D01*
%TO.N,PIC16F14_MCLR*%
X78693770Y-92663770D02*
X77470000Y-91440000D01*
D28*
X90606925Y-54324000D02*
X85494925Y-59436000D01*
D29*
X110784009Y-80590000D02*
X108969009Y-82405000D01*
X115062000Y-80590000D02*
X110784009Y-80590000D01*
X93967500Y-91948000D02*
X91694000Y-91948000D01*
X108969009Y-82405000D02*
X99423000Y-82405000D01*
X94729500Y-91186000D02*
X93967500Y-91948000D01*
X99423000Y-82405000D02*
X98298000Y-81280000D01*
D28*
X91694000Y-54324000D02*
X90606925Y-54324000D01*
D29*
X91694000Y-91948000D02*
X90978230Y-92663770D01*
X90978230Y-92663770D02*
X78693770Y-92663770D01*
D28*
X85494925Y-59436000D02*
X71628000Y-59436000D01*
X71628000Y-59436000D02*
X68072000Y-62992000D01*
%TO.N,PIC16F84_PGEC*%
X64750000Y-55400000D02*
X64750000Y-91674000D01*
X64750000Y-91674000D02*
X68072000Y-94996000D01*
D29*
X105918000Y-96520000D02*
X107898000Y-98500000D01*
D28*
X79026000Y-56324000D02*
X75602000Y-52900000D01*
X75602000Y-52900000D02*
X67250000Y-52900000D01*
X98338000Y-104100000D02*
X105918000Y-96520000D01*
D29*
X125650000Y-98500000D02*
X127650000Y-96500000D01*
D28*
X75050000Y-104100000D02*
X98338000Y-104100000D01*
D29*
X107898000Y-98500000D02*
X125650000Y-98500000D01*
X127650000Y-92344000D02*
X125222000Y-89916000D01*
D28*
X74850000Y-103900000D02*
X75050000Y-104100000D01*
D29*
X127650000Y-96500000D02*
X127650000Y-92344000D01*
D28*
X67250000Y-52900000D02*
X64750000Y-55400000D01*
%TO.N,PIC16F84_PGED*%
X68231000Y-97695000D02*
X77937894Y-97695000D01*
X68072000Y-97536000D02*
X68231000Y-97695000D01*
D29*
X92202000Y-96520000D02*
X98298000Y-96520000D01*
D28*
X79302894Y-99060000D02*
X85090000Y-99060000D01*
X99518000Y-95300000D02*
X98298000Y-96520000D01*
X103050000Y-95300000D02*
X99518000Y-95300000D01*
X77937894Y-97695000D02*
X79302894Y-99060000D01*
X103053153Y-95296847D02*
X103050000Y-95300000D01*
D29*
X85090000Y-99060000D02*
X89662000Y-99060000D01*
X89662000Y-99060000D02*
X92202000Y-96520000D01*
%TO.N,PIC16F84_MCLR*%
X112750000Y-82500000D02*
X113250000Y-82500000D01*
X113250000Y-82500000D02*
X113454000Y-82296000D01*
X113454000Y-82296000D02*
X117602000Y-82296000D01*
D28*
%TO.N,RA5*%
X66847000Y-73659412D02*
X66847000Y-69297000D01*
X66847000Y-69297000D02*
X68072000Y-68072000D01*
X86519000Y-74835000D02*
X68022588Y-74835000D01*
X97163000Y-77335000D02*
X89019000Y-77335000D01*
X89019000Y-77335000D02*
X86519000Y-74835000D01*
X68022588Y-74835000D02*
X66847000Y-73659412D01*
X98298000Y-76200000D02*
X97163000Y-77335000D01*
%TO.N,VCC*%
X98050000Y-54300000D02*
X98050000Y-56300000D01*
X128778000Y-64428000D02*
X128778000Y-85384000D01*
X85090000Y-67310000D02*
X85090000Y-68580000D01*
X73914000Y-99020000D02*
X77430000Y-99020000D01*
D29*
X105030000Y-74880000D02*
X101050000Y-70900000D01*
D28*
X115824000Y-61526000D02*
X115824000Y-56134000D01*
X88098000Y-68580000D02*
X88138000Y-68620000D01*
X97050000Y-103100000D02*
X104805000Y-95345000D01*
X85050000Y-37300000D02*
X87450000Y-37300000D01*
X83710000Y-38640000D02*
X85050000Y-37300000D01*
X98050000Y-52300000D02*
X98050000Y-54300000D01*
D29*
X112750000Y-74880000D02*
X105030000Y-74880000D01*
D28*
X87450000Y-37300000D02*
X98050000Y-47900000D01*
X118198000Y-53848000D02*
X128778000Y-64428000D01*
X98050000Y-47900000D02*
X98050000Y-52300000D01*
X128230000Y-84836000D02*
X125222000Y-84836000D01*
X109550000Y-67800000D02*
X115824000Y-61526000D01*
X107650000Y-94900000D02*
X107578586Y-95095059D01*
X76862630Y-103100000D02*
X97050000Y-103100000D01*
X85090000Y-68580000D02*
X88098000Y-68580000D01*
X97322000Y-68620000D02*
X98298000Y-69596000D01*
X106450000Y-70900000D02*
X109550000Y-67800000D01*
X104805000Y-95345000D02*
X107328645Y-95345000D01*
X88138000Y-68620000D02*
X97322000Y-68620000D01*
X101050000Y-70900000D02*
X106450000Y-70900000D01*
X73914000Y-99020000D02*
X73914000Y-100151370D01*
X128778000Y-85384000D02*
X128230000Y-84836000D01*
X85090000Y-65024000D02*
X85090000Y-67310000D01*
X98298000Y-69596000D02*
X99746000Y-69596000D01*
X98050000Y-56300000D02*
X109550000Y-67800000D01*
X77430000Y-99020000D02*
X77470000Y-99060000D01*
X83710000Y-39100000D02*
X83710000Y-38640000D01*
X118110000Y-53848000D02*
X118198000Y-53848000D01*
X95250000Y-73660000D02*
X98298000Y-73660000D01*
X99746000Y-69596000D02*
X101050000Y-70900000D01*
X73914000Y-100151370D02*
X76862630Y-103100000D01*
D30*
X88138000Y-68212000D02*
X88138000Y-68620000D01*
D28*
X107328645Y-95345000D02*
X107650000Y-94900000D01*
X115824000Y-56134000D02*
X118110000Y-53848000D01*
D30*
%TO.N,+5V*%
X123426000Y-40012000D02*
X118694000Y-44744000D01*
X110850000Y-56900000D02*
X113350000Y-54400000D01*
X105650000Y-109900000D02*
X107050000Y-111300000D01*
X113350000Y-50088000D02*
X113350000Y-50800000D01*
X105664000Y-109220000D02*
X105650000Y-109234000D01*
X130028000Y-46614000D02*
X123426000Y-40012000D01*
X118694000Y-44744000D02*
X116250000Y-42300000D01*
X105650000Y-109234000D02*
X105650000Y-109900000D01*
X111642000Y-42300000D02*
X108458000Y-39116000D01*
D28*
X113350000Y-50800000D02*
X113550000Y-50800000D01*
X108458000Y-39116000D02*
X108234000Y-39116000D01*
D30*
X100050000Y-54300000D02*
X100050000Y-56300000D01*
X113350000Y-54400000D02*
X113350000Y-50800000D01*
X130028000Y-96522000D02*
X130028000Y-46614000D01*
X115250000Y-111300000D02*
X130028000Y-96522000D01*
X107050000Y-111300000D02*
X115250000Y-111300000D01*
X118694000Y-44744000D02*
X113350000Y-50088000D01*
X116250000Y-42300000D02*
X111642000Y-42300000D01*
%TO.N,+3.3V*%
X100050000Y-50300000D02*
X100050000Y-52300000D01*
D28*
X69750000Y-62600000D02*
X72364000Y-59986000D01*
X104084000Y-105100000D02*
X73096000Y-105100000D01*
X108204000Y-109220000D02*
X104084000Y-105100000D01*
X68072000Y-70612000D02*
X68580000Y-70104000D01*
D30*
X105850000Y-44500000D02*
X100050000Y-50300000D01*
X111050000Y-44500000D02*
X111050000Y-47700000D01*
D28*
X72364000Y-59986000D02*
X91516925Y-59986000D01*
X68072000Y-70612000D02*
X69750000Y-68934000D01*
X95850000Y-50900000D02*
X96450000Y-50300000D01*
X91516925Y-59986000D02*
X95850000Y-55652925D01*
X69750000Y-68934000D02*
X69750000Y-62600000D01*
D30*
X105850000Y-44500000D02*
X111050000Y-44500000D01*
X111050000Y-47700000D02*
X111050000Y-50800000D01*
D28*
X96450000Y-50300000D02*
X96650000Y-50300000D01*
X73096000Y-105100000D02*
X68072000Y-100076000D01*
X95850000Y-55652925D02*
X95850000Y-50900000D01*
%TD*%
M02*
