%TF.GenerationSoftware,KiCad,Pcbnew,8.0.2*%
%TF.CreationDate,2024-05-01T23:32:07+01:00*%
%TF.ProjectId,PIC_QuickDevBoard,5049435f-5175-4696-936b-446576426f61,2.2*%
%TF.SameCoordinates,Original*%
%TF.FileFunction,Drillmap*%
%TF.FilePolarity,Positive*%
%FSLAX45Y45*%
G04 Gerber Fmt 4.5, Leading zero omitted, Abs format (unit mm)*
G04 Created by KiCad (PCBNEW 8.0.2) date 2024-05-01 23:32:07*
%MOMM*%
%LPD*%
G01*
G04 APERTURE LIST*
%ADD10C,0.100000*%
%ADD11C,0.200000*%
%ADD12C,0.110000*%
%ADD13C,0.250000*%
G04 APERTURE END LIST*
D10*
X6299200Y-3302000D02*
X13385800Y-3302000D01*
X13385800Y-11430000D01*
X6299200Y-11430000D01*
X6299200Y-3302000D01*
D11*
D10*
X7077901Y-6259007D02*
X7117901Y-6299007D01*
X7117901Y-6259007D02*
X7077901Y-6299007D01*
X7465000Y-10370000D02*
X7505000Y-10410000D01*
X7505000Y-10370000D02*
X7465000Y-10410000D01*
X7523800Y-8857300D02*
X7563800Y-8897300D01*
X7563800Y-8857300D02*
X7523800Y-8897300D01*
X7945000Y-9130000D02*
X7985000Y-9170000D01*
X7985000Y-9130000D02*
X7945000Y-9170000D01*
X7968300Y-7117400D02*
X8008300Y-7157400D01*
X8008300Y-7117400D02*
X7968300Y-7157400D01*
X8235000Y-9886000D02*
X8275000Y-9926000D01*
X8275000Y-9886000D02*
X8235000Y-9926000D01*
X8565200Y-10597200D02*
X8605200Y-10637200D01*
X8605200Y-10597200D02*
X8565200Y-10637200D01*
X8895400Y-10698800D02*
X8935400Y-10738800D01*
X8935400Y-10698800D02*
X8895400Y-10738800D01*
X9009700Y-8273100D02*
X9049700Y-8313100D01*
X9049700Y-8273100D02*
X9009700Y-8313100D01*
X9124000Y-10698800D02*
X9164000Y-10738800D01*
X9164000Y-10698800D02*
X9124000Y-10738800D01*
X9200200Y-9530400D02*
X9240200Y-9570400D01*
X9240200Y-9530400D02*
X9200200Y-9570400D01*
X9225600Y-8793800D02*
X9265600Y-8833800D01*
X9265600Y-8793800D02*
X9225600Y-8833800D01*
X9289100Y-8209600D02*
X9329100Y-8249600D01*
X9329100Y-8209600D02*
X9289100Y-8249600D01*
X9378000Y-10698800D02*
X9418000Y-10738800D01*
X9418000Y-10698800D02*
X9378000Y-10738800D01*
X9452950Y-9098600D02*
X9492950Y-9138600D01*
X9492950Y-9098600D02*
X9452950Y-9138600D01*
X9581200Y-10698800D02*
X9621200Y-10738800D01*
X9621200Y-10698800D02*
X9581200Y-10738800D01*
X9645000Y-5010000D02*
X9685000Y-5050000D01*
X9685000Y-5010000D02*
X9645000Y-5050000D01*
X9760250Y-10698800D02*
X9800250Y-10738800D01*
X9800250Y-10698800D02*
X9760250Y-10738800D01*
X10051100Y-9136700D02*
X10091100Y-9176700D01*
X10091100Y-9136700D02*
X10051100Y-9176700D01*
X10089200Y-10673400D02*
X10129200Y-10713400D01*
X10129200Y-10673400D02*
X10089200Y-10713400D01*
X10267000Y-7854000D02*
X10307000Y-7894000D01*
X10307000Y-7854000D02*
X10267000Y-7894000D01*
X10285315Y-9509685D02*
X10325315Y-9549685D01*
X10325315Y-9509685D02*
X10285315Y-9549685D01*
X10292400Y-9136700D02*
X10332400Y-9176700D01*
X10332400Y-9136700D02*
X10292400Y-9176700D01*
X10368600Y-7803200D02*
X10408600Y-7843200D01*
X10408600Y-7803200D02*
X10368600Y-7843200D01*
X10419400Y-10673400D02*
X10459400Y-10713400D01*
X10459400Y-10673400D02*
X10419400Y-10713400D01*
X10745000Y-9470000D02*
X10785000Y-9510000D01*
X10785000Y-9470000D02*
X10745000Y-9510000D01*
X10865000Y-5330000D02*
X10905000Y-5370000D01*
X10905000Y-5330000D02*
X10865000Y-5370000D01*
X11223372Y-8979521D02*
X11263372Y-9019521D01*
X11263372Y-8979521D02*
X11223372Y-9019521D01*
X11486200Y-8039000D02*
X11526200Y-8079000D01*
X11526200Y-8039000D02*
X11486200Y-8079000D01*
X7406000Y-6883400D02*
G75*
G02*
X7326000Y-6883400I-40000J0D01*
G01*
X7326000Y-6883400D02*
G75*
G02*
X7406000Y-6883400I40000J0D01*
G01*
X7406000Y-7133400D02*
G75*
G02*
X7326000Y-7133400I-40000J0D01*
G01*
X7326000Y-7133400D02*
G75*
G02*
X7406000Y-7133400I40000J0D01*
G01*
X7431400Y-9652000D02*
G75*
G02*
X7351400Y-9652000I-40000J0D01*
G01*
X7351400Y-9652000D02*
G75*
G02*
X7431400Y-9652000I40000J0D01*
G01*
X7431400Y-9902000D02*
G75*
G02*
X7351400Y-9902000I-40000J0D01*
G01*
X7351400Y-9902000D02*
G75*
G02*
X7431400Y-9902000I40000J0D01*
G01*
X7787000Y-6172200D02*
G75*
G02*
X7707000Y-6172200I-40000J0D01*
G01*
X7707000Y-6172200D02*
G75*
G02*
X7787000Y-6172200I40000J0D01*
G01*
X7787000Y-6502400D02*
G75*
G02*
X7707000Y-6502400I-40000J0D01*
G01*
X7707000Y-6502400D02*
G75*
G02*
X7787000Y-6502400I40000J0D01*
G01*
X7787000Y-6858000D02*
G75*
G02*
X7707000Y-6858000I-40000J0D01*
G01*
X7707000Y-6858000D02*
G75*
G02*
X7787000Y-6858000I40000J0D01*
G01*
X7787000Y-7112000D02*
G75*
G02*
X7707000Y-7112000I-40000J0D01*
G01*
X7707000Y-7112000D02*
G75*
G02*
X7787000Y-7112000I40000J0D01*
G01*
X7787000Y-7366000D02*
G75*
G02*
X7707000Y-7366000I-40000J0D01*
G01*
X7707000Y-7366000D02*
G75*
G02*
X7787000Y-7366000I40000J0D01*
G01*
X7787000Y-7620000D02*
G75*
G02*
X7707000Y-7620000I-40000J0D01*
G01*
X7707000Y-7620000D02*
G75*
G02*
X7787000Y-7620000I40000J0D01*
G01*
X7787000Y-7874000D02*
G75*
G02*
X7707000Y-7874000I-40000J0D01*
G01*
X7707000Y-7874000D02*
G75*
G02*
X7787000Y-7874000I40000J0D01*
G01*
X7787000Y-8128000D02*
G75*
G02*
X7707000Y-8128000I-40000J0D01*
G01*
X7707000Y-8128000D02*
G75*
G02*
X7787000Y-8128000I40000J0D01*
G01*
X7787000Y-8382000D02*
G75*
G02*
X7707000Y-8382000I-40000J0D01*
G01*
X7707000Y-8382000D02*
G75*
G02*
X7787000Y-8382000I40000J0D01*
G01*
X7787000Y-8636000D02*
G75*
G02*
X7707000Y-8636000I-40000J0D01*
G01*
X7707000Y-8636000D02*
G75*
G02*
X7787000Y-8636000I40000J0D01*
G01*
X7787000Y-8890000D02*
G75*
G02*
X7707000Y-8890000I-40000J0D01*
G01*
X7707000Y-8890000D02*
G75*
G02*
X7787000Y-8890000I40000J0D01*
G01*
X7787000Y-9144000D02*
G75*
G02*
X7707000Y-9144000I-40000J0D01*
G01*
X7707000Y-9144000D02*
G75*
G02*
X7787000Y-9144000I40000J0D01*
G01*
X7787000Y-9398000D02*
G75*
G02*
X7707000Y-9398000I-40000J0D01*
G01*
X7707000Y-9398000D02*
G75*
G02*
X7787000Y-9398000I40000J0D01*
G01*
X7787000Y-9652000D02*
G75*
G02*
X7707000Y-9652000I-40000J0D01*
G01*
X7707000Y-9652000D02*
G75*
G02*
X7787000Y-9652000I40000J0D01*
G01*
X7787000Y-9906000D02*
G75*
G02*
X7707000Y-9906000I-40000J0D01*
G01*
X7707000Y-9906000D02*
G75*
G02*
X7787000Y-9906000I40000J0D01*
G01*
X7787000Y-10160000D02*
G75*
G02*
X7707000Y-10160000I-40000J0D01*
G01*
X7707000Y-10160000D02*
G75*
G02*
X7787000Y-10160000I40000J0D01*
G01*
X7942600Y-5232400D02*
G75*
G02*
X7862600Y-5232400I-40000J0D01*
G01*
X7862600Y-5232400D02*
G75*
G02*
X7942600Y-5232400I40000J0D01*
G01*
X7942600Y-5432400D02*
G75*
G02*
X7862600Y-5432400I-40000J0D01*
G01*
X7862600Y-5432400D02*
G75*
G02*
X7942600Y-5432400I40000J0D01*
G01*
X7942600Y-5632400D02*
G75*
G02*
X7862600Y-5632400I-40000J0D01*
G01*
X7862600Y-5632400D02*
G75*
G02*
X7942600Y-5632400I40000J0D01*
G01*
X8142600Y-5232400D02*
G75*
G02*
X8062600Y-5232400I-40000J0D01*
G01*
X8062600Y-5232400D02*
G75*
G02*
X8142600Y-5232400I40000J0D01*
G01*
X8142600Y-5432400D02*
G75*
G02*
X8062600Y-5432400I-40000J0D01*
G01*
X8062600Y-5432400D02*
G75*
G02*
X8142600Y-5432400I40000J0D01*
G01*
X8142600Y-5632400D02*
G75*
G02*
X8062600Y-5632400I-40000J0D01*
G01*
X8062600Y-5632400D02*
G75*
G02*
X8142600Y-5632400I40000J0D01*
G01*
X8549000Y-6172200D02*
G75*
G02*
X8469000Y-6172200I-40000J0D01*
G01*
X8469000Y-6172200D02*
G75*
G02*
X8549000Y-6172200I40000J0D01*
G01*
X8549000Y-6502400D02*
G75*
G02*
X8469000Y-6502400I-40000J0D01*
G01*
X8469000Y-6502400D02*
G75*
G02*
X8549000Y-6502400I40000J0D01*
G01*
X8549000Y-6858000D02*
G75*
G02*
X8469000Y-6858000I-40000J0D01*
G01*
X8469000Y-6858000D02*
G75*
G02*
X8549000Y-6858000I40000J0D01*
G01*
X8549000Y-7112000D02*
G75*
G02*
X8469000Y-7112000I-40000J0D01*
G01*
X8469000Y-7112000D02*
G75*
G02*
X8549000Y-7112000I40000J0D01*
G01*
X8549000Y-7366000D02*
G75*
G02*
X8469000Y-7366000I-40000J0D01*
G01*
X8469000Y-7366000D02*
G75*
G02*
X8549000Y-7366000I40000J0D01*
G01*
X8549000Y-7620000D02*
G75*
G02*
X8469000Y-7620000I-40000J0D01*
G01*
X8469000Y-7620000D02*
G75*
G02*
X8549000Y-7620000I40000J0D01*
G01*
X8549000Y-7874000D02*
G75*
G02*
X8469000Y-7874000I-40000J0D01*
G01*
X8469000Y-7874000D02*
G75*
G02*
X8549000Y-7874000I40000J0D01*
G01*
X8549000Y-8128000D02*
G75*
G02*
X8469000Y-8128000I-40000J0D01*
G01*
X8469000Y-8128000D02*
G75*
G02*
X8549000Y-8128000I40000J0D01*
G01*
X8549000Y-8382000D02*
G75*
G02*
X8469000Y-8382000I-40000J0D01*
G01*
X8469000Y-8382000D02*
G75*
G02*
X8549000Y-8382000I40000J0D01*
G01*
X8549000Y-8636000D02*
G75*
G02*
X8469000Y-8636000I-40000J0D01*
G01*
X8469000Y-8636000D02*
G75*
G02*
X8549000Y-8636000I40000J0D01*
G01*
X8549000Y-8890000D02*
G75*
G02*
X8469000Y-8890000I-40000J0D01*
G01*
X8469000Y-8890000D02*
G75*
G02*
X8549000Y-8890000I40000J0D01*
G01*
X8549000Y-9144000D02*
G75*
G02*
X8469000Y-9144000I-40000J0D01*
G01*
X8469000Y-9144000D02*
G75*
G02*
X8549000Y-9144000I40000J0D01*
G01*
X8549000Y-9398000D02*
G75*
G02*
X8469000Y-9398000I-40000J0D01*
G01*
X8469000Y-9398000D02*
G75*
G02*
X8549000Y-9398000I40000J0D01*
G01*
X8549000Y-9652000D02*
G75*
G02*
X8469000Y-9652000I-40000J0D01*
G01*
X8469000Y-9652000D02*
G75*
G02*
X8549000Y-9652000I40000J0D01*
G01*
X8549000Y-9906000D02*
G75*
G02*
X8469000Y-9906000I-40000J0D01*
G01*
X8469000Y-9906000D02*
G75*
G02*
X8549000Y-9906000I40000J0D01*
G01*
X8549000Y-10160000D02*
G75*
G02*
X8469000Y-10160000I-40000J0D01*
G01*
X8469000Y-10160000D02*
G75*
G02*
X8549000Y-10160000I40000J0D01*
G01*
X8552200Y-5232400D02*
G75*
G02*
X8472200Y-5232400I-40000J0D01*
G01*
X8472200Y-5232400D02*
G75*
G02*
X8552200Y-5232400I40000J0D01*
G01*
X8552200Y-5432400D02*
G75*
G02*
X8472200Y-5432400I-40000J0D01*
G01*
X8472200Y-5432400D02*
G75*
G02*
X8552200Y-5432400I40000J0D01*
G01*
X8552200Y-5632400D02*
G75*
G02*
X8472200Y-5632400I-40000J0D01*
G01*
X8472200Y-5632400D02*
G75*
G02*
X8552200Y-5632400I40000J0D01*
G01*
X8752200Y-5232400D02*
G75*
G02*
X8672200Y-5232400I-40000J0D01*
G01*
X8672200Y-5232400D02*
G75*
G02*
X8752200Y-5232400I40000J0D01*
G01*
X8752200Y-5432400D02*
G75*
G02*
X8672200Y-5432400I-40000J0D01*
G01*
X8672200Y-5432400D02*
G75*
G02*
X8752200Y-5432400I40000J0D01*
G01*
X8752200Y-5632400D02*
G75*
G02*
X8672200Y-5632400I-40000J0D01*
G01*
X8672200Y-5632400D02*
G75*
G02*
X8752200Y-5632400I40000J0D01*
G01*
X8853800Y-6862000D02*
G75*
G02*
X8773800Y-6862000I-40000J0D01*
G01*
X8773800Y-6862000D02*
G75*
G02*
X8853800Y-6862000I40000J0D01*
G01*
X8853800Y-7112000D02*
G75*
G02*
X8773800Y-7112000I-40000J0D01*
G01*
X8773800Y-7112000D02*
G75*
G02*
X8853800Y-7112000I40000J0D01*
G01*
X9057000Y-8868714D02*
G75*
G02*
X8977000Y-8868714I-40000J0D01*
G01*
X8977000Y-8868714D02*
G75*
G02*
X9057000Y-8868714I40000J0D01*
G01*
X9057000Y-9118714D02*
G75*
G02*
X8977000Y-9118714I-40000J0D01*
G01*
X8977000Y-9118714D02*
G75*
G02*
X9057000Y-9118714I40000J0D01*
G01*
X9209400Y-5232400D02*
G75*
G02*
X9129400Y-5232400I-40000J0D01*
G01*
X9129400Y-5232400D02*
G75*
G02*
X9209400Y-5232400I40000J0D01*
G01*
X9209400Y-5432400D02*
G75*
G02*
X9129400Y-5432400I-40000J0D01*
G01*
X9129400Y-5432400D02*
G75*
G02*
X9209400Y-5432400I40000J0D01*
G01*
X9209400Y-5632400D02*
G75*
G02*
X9129400Y-5632400I-40000J0D01*
G01*
X9129400Y-5632400D02*
G75*
G02*
X9209400Y-5632400I40000J0D01*
G01*
X9409400Y-5232400D02*
G75*
G02*
X9329400Y-5232400I-40000J0D01*
G01*
X9329400Y-5232400D02*
G75*
G02*
X9409400Y-5232400I40000J0D01*
G01*
X9409400Y-5432400D02*
G75*
G02*
X9329400Y-5432400I-40000J0D01*
G01*
X9329400Y-5432400D02*
G75*
G02*
X9409400Y-5432400I40000J0D01*
G01*
X9409400Y-5632400D02*
G75*
G02*
X9329400Y-5632400I-40000J0D01*
G01*
X9329400Y-5632400D02*
G75*
G02*
X9409400Y-5632400I40000J0D01*
G01*
X9565000Y-7366000D02*
G75*
G02*
X9485000Y-7366000I-40000J0D01*
G01*
X9485000Y-7366000D02*
G75*
G02*
X9565000Y-7366000I40000J0D01*
G01*
X9565000Y-7616000D02*
G75*
G02*
X9485000Y-7616000I-40000J0D01*
G01*
X9485000Y-7616000D02*
G75*
G02*
X9565000Y-7616000I40000J0D01*
G01*
X9845000Y-5230000D02*
G75*
G02*
X9765000Y-5230000I-40000J0D01*
G01*
X9765000Y-5230000D02*
G75*
G02*
X9845000Y-5230000I40000J0D01*
G01*
X9845000Y-5430000D02*
G75*
G02*
X9765000Y-5430000I-40000J0D01*
G01*
X9765000Y-5430000D02*
G75*
G02*
X9845000Y-5430000I40000J0D01*
G01*
X9845000Y-5630000D02*
G75*
G02*
X9765000Y-5630000I-40000J0D01*
G01*
X9765000Y-5630000D02*
G75*
G02*
X9845000Y-5630000I40000J0D01*
G01*
X9869800Y-7366000D02*
G75*
G02*
X9789800Y-7366000I-40000J0D01*
G01*
X9789800Y-7366000D02*
G75*
G02*
X9869800Y-7366000I40000J0D01*
G01*
X9869800Y-7620000D02*
G75*
G02*
X9789800Y-7620000I-40000J0D01*
G01*
X9789800Y-7620000D02*
G75*
G02*
X9869800Y-7620000I40000J0D01*
G01*
X9869800Y-7874000D02*
G75*
G02*
X9789800Y-7874000I-40000J0D01*
G01*
X9789800Y-7874000D02*
G75*
G02*
X9869800Y-7874000I40000J0D01*
G01*
X9869800Y-8128000D02*
G75*
G02*
X9789800Y-8128000I-40000J0D01*
G01*
X9789800Y-8128000D02*
G75*
G02*
X9869800Y-8128000I40000J0D01*
G01*
X9869800Y-8382000D02*
G75*
G02*
X9789800Y-8382000I-40000J0D01*
G01*
X9789800Y-8382000D02*
G75*
G02*
X9869800Y-8382000I40000J0D01*
G01*
X9869800Y-8636000D02*
G75*
G02*
X9789800Y-8636000I-40000J0D01*
G01*
X9789800Y-8636000D02*
G75*
G02*
X9869800Y-8636000I40000J0D01*
G01*
X9869800Y-8890000D02*
G75*
G02*
X9789800Y-8890000I-40000J0D01*
G01*
X9789800Y-8890000D02*
G75*
G02*
X9869800Y-8890000I40000J0D01*
G01*
X9869800Y-9144000D02*
G75*
G02*
X9789800Y-9144000I-40000J0D01*
G01*
X9789800Y-9144000D02*
G75*
G02*
X9869800Y-9144000I40000J0D01*
G01*
X9869800Y-9398000D02*
G75*
G02*
X9789800Y-9398000I-40000J0D01*
G01*
X9789800Y-9398000D02*
G75*
G02*
X9869800Y-9398000I40000J0D01*
G01*
X9869800Y-9652000D02*
G75*
G02*
X9789800Y-9652000I-40000J0D01*
G01*
X9789800Y-9652000D02*
G75*
G02*
X9869800Y-9652000I40000J0D01*
G01*
X10045000Y-5230000D02*
G75*
G02*
X9965000Y-5230000I-40000J0D01*
G01*
X9965000Y-5230000D02*
G75*
G02*
X10045000Y-5230000I40000J0D01*
G01*
X10045000Y-5430000D02*
G75*
G02*
X9965000Y-5430000I-40000J0D01*
G01*
X9965000Y-5430000D02*
G75*
G02*
X10045000Y-5430000I40000J0D01*
G01*
X10045000Y-5630000D02*
G75*
G02*
X9965000Y-5630000I-40000J0D01*
G01*
X9965000Y-5630000D02*
G75*
G02*
X10045000Y-5630000I40000J0D01*
G01*
X10631800Y-7366000D02*
G75*
G02*
X10551800Y-7366000I-40000J0D01*
G01*
X10551800Y-7366000D02*
G75*
G02*
X10631800Y-7366000I40000J0D01*
G01*
X10631800Y-7620000D02*
G75*
G02*
X10551800Y-7620000I-40000J0D01*
G01*
X10551800Y-7620000D02*
G75*
G02*
X10631800Y-7620000I40000J0D01*
G01*
X10631800Y-7874000D02*
G75*
G02*
X10551800Y-7874000I-40000J0D01*
G01*
X10551800Y-7874000D02*
G75*
G02*
X10631800Y-7874000I40000J0D01*
G01*
X10631800Y-8128000D02*
G75*
G02*
X10551800Y-8128000I-40000J0D01*
G01*
X10551800Y-8128000D02*
G75*
G02*
X10631800Y-8128000I40000J0D01*
G01*
X10631800Y-8382000D02*
G75*
G02*
X10551800Y-8382000I-40000J0D01*
G01*
X10551800Y-8382000D02*
G75*
G02*
X10631800Y-8382000I40000J0D01*
G01*
X10631800Y-8636000D02*
G75*
G02*
X10551800Y-8636000I-40000J0D01*
G01*
X10551800Y-8636000D02*
G75*
G02*
X10631800Y-8636000I40000J0D01*
G01*
X10631800Y-8890000D02*
G75*
G02*
X10551800Y-8890000I-40000J0D01*
G01*
X10551800Y-8890000D02*
G75*
G02*
X10631800Y-8890000I40000J0D01*
G01*
X10631800Y-9144000D02*
G75*
G02*
X10551800Y-9144000I-40000J0D01*
G01*
X10551800Y-9144000D02*
G75*
G02*
X10631800Y-9144000I40000J0D01*
G01*
X10631800Y-9398000D02*
G75*
G02*
X10551800Y-9398000I-40000J0D01*
G01*
X10551800Y-9398000D02*
G75*
G02*
X10631800Y-9398000I40000J0D01*
G01*
X10631800Y-9652000D02*
G75*
G02*
X10551800Y-9652000I-40000J0D01*
G01*
X10551800Y-9652000D02*
G75*
G02*
X10631800Y-9652000I40000J0D01*
G01*
X11125000Y-5690000D02*
G75*
G02*
X11045000Y-5690000I-40000J0D01*
G01*
X11045000Y-5690000D02*
G75*
G02*
X11125000Y-5690000I40000J0D01*
G01*
X11125000Y-5940000D02*
G75*
G02*
X11045000Y-5940000I-40000J0D01*
G01*
X11045000Y-5940000D02*
G75*
G02*
X11125000Y-5940000I40000J0D01*
G01*
X11315000Y-7488000D02*
G75*
G02*
X11235000Y-7488000I-40000J0D01*
G01*
X11235000Y-7488000D02*
G75*
G02*
X11315000Y-7488000I40000J0D01*
G01*
X11315000Y-8250000D02*
G75*
G02*
X11235000Y-8250000I-40000J0D01*
G01*
X11235000Y-8250000D02*
G75*
G02*
X11315000Y-8250000I40000J0D01*
G01*
X11698600Y-7010400D02*
G75*
G02*
X11618600Y-7010400I-40000J0D01*
G01*
X11618600Y-7010400D02*
G75*
G02*
X11698600Y-7010400I40000J0D01*
G01*
X11800200Y-7467600D02*
G75*
G02*
X11720200Y-7467600I-40000J0D01*
G01*
X11720200Y-7467600D02*
G75*
G02*
X11800200Y-7467600I40000J0D01*
G01*
X11800200Y-7721600D02*
G75*
G02*
X11720200Y-7721600I-40000J0D01*
G01*
X11720200Y-7721600D02*
G75*
G02*
X11800200Y-7721600I40000J0D01*
G01*
X11800200Y-7975600D02*
G75*
G02*
X11720200Y-7975600I-40000J0D01*
G01*
X11720200Y-7975600D02*
G75*
G02*
X11800200Y-7975600I40000J0D01*
G01*
X11800200Y-8229600D02*
G75*
G02*
X11720200Y-8229600I-40000J0D01*
G01*
X11720200Y-8229600D02*
G75*
G02*
X11800200Y-8229600I40000J0D01*
G01*
X11800200Y-8483600D02*
G75*
G02*
X11720200Y-8483600I-40000J0D01*
G01*
X11720200Y-8483600D02*
G75*
G02*
X11800200Y-8483600I40000J0D01*
G01*
X11800200Y-8737600D02*
G75*
G02*
X11720200Y-8737600I-40000J0D01*
G01*
X11720200Y-8737600D02*
G75*
G02*
X11800200Y-8737600I40000J0D01*
G01*
X11800200Y-8991600D02*
G75*
G02*
X11720200Y-8991600I-40000J0D01*
G01*
X11720200Y-8991600D02*
G75*
G02*
X11800200Y-8991600I40000J0D01*
G01*
X11800200Y-9245600D02*
G75*
G02*
X11720200Y-9245600I-40000J0D01*
G01*
X11720200Y-9245600D02*
G75*
G02*
X11800200Y-9245600I40000J0D01*
G01*
X11800200Y-9499600D02*
G75*
G02*
X11720200Y-9499600I-40000J0D01*
G01*
X11720200Y-9499600D02*
G75*
G02*
X11800200Y-9499600I40000J0D01*
G01*
X11851000Y-5384800D02*
G75*
G02*
X11771000Y-5384800I-40000J0D01*
G01*
X11771000Y-5384800D02*
G75*
G02*
X11851000Y-5384800I40000J0D01*
G01*
X11851000Y-5842000D02*
G75*
G02*
X11771000Y-5842000I-40000J0D01*
G01*
X11771000Y-5842000D02*
G75*
G02*
X11851000Y-5842000I40000J0D01*
G01*
X11948600Y-7010400D02*
G75*
G02*
X11868600Y-7010400I-40000J0D01*
G01*
X11868600Y-7010400D02*
G75*
G02*
X11948600Y-7010400I40000J0D01*
G01*
X11952600Y-6502400D02*
G75*
G02*
X11872600Y-6502400I-40000J0D01*
G01*
X11872600Y-6502400D02*
G75*
G02*
X11952600Y-6502400I40000J0D01*
G01*
X12062600Y-4001200D02*
G75*
G02*
X11982600Y-4001200I-40000J0D01*
G01*
X11982600Y-4001200D02*
G75*
G02*
X12062600Y-4001200I40000J0D01*
G01*
X12142600Y-3826200D02*
G75*
G02*
X12062600Y-3826200I-40000J0D01*
G01*
X12062600Y-3826200D02*
G75*
G02*
X12142600Y-3826200I40000J0D01*
G01*
X12222600Y-4001200D02*
G75*
G02*
X12142600Y-4001200I-40000J0D01*
G01*
X12142600Y-4001200D02*
G75*
G02*
X12222600Y-4001200I40000J0D01*
G01*
X12302600Y-3826200D02*
G75*
G02*
X12222600Y-3826200I-40000J0D01*
G01*
X12222600Y-3826200D02*
G75*
G02*
X12302600Y-3826200I40000J0D01*
G01*
X12382600Y-4001200D02*
G75*
G02*
X12302600Y-4001200I-40000J0D01*
G01*
X12302600Y-4001200D02*
G75*
G02*
X12382600Y-4001200I40000J0D01*
G01*
X12413800Y-7010400D02*
G75*
G02*
X12333800Y-7010400I-40000J0D01*
G01*
X12333800Y-7010400D02*
G75*
G02*
X12413800Y-7010400I40000J0D01*
G01*
X12440600Y-6502400D02*
G75*
G02*
X12360600Y-6502400I-40000J0D01*
G01*
X12360600Y-6502400D02*
G75*
G02*
X12440600Y-6502400I40000J0D01*
G01*
X12562200Y-7467600D02*
G75*
G02*
X12482200Y-7467600I-40000J0D01*
G01*
X12482200Y-7467600D02*
G75*
G02*
X12562200Y-7467600I40000J0D01*
G01*
X12562200Y-7721600D02*
G75*
G02*
X12482200Y-7721600I-40000J0D01*
G01*
X12482200Y-7721600D02*
G75*
G02*
X12562200Y-7721600I40000J0D01*
G01*
X12562200Y-7975600D02*
G75*
G02*
X12482200Y-7975600I-40000J0D01*
G01*
X12482200Y-7975600D02*
G75*
G02*
X12562200Y-7975600I40000J0D01*
G01*
X12562200Y-8229600D02*
G75*
G02*
X12482200Y-8229600I-40000J0D01*
G01*
X12482200Y-8229600D02*
G75*
G02*
X12562200Y-8229600I40000J0D01*
G01*
X12562200Y-8483600D02*
G75*
G02*
X12482200Y-8483600I-40000J0D01*
G01*
X12482200Y-8483600D02*
G75*
G02*
X12562200Y-8483600I40000J0D01*
G01*
X12562200Y-8737600D02*
G75*
G02*
X12482200Y-8737600I-40000J0D01*
G01*
X12482200Y-8737600D02*
G75*
G02*
X12562200Y-8737600I40000J0D01*
G01*
X12562200Y-8991600D02*
G75*
G02*
X12482200Y-8991600I-40000J0D01*
G01*
X12482200Y-8991600D02*
G75*
G02*
X12562200Y-8991600I40000J0D01*
G01*
X12562200Y-9245600D02*
G75*
G02*
X12482200Y-9245600I-40000J0D01*
G01*
X12482200Y-9245600D02*
G75*
G02*
X12562200Y-9245600I40000J0D01*
G01*
X12562200Y-9499600D02*
G75*
G02*
X12482200Y-9499600I-40000J0D01*
G01*
X12482200Y-9499600D02*
G75*
G02*
X12562200Y-9499600I40000J0D01*
G01*
X12613000Y-5384800D02*
G75*
G02*
X12533000Y-5384800I-40000J0D01*
G01*
X12533000Y-5384800D02*
G75*
G02*
X12613000Y-5384800I40000J0D01*
G01*
X12613000Y-5842000D02*
G75*
G02*
X12533000Y-5842000I-40000J0D01*
G01*
X12533000Y-5842000D02*
G75*
G02*
X12613000Y-5842000I40000J0D01*
G01*
X12663800Y-7010400D02*
G75*
G02*
X12583800Y-7010400I-40000J0D01*
G01*
X12583800Y-7010400D02*
G75*
G02*
X12663800Y-7010400I40000J0D01*
G01*
X12917800Y-8538400D02*
G75*
G02*
X12837800Y-8538400I-40000J0D01*
G01*
X12837800Y-8538400D02*
G75*
G02*
X12917800Y-8538400I40000J0D01*
G01*
X12917800Y-8788400D02*
G75*
G02*
X12837800Y-8788400I-40000J0D01*
G01*
X12837800Y-8788400D02*
G75*
G02*
X12917800Y-8788400I40000J0D01*
G01*
X11822600Y-3506200D02*
X11822600Y-3596200D01*
X11777600Y-3551200D02*
X11867600Y-3551200D01*
X11777600Y-3466200D02*
X11777600Y-3636200D01*
X11867600Y-3636200D02*
G75*
G02*
X11777600Y-3636200I-45000J0D01*
G01*
X11867600Y-3636200D02*
X11867600Y-3466200D01*
X11867600Y-3466200D02*
G75*
G03*
X11777600Y-3466200I-45000J0D01*
G01*
X11822600Y-3856200D02*
X11822600Y-3946200D01*
X11777600Y-3901200D02*
X11867600Y-3901200D01*
X11777600Y-3816200D02*
X11777600Y-3986200D01*
X11867600Y-3986200D02*
G75*
G02*
X11777600Y-3986200I-45000J0D01*
G01*
X11867600Y-3986200D02*
X11867600Y-3816200D01*
X11867600Y-3816200D02*
G75*
G03*
X11777600Y-3816200I-45000J0D01*
G01*
X12356600Y-4603200D02*
X12356600Y-4693200D01*
X12311600Y-4648200D02*
X12401600Y-4648200D01*
X12547600Y-3506200D02*
X12547600Y-3596200D01*
X12502600Y-3551200D02*
X12592600Y-3551200D01*
X12502600Y-3466200D02*
X12502600Y-3636200D01*
X12592600Y-3636200D02*
G75*
G02*
X12502600Y-3636200I-45000J0D01*
G01*
X12592600Y-3636200D02*
X12592600Y-3466200D01*
X12592600Y-3466200D02*
G75*
G03*
X12502600Y-3466200I-45000J0D01*
G01*
X12547600Y-3856200D02*
X12547600Y-3946200D01*
X12502600Y-3901200D02*
X12592600Y-3901200D01*
X12502600Y-3816200D02*
X12502600Y-3986200D01*
X12592600Y-3986200D02*
G75*
G02*
X12502600Y-3986200I-45000J0D01*
G01*
X12592600Y-3986200D02*
X12592600Y-3816200D01*
X12592600Y-3816200D02*
G75*
G03*
X12502600Y-3816200I-45000J0D01*
G01*
X12610600Y-4603200D02*
X12610600Y-4693200D01*
X12565600Y-4648200D02*
X12655600Y-4648200D01*
X6842556Y-5572556D02*
X6842556Y-5501844D01*
X6771844Y-5501844D01*
X6771844Y-5572556D01*
X6842556Y-5572556D01*
X6842556Y-5826556D02*
X6842556Y-5755844D01*
X6771844Y-5755844D01*
X6771844Y-5826556D01*
X6842556Y-5826556D01*
X6842556Y-6080556D02*
X6842556Y-6009844D01*
X6771844Y-6009844D01*
X6771844Y-6080556D01*
X6842556Y-6080556D01*
X6842556Y-6334556D02*
X6842556Y-6263844D01*
X6771844Y-6263844D01*
X6771844Y-6334556D01*
X6842556Y-6334556D01*
X6842556Y-6588556D02*
X6842556Y-6517844D01*
X6771844Y-6517844D01*
X6771844Y-6588556D01*
X6842556Y-6588556D01*
X6842556Y-6842556D02*
X6842556Y-6771844D01*
X6771844Y-6771844D01*
X6771844Y-6842556D01*
X6842556Y-6842556D01*
X6842556Y-7096556D02*
X6842556Y-7025844D01*
X6771844Y-7025844D01*
X6771844Y-7096556D01*
X6842556Y-7096556D01*
X6842556Y-7350556D02*
X6842556Y-7279844D01*
X6771844Y-7279844D01*
X6771844Y-7350556D01*
X6842556Y-7350556D01*
X6842556Y-8010956D02*
X6842556Y-7940244D01*
X6771844Y-7940244D01*
X6771844Y-8010956D01*
X6842556Y-8010956D01*
X6842556Y-8264956D02*
X6842556Y-8194244D01*
X6771844Y-8194244D01*
X6771844Y-8264956D01*
X6842556Y-8264956D01*
X6842556Y-8518956D02*
X6842556Y-8448244D01*
X6771844Y-8448244D01*
X6771844Y-8518956D01*
X6842556Y-8518956D01*
X6842556Y-8772956D02*
X6842556Y-8702244D01*
X6771844Y-8702244D01*
X6771844Y-8772956D01*
X6842556Y-8772956D01*
X6842556Y-9026956D02*
X6842556Y-8956244D01*
X6771844Y-8956244D01*
X6771844Y-9026956D01*
X6842556Y-9026956D01*
X6842556Y-9280956D02*
X6842556Y-9210244D01*
X6771844Y-9210244D01*
X6771844Y-9280956D01*
X6842556Y-9280956D01*
X6842556Y-9534956D02*
X6842556Y-9464244D01*
X6771844Y-9464244D01*
X6771844Y-9534956D01*
X6842556Y-9534956D01*
X6842556Y-9788956D02*
X6842556Y-9718244D01*
X6771844Y-9718244D01*
X6771844Y-9788956D01*
X6842556Y-9788956D01*
X6842556Y-10042956D02*
X6842556Y-9972244D01*
X6771844Y-9972244D01*
X6771844Y-10042956D01*
X6842556Y-10042956D01*
X6842556Y-10296956D02*
X6842556Y-10226244D01*
X6771844Y-10226244D01*
X6771844Y-10296956D01*
X6842556Y-10296956D01*
X7390356Y-3945356D02*
X7390356Y-3874644D01*
X7319644Y-3874644D01*
X7319644Y-3945356D01*
X7390356Y-3945356D01*
X7401356Y-6258356D02*
X7401356Y-6187644D01*
X7330644Y-6187644D01*
X7330644Y-6258356D01*
X7401356Y-6258356D01*
X7401356Y-6512356D02*
X7401356Y-6441644D01*
X7330644Y-6441644D01*
X7330644Y-6512356D01*
X7401356Y-6512356D01*
X7644356Y-3945356D02*
X7644356Y-3874644D01*
X7573644Y-3874644D01*
X7573644Y-3945356D01*
X7644356Y-3945356D01*
X7898356Y-3945356D02*
X7898356Y-3874644D01*
X7827644Y-3874644D01*
X7827644Y-3945356D01*
X7898356Y-3945356D01*
X8152356Y-3945356D02*
X8152356Y-3874644D01*
X8081644Y-3874644D01*
X8081644Y-3945356D01*
X8152356Y-3945356D01*
X8406356Y-3945356D02*
X8406356Y-3874644D01*
X8335644Y-3874644D01*
X8335644Y-3945356D01*
X8406356Y-3945356D01*
X8660356Y-3945356D02*
X8660356Y-3874644D01*
X8589644Y-3874644D01*
X8589644Y-3945356D01*
X8660356Y-3945356D01*
X8823756Y-10957356D02*
X8823756Y-10886644D01*
X8753044Y-10886644D01*
X8753044Y-10957356D01*
X8823756Y-10957356D01*
X9077756Y-10957356D02*
X9077756Y-10886644D01*
X9007044Y-10886644D01*
X9007044Y-10957356D01*
X9077756Y-10957356D01*
X9331756Y-10957356D02*
X9331756Y-10886644D01*
X9261044Y-10886644D01*
X9261044Y-10957356D01*
X9331756Y-10957356D01*
X9585756Y-10957356D02*
X9585756Y-10886644D01*
X9515044Y-10886644D01*
X9515044Y-10957356D01*
X9585756Y-10957356D01*
X9839756Y-10957356D02*
X9839756Y-10886644D01*
X9769044Y-10886644D01*
X9769044Y-10957356D01*
X9839756Y-10957356D01*
X10093756Y-10957356D02*
X10093756Y-10886644D01*
X10023044Y-10886644D01*
X10023044Y-10957356D01*
X10093756Y-10957356D01*
X10347756Y-10957356D02*
X10347756Y-10886644D01*
X10277044Y-10886644D01*
X10277044Y-10957356D01*
X10347756Y-10957356D01*
X10601756Y-10957356D02*
X10601756Y-10886644D01*
X10531044Y-10886644D01*
X10531044Y-10957356D01*
X10601756Y-10957356D01*
X10855756Y-10957356D02*
X10855756Y-10886644D01*
X10785044Y-10886644D01*
X10785044Y-10957356D01*
X10855756Y-10957356D01*
X10881156Y-3946956D02*
X10881156Y-3876244D01*
X10810444Y-3876244D01*
X10810444Y-3946956D01*
X10881156Y-3946956D01*
X11109756Y-10957356D02*
X11109756Y-10886644D01*
X11039044Y-10886644D01*
X11039044Y-10957356D01*
X11109756Y-10957356D01*
X11135156Y-3946956D02*
X11135156Y-3876244D01*
X11064444Y-3876244D01*
X11064444Y-3946956D01*
X11135156Y-3946956D01*
D12*
X9425000Y-4155000D02*
X9480000Y-4100000D01*
X9425000Y-4045000D01*
X9370000Y-4100000D01*
X9425000Y-4155000D01*
X9975000Y-4155000D02*
X10030000Y-4100000D01*
X9975000Y-4045000D01*
X9920000Y-4100000D01*
X9975000Y-4155000D01*
D13*
X6479000Y-3481800D02*
X6729000Y-3731800D01*
X6729000Y-3481800D02*
X6479000Y-3731800D01*
X6729000Y-3606800D02*
G75*
G02*
X6479000Y-3606800I-125000J0D01*
G01*
X6479000Y-3606800D02*
G75*
G02*
X6729000Y-3606800I125000J0D01*
G01*
X6529800Y-10822400D02*
X6779800Y-11072400D01*
X6779800Y-10822400D02*
X6529800Y-11072400D01*
X6779800Y-10947400D02*
G75*
G02*
X6529800Y-10947400I-125000J0D01*
G01*
X6529800Y-10947400D02*
G75*
G02*
X6779800Y-10947400I125000J0D01*
G01*
X12930600Y-3507200D02*
X13180600Y-3757200D01*
X13180600Y-3507200D02*
X12930600Y-3757200D01*
X13180600Y-3632200D02*
G75*
G02*
X12930600Y-3632200I-125000J0D01*
G01*
X12930600Y-3632200D02*
G75*
G02*
X13180600Y-3632200I125000J0D01*
G01*
X12930600Y-10797000D02*
X13180600Y-11047000D01*
X13180600Y-10797000D02*
X12930600Y-11047000D01*
X13180600Y-10922000D02*
G75*
G02*
X12930600Y-10922000I-125000J0D01*
G01*
X12930600Y-10922000D02*
G75*
G02*
X13180600Y-10922000I125000J0D01*
G01*
D11*
X6554977Y-11746484D02*
X6554977Y-11546484D01*
X6554977Y-11546484D02*
X6602596Y-11546484D01*
X6602596Y-11546484D02*
X6631167Y-11556008D01*
X6631167Y-11556008D02*
X6650215Y-11575055D01*
X6650215Y-11575055D02*
X6659739Y-11594103D01*
X6659739Y-11594103D02*
X6669262Y-11632198D01*
X6669262Y-11632198D02*
X6669262Y-11660769D01*
X6669262Y-11660769D02*
X6659739Y-11698865D01*
X6659739Y-11698865D02*
X6650215Y-11717912D01*
X6650215Y-11717912D02*
X6631167Y-11736960D01*
X6631167Y-11736960D02*
X6602596Y-11746484D01*
X6602596Y-11746484D02*
X6554977Y-11746484D01*
X6754977Y-11746484D02*
X6754977Y-11613150D01*
X6754977Y-11651246D02*
X6764501Y-11632198D01*
X6764501Y-11632198D02*
X6774024Y-11622674D01*
X6774024Y-11622674D02*
X6793072Y-11613150D01*
X6793072Y-11613150D02*
X6812120Y-11613150D01*
X6878786Y-11746484D02*
X6878786Y-11613150D01*
X6878786Y-11546484D02*
X6869262Y-11556008D01*
X6869262Y-11556008D02*
X6878786Y-11565531D01*
X6878786Y-11565531D02*
X6888310Y-11556008D01*
X6888310Y-11556008D02*
X6878786Y-11546484D01*
X6878786Y-11546484D02*
X6878786Y-11565531D01*
X7002596Y-11746484D02*
X6983548Y-11736960D01*
X6983548Y-11736960D02*
X6974024Y-11717912D01*
X6974024Y-11717912D02*
X6974024Y-11546484D01*
X7107358Y-11746484D02*
X7088310Y-11736960D01*
X7088310Y-11736960D02*
X7078786Y-11717912D01*
X7078786Y-11717912D02*
X7078786Y-11546484D01*
X7335929Y-11746484D02*
X7335929Y-11546484D01*
X7335929Y-11546484D02*
X7402596Y-11689341D01*
X7402596Y-11689341D02*
X7469262Y-11546484D01*
X7469262Y-11546484D02*
X7469262Y-11746484D01*
X7650215Y-11746484D02*
X7650215Y-11641722D01*
X7650215Y-11641722D02*
X7640691Y-11622674D01*
X7640691Y-11622674D02*
X7621643Y-11613150D01*
X7621643Y-11613150D02*
X7583548Y-11613150D01*
X7583548Y-11613150D02*
X7564501Y-11622674D01*
X7650215Y-11736960D02*
X7631167Y-11746484D01*
X7631167Y-11746484D02*
X7583548Y-11746484D01*
X7583548Y-11746484D02*
X7564501Y-11736960D01*
X7564501Y-11736960D02*
X7554977Y-11717912D01*
X7554977Y-11717912D02*
X7554977Y-11698865D01*
X7554977Y-11698865D02*
X7564501Y-11679817D01*
X7564501Y-11679817D02*
X7583548Y-11670293D01*
X7583548Y-11670293D02*
X7631167Y-11670293D01*
X7631167Y-11670293D02*
X7650215Y-11660769D01*
X7745453Y-11613150D02*
X7745453Y-11813150D01*
X7745453Y-11622674D02*
X7764501Y-11613150D01*
X7764501Y-11613150D02*
X7802596Y-11613150D01*
X7802596Y-11613150D02*
X7821643Y-11622674D01*
X7821643Y-11622674D02*
X7831167Y-11632198D01*
X7831167Y-11632198D02*
X7840691Y-11651246D01*
X7840691Y-11651246D02*
X7840691Y-11708388D01*
X7840691Y-11708388D02*
X7831167Y-11727436D01*
X7831167Y-11727436D02*
X7821643Y-11736960D01*
X7821643Y-11736960D02*
X7802596Y-11746484D01*
X7802596Y-11746484D02*
X7764501Y-11746484D01*
X7764501Y-11746484D02*
X7745453Y-11736960D01*
X7926405Y-11727436D02*
X7935929Y-11736960D01*
X7935929Y-11736960D02*
X7926405Y-11746484D01*
X7926405Y-11746484D02*
X7916882Y-11736960D01*
X7916882Y-11736960D02*
X7926405Y-11727436D01*
X7926405Y-11727436D02*
X7926405Y-11746484D01*
X7926405Y-11622674D02*
X7935929Y-11632198D01*
X7935929Y-11632198D02*
X7926405Y-11641722D01*
X7926405Y-11641722D02*
X7916882Y-11632198D01*
X7916882Y-11632198D02*
X7926405Y-11622674D01*
X7926405Y-11622674D02*
X7926405Y-11641722D01*
D10*
X6254200Y-12055000D02*
X6294200Y-12095000D01*
X6294200Y-12055000D02*
X6254200Y-12095000D01*
D11*
X6593072Y-11966484D02*
X6612120Y-11966484D01*
X6612120Y-11966484D02*
X6631167Y-11976008D01*
X6631167Y-11976008D02*
X6640691Y-11985531D01*
X6640691Y-11985531D02*
X6650215Y-12004579D01*
X6650215Y-12004579D02*
X6659739Y-12042674D01*
X6659739Y-12042674D02*
X6659739Y-12090293D01*
X6659739Y-12090293D02*
X6650215Y-12128388D01*
X6650215Y-12128388D02*
X6640691Y-12147436D01*
X6640691Y-12147436D02*
X6631167Y-12156960D01*
X6631167Y-12156960D02*
X6612120Y-12166484D01*
X6612120Y-12166484D02*
X6593072Y-12166484D01*
X6593072Y-12166484D02*
X6574024Y-12156960D01*
X6574024Y-12156960D02*
X6564501Y-12147436D01*
X6564501Y-12147436D02*
X6554977Y-12128388D01*
X6554977Y-12128388D02*
X6545453Y-12090293D01*
X6545453Y-12090293D02*
X6545453Y-12042674D01*
X6545453Y-12042674D02*
X6554977Y-12004579D01*
X6554977Y-12004579D02*
X6564501Y-11985531D01*
X6564501Y-11985531D02*
X6574024Y-11976008D01*
X6574024Y-11976008D02*
X6593072Y-11966484D01*
X6745453Y-12147436D02*
X6754977Y-12156960D01*
X6754977Y-12156960D02*
X6745453Y-12166484D01*
X6745453Y-12166484D02*
X6735929Y-12156960D01*
X6735929Y-12156960D02*
X6745453Y-12147436D01*
X6745453Y-12147436D02*
X6745453Y-12166484D01*
X6926405Y-12033150D02*
X6926405Y-12166484D01*
X6878786Y-11956960D02*
X6831167Y-12099817D01*
X6831167Y-12099817D02*
X6954977Y-12099817D01*
X7069262Y-11966484D02*
X7088310Y-11966484D01*
X7088310Y-11966484D02*
X7107358Y-11976008D01*
X7107358Y-11976008D02*
X7116882Y-11985531D01*
X7116882Y-11985531D02*
X7126405Y-12004579D01*
X7126405Y-12004579D02*
X7135929Y-12042674D01*
X7135929Y-12042674D02*
X7135929Y-12090293D01*
X7135929Y-12090293D02*
X7126405Y-12128388D01*
X7126405Y-12128388D02*
X7116882Y-12147436D01*
X7116882Y-12147436D02*
X7107358Y-12156960D01*
X7107358Y-12156960D02*
X7088310Y-12166484D01*
X7088310Y-12166484D02*
X7069262Y-12166484D01*
X7069262Y-12166484D02*
X7050215Y-12156960D01*
X7050215Y-12156960D02*
X7040691Y-12147436D01*
X7040691Y-12147436D02*
X7031167Y-12128388D01*
X7031167Y-12128388D02*
X7021643Y-12090293D01*
X7021643Y-12090293D02*
X7021643Y-12042674D01*
X7021643Y-12042674D02*
X7031167Y-12004579D01*
X7031167Y-12004579D02*
X7040691Y-11985531D01*
X7040691Y-11985531D02*
X7050215Y-11976008D01*
X7050215Y-11976008D02*
X7069262Y-11966484D01*
X7259739Y-11966484D02*
X7278786Y-11966484D01*
X7278786Y-11966484D02*
X7297834Y-11976008D01*
X7297834Y-11976008D02*
X7307358Y-11985531D01*
X7307358Y-11985531D02*
X7316882Y-12004579D01*
X7316882Y-12004579D02*
X7326405Y-12042674D01*
X7326405Y-12042674D02*
X7326405Y-12090293D01*
X7326405Y-12090293D02*
X7316882Y-12128388D01*
X7316882Y-12128388D02*
X7307358Y-12147436D01*
X7307358Y-12147436D02*
X7297834Y-12156960D01*
X7297834Y-12156960D02*
X7278786Y-12166484D01*
X7278786Y-12166484D02*
X7259739Y-12166484D01*
X7259739Y-12166484D02*
X7240691Y-12156960D01*
X7240691Y-12156960D02*
X7231167Y-12147436D01*
X7231167Y-12147436D02*
X7221643Y-12128388D01*
X7221643Y-12128388D02*
X7212120Y-12090293D01*
X7212120Y-12090293D02*
X7212120Y-12042674D01*
X7212120Y-12042674D02*
X7221643Y-12004579D01*
X7221643Y-12004579D02*
X7231167Y-11985531D01*
X7231167Y-11985531D02*
X7240691Y-11976008D01*
X7240691Y-11976008D02*
X7259739Y-11966484D01*
X7412120Y-12166484D02*
X7412120Y-12033150D01*
X7412120Y-12052198D02*
X7421643Y-12042674D01*
X7421643Y-12042674D02*
X7440691Y-12033150D01*
X7440691Y-12033150D02*
X7469263Y-12033150D01*
X7469263Y-12033150D02*
X7488310Y-12042674D01*
X7488310Y-12042674D02*
X7497834Y-12061722D01*
X7497834Y-12061722D02*
X7497834Y-12166484D01*
X7497834Y-12061722D02*
X7507358Y-12042674D01*
X7507358Y-12042674D02*
X7526405Y-12033150D01*
X7526405Y-12033150D02*
X7554977Y-12033150D01*
X7554977Y-12033150D02*
X7574024Y-12042674D01*
X7574024Y-12042674D02*
X7583548Y-12061722D01*
X7583548Y-12061722D02*
X7583548Y-12166484D01*
X7678786Y-12166484D02*
X7678786Y-12033150D01*
X7678786Y-12052198D02*
X7688310Y-12042674D01*
X7688310Y-12042674D02*
X7707358Y-12033150D01*
X7707358Y-12033150D02*
X7735929Y-12033150D01*
X7735929Y-12033150D02*
X7754977Y-12042674D01*
X7754977Y-12042674D02*
X7764501Y-12061722D01*
X7764501Y-12061722D02*
X7764501Y-12166484D01*
X7764501Y-12061722D02*
X7774024Y-12042674D01*
X7774024Y-12042674D02*
X7793072Y-12033150D01*
X7793072Y-12033150D02*
X7821643Y-12033150D01*
X7821643Y-12033150D02*
X7840691Y-12042674D01*
X7840691Y-12042674D02*
X7850215Y-12061722D01*
X7850215Y-12061722D02*
X7850215Y-12166484D01*
X8240691Y-11956960D02*
X8069263Y-12214103D01*
X8497834Y-11966484D02*
X8516882Y-11966484D01*
X8516882Y-11966484D02*
X8535929Y-11976008D01*
X8535929Y-11976008D02*
X8545453Y-11985531D01*
X8545453Y-11985531D02*
X8554977Y-12004579D01*
X8554977Y-12004579D02*
X8564501Y-12042674D01*
X8564501Y-12042674D02*
X8564501Y-12090293D01*
X8564501Y-12090293D02*
X8554977Y-12128388D01*
X8554977Y-12128388D02*
X8545453Y-12147436D01*
X8545453Y-12147436D02*
X8535929Y-12156960D01*
X8535929Y-12156960D02*
X8516882Y-12166484D01*
X8516882Y-12166484D02*
X8497834Y-12166484D01*
X8497834Y-12166484D02*
X8478787Y-12156960D01*
X8478787Y-12156960D02*
X8469263Y-12147436D01*
X8469263Y-12147436D02*
X8459739Y-12128388D01*
X8459739Y-12128388D02*
X8450215Y-12090293D01*
X8450215Y-12090293D02*
X8450215Y-12042674D01*
X8450215Y-12042674D02*
X8459739Y-12004579D01*
X8459739Y-12004579D02*
X8469263Y-11985531D01*
X8469263Y-11985531D02*
X8478787Y-11976008D01*
X8478787Y-11976008D02*
X8497834Y-11966484D01*
X8650215Y-12147436D02*
X8659739Y-12156960D01*
X8659739Y-12156960D02*
X8650215Y-12166484D01*
X8650215Y-12166484D02*
X8640691Y-12156960D01*
X8640691Y-12156960D02*
X8650215Y-12147436D01*
X8650215Y-12147436D02*
X8650215Y-12166484D01*
X8783548Y-11966484D02*
X8802596Y-11966484D01*
X8802596Y-11966484D02*
X8821644Y-11976008D01*
X8821644Y-11976008D02*
X8831168Y-11985531D01*
X8831168Y-11985531D02*
X8840691Y-12004579D01*
X8840691Y-12004579D02*
X8850215Y-12042674D01*
X8850215Y-12042674D02*
X8850215Y-12090293D01*
X8850215Y-12090293D02*
X8840691Y-12128388D01*
X8840691Y-12128388D02*
X8831168Y-12147436D01*
X8831168Y-12147436D02*
X8821644Y-12156960D01*
X8821644Y-12156960D02*
X8802596Y-12166484D01*
X8802596Y-12166484D02*
X8783548Y-12166484D01*
X8783548Y-12166484D02*
X8764501Y-12156960D01*
X8764501Y-12156960D02*
X8754977Y-12147436D01*
X8754977Y-12147436D02*
X8745453Y-12128388D01*
X8745453Y-12128388D02*
X8735929Y-12090293D01*
X8735929Y-12090293D02*
X8735929Y-12042674D01*
X8735929Y-12042674D02*
X8745453Y-12004579D01*
X8745453Y-12004579D02*
X8754977Y-11985531D01*
X8754977Y-11985531D02*
X8764501Y-11976008D01*
X8764501Y-11976008D02*
X8783548Y-11966484D01*
X9040691Y-12166484D02*
X8926406Y-12166484D01*
X8983548Y-12166484D02*
X8983548Y-11966484D01*
X8983548Y-11966484D02*
X8964501Y-11995055D01*
X8964501Y-11995055D02*
X8945453Y-12014103D01*
X8945453Y-12014103D02*
X8926406Y-12023627D01*
X9221644Y-11966484D02*
X9126406Y-11966484D01*
X9126406Y-11966484D02*
X9116882Y-12061722D01*
X9116882Y-12061722D02*
X9126406Y-12052198D01*
X9126406Y-12052198D02*
X9145453Y-12042674D01*
X9145453Y-12042674D02*
X9193072Y-12042674D01*
X9193072Y-12042674D02*
X9212120Y-12052198D01*
X9212120Y-12052198D02*
X9221644Y-12061722D01*
X9221644Y-12061722D02*
X9231168Y-12080769D01*
X9231168Y-12080769D02*
X9231168Y-12128388D01*
X9231168Y-12128388D02*
X9221644Y-12147436D01*
X9221644Y-12147436D02*
X9212120Y-12156960D01*
X9212120Y-12156960D02*
X9193072Y-12166484D01*
X9193072Y-12166484D02*
X9145453Y-12166484D01*
X9145453Y-12166484D02*
X9126406Y-12156960D01*
X9126406Y-12156960D02*
X9116882Y-12147436D01*
X9297834Y-11966484D02*
X9431168Y-11966484D01*
X9431168Y-11966484D02*
X9345453Y-12166484D01*
X9497834Y-11966484D02*
X9497834Y-12004579D01*
X9574025Y-11966484D02*
X9574025Y-12004579D01*
X9869263Y-12242674D02*
X9859739Y-12233150D01*
X9859739Y-12233150D02*
X9840691Y-12204579D01*
X9840691Y-12204579D02*
X9831168Y-12185531D01*
X9831168Y-12185531D02*
X9821644Y-12156960D01*
X9821644Y-12156960D02*
X9812120Y-12109341D01*
X9812120Y-12109341D02*
X9812120Y-12071246D01*
X9812120Y-12071246D02*
X9821644Y-12023627D01*
X9821644Y-12023627D02*
X9831168Y-11995055D01*
X9831168Y-11995055D02*
X9840691Y-11976008D01*
X9840691Y-11976008D02*
X9859739Y-11947436D01*
X9859739Y-11947436D02*
X9869263Y-11937912D01*
X9935930Y-11985531D02*
X9945453Y-11976008D01*
X9945453Y-11976008D02*
X9964501Y-11966484D01*
X9964501Y-11966484D02*
X10012120Y-11966484D01*
X10012120Y-11966484D02*
X10031168Y-11976008D01*
X10031168Y-11976008D02*
X10040691Y-11985531D01*
X10040691Y-11985531D02*
X10050215Y-12004579D01*
X10050215Y-12004579D02*
X10050215Y-12023627D01*
X10050215Y-12023627D02*
X10040691Y-12052198D01*
X10040691Y-12052198D02*
X9926406Y-12166484D01*
X9926406Y-12166484D02*
X10050215Y-12166484D01*
X10145453Y-12166484D02*
X10183549Y-12166484D01*
X10183549Y-12166484D02*
X10202596Y-12156960D01*
X10202596Y-12156960D02*
X10212120Y-12147436D01*
X10212120Y-12147436D02*
X10231168Y-12118865D01*
X10231168Y-12118865D02*
X10240691Y-12080769D01*
X10240691Y-12080769D02*
X10240691Y-12004579D01*
X10240691Y-12004579D02*
X10231168Y-11985531D01*
X10231168Y-11985531D02*
X10221644Y-11976008D01*
X10221644Y-11976008D02*
X10202596Y-11966484D01*
X10202596Y-11966484D02*
X10164501Y-11966484D01*
X10164501Y-11966484D02*
X10145453Y-11976008D01*
X10145453Y-11976008D02*
X10135930Y-11985531D01*
X10135930Y-11985531D02*
X10126406Y-12004579D01*
X10126406Y-12004579D02*
X10126406Y-12052198D01*
X10126406Y-12052198D02*
X10135930Y-12071246D01*
X10135930Y-12071246D02*
X10145453Y-12080769D01*
X10145453Y-12080769D02*
X10164501Y-12090293D01*
X10164501Y-12090293D02*
X10202596Y-12090293D01*
X10202596Y-12090293D02*
X10221644Y-12080769D01*
X10221644Y-12080769D02*
X10231168Y-12071246D01*
X10231168Y-12071246D02*
X10240691Y-12052198D01*
X10478787Y-12166484D02*
X10478787Y-11966484D01*
X10564501Y-12166484D02*
X10564501Y-12061722D01*
X10564501Y-12061722D02*
X10554977Y-12042674D01*
X10554977Y-12042674D02*
X10535930Y-12033150D01*
X10535930Y-12033150D02*
X10507358Y-12033150D01*
X10507358Y-12033150D02*
X10488311Y-12042674D01*
X10488311Y-12042674D02*
X10478787Y-12052198D01*
X10688311Y-12166484D02*
X10669263Y-12156960D01*
X10669263Y-12156960D02*
X10659739Y-12147436D01*
X10659739Y-12147436D02*
X10650215Y-12128388D01*
X10650215Y-12128388D02*
X10650215Y-12071246D01*
X10650215Y-12071246D02*
X10659739Y-12052198D01*
X10659739Y-12052198D02*
X10669263Y-12042674D01*
X10669263Y-12042674D02*
X10688311Y-12033150D01*
X10688311Y-12033150D02*
X10716882Y-12033150D01*
X10716882Y-12033150D02*
X10735930Y-12042674D01*
X10735930Y-12042674D02*
X10745453Y-12052198D01*
X10745453Y-12052198D02*
X10754977Y-12071246D01*
X10754977Y-12071246D02*
X10754977Y-12128388D01*
X10754977Y-12128388D02*
X10745453Y-12147436D01*
X10745453Y-12147436D02*
X10735930Y-12156960D01*
X10735930Y-12156960D02*
X10716882Y-12166484D01*
X10716882Y-12166484D02*
X10688311Y-12166484D01*
X10869263Y-12166484D02*
X10850215Y-12156960D01*
X10850215Y-12156960D02*
X10840692Y-12137912D01*
X10840692Y-12137912D02*
X10840692Y-11966484D01*
X11021644Y-12156960D02*
X11002596Y-12166484D01*
X11002596Y-12166484D02*
X10964501Y-12166484D01*
X10964501Y-12166484D02*
X10945453Y-12156960D01*
X10945453Y-12156960D02*
X10935930Y-12137912D01*
X10935930Y-12137912D02*
X10935930Y-12061722D01*
X10935930Y-12061722D02*
X10945453Y-12042674D01*
X10945453Y-12042674D02*
X10964501Y-12033150D01*
X10964501Y-12033150D02*
X11002596Y-12033150D01*
X11002596Y-12033150D02*
X11021644Y-12042674D01*
X11021644Y-12042674D02*
X11031168Y-12061722D01*
X11031168Y-12061722D02*
X11031168Y-12080769D01*
X11031168Y-12080769D02*
X10935930Y-12099817D01*
X11107358Y-12156960D02*
X11126406Y-12166484D01*
X11126406Y-12166484D02*
X11164501Y-12166484D01*
X11164501Y-12166484D02*
X11183549Y-12156960D01*
X11183549Y-12156960D02*
X11193072Y-12137912D01*
X11193072Y-12137912D02*
X11193072Y-12128388D01*
X11193072Y-12128388D02*
X11183549Y-12109341D01*
X11183549Y-12109341D02*
X11164501Y-12099817D01*
X11164501Y-12099817D02*
X11135930Y-12099817D01*
X11135930Y-12099817D02*
X11116882Y-12090293D01*
X11116882Y-12090293D02*
X11107358Y-12071246D01*
X11107358Y-12071246D02*
X11107358Y-12061722D01*
X11107358Y-12061722D02*
X11116882Y-12042674D01*
X11116882Y-12042674D02*
X11135930Y-12033150D01*
X11135930Y-12033150D02*
X11164501Y-12033150D01*
X11164501Y-12033150D02*
X11183549Y-12042674D01*
X11259739Y-12242674D02*
X11269263Y-12233150D01*
X11269263Y-12233150D02*
X11288311Y-12204579D01*
X11288311Y-12204579D02*
X11297834Y-12185531D01*
X11297834Y-12185531D02*
X11307358Y-12156960D01*
X11307358Y-12156960D02*
X11316882Y-12109341D01*
X11316882Y-12109341D02*
X11316882Y-12071246D01*
X11316882Y-12071246D02*
X11307358Y-12023627D01*
X11307358Y-12023627D02*
X11297834Y-11995055D01*
X11297834Y-11995055D02*
X11288311Y-11976008D01*
X11288311Y-11976008D02*
X11269263Y-11947436D01*
X11269263Y-11947436D02*
X11259739Y-11937912D01*
D10*
X6294200Y-12339000D02*
G75*
G02*
X6214200Y-12339000I-40000J0D01*
G01*
X6214200Y-12339000D02*
G75*
G02*
X6294200Y-12339000I40000J0D01*
G01*
D11*
X6593072Y-12230484D02*
X6612120Y-12230484D01*
X6612120Y-12230484D02*
X6631167Y-12240008D01*
X6631167Y-12240008D02*
X6640691Y-12249531D01*
X6640691Y-12249531D02*
X6650215Y-12268579D01*
X6650215Y-12268579D02*
X6659739Y-12306674D01*
X6659739Y-12306674D02*
X6659739Y-12354293D01*
X6659739Y-12354293D02*
X6650215Y-12392388D01*
X6650215Y-12392388D02*
X6640691Y-12411436D01*
X6640691Y-12411436D02*
X6631167Y-12420960D01*
X6631167Y-12420960D02*
X6612120Y-12430484D01*
X6612120Y-12430484D02*
X6593072Y-12430484D01*
X6593072Y-12430484D02*
X6574024Y-12420960D01*
X6574024Y-12420960D02*
X6564501Y-12411436D01*
X6564501Y-12411436D02*
X6554977Y-12392388D01*
X6554977Y-12392388D02*
X6545453Y-12354293D01*
X6545453Y-12354293D02*
X6545453Y-12306674D01*
X6545453Y-12306674D02*
X6554977Y-12268579D01*
X6554977Y-12268579D02*
X6564501Y-12249531D01*
X6564501Y-12249531D02*
X6574024Y-12240008D01*
X6574024Y-12240008D02*
X6593072Y-12230484D01*
X6745453Y-12411436D02*
X6754977Y-12420960D01*
X6754977Y-12420960D02*
X6745453Y-12430484D01*
X6745453Y-12430484D02*
X6735929Y-12420960D01*
X6735929Y-12420960D02*
X6745453Y-12411436D01*
X6745453Y-12411436D02*
X6745453Y-12430484D01*
X6869262Y-12316198D02*
X6850215Y-12306674D01*
X6850215Y-12306674D02*
X6840691Y-12297150D01*
X6840691Y-12297150D02*
X6831167Y-12278103D01*
X6831167Y-12278103D02*
X6831167Y-12268579D01*
X6831167Y-12268579D02*
X6840691Y-12249531D01*
X6840691Y-12249531D02*
X6850215Y-12240008D01*
X6850215Y-12240008D02*
X6869262Y-12230484D01*
X6869262Y-12230484D02*
X6907358Y-12230484D01*
X6907358Y-12230484D02*
X6926405Y-12240008D01*
X6926405Y-12240008D02*
X6935929Y-12249531D01*
X6935929Y-12249531D02*
X6945453Y-12268579D01*
X6945453Y-12268579D02*
X6945453Y-12278103D01*
X6945453Y-12278103D02*
X6935929Y-12297150D01*
X6935929Y-12297150D02*
X6926405Y-12306674D01*
X6926405Y-12306674D02*
X6907358Y-12316198D01*
X6907358Y-12316198D02*
X6869262Y-12316198D01*
X6869262Y-12316198D02*
X6850215Y-12325722D01*
X6850215Y-12325722D02*
X6840691Y-12335246D01*
X6840691Y-12335246D02*
X6831167Y-12354293D01*
X6831167Y-12354293D02*
X6831167Y-12392388D01*
X6831167Y-12392388D02*
X6840691Y-12411436D01*
X6840691Y-12411436D02*
X6850215Y-12420960D01*
X6850215Y-12420960D02*
X6869262Y-12430484D01*
X6869262Y-12430484D02*
X6907358Y-12430484D01*
X6907358Y-12430484D02*
X6926405Y-12420960D01*
X6926405Y-12420960D02*
X6935929Y-12411436D01*
X6935929Y-12411436D02*
X6945453Y-12392388D01*
X6945453Y-12392388D02*
X6945453Y-12354293D01*
X6945453Y-12354293D02*
X6935929Y-12335246D01*
X6935929Y-12335246D02*
X6926405Y-12325722D01*
X6926405Y-12325722D02*
X6907358Y-12316198D01*
X7069262Y-12230484D02*
X7088310Y-12230484D01*
X7088310Y-12230484D02*
X7107358Y-12240008D01*
X7107358Y-12240008D02*
X7116882Y-12249531D01*
X7116882Y-12249531D02*
X7126405Y-12268579D01*
X7126405Y-12268579D02*
X7135929Y-12306674D01*
X7135929Y-12306674D02*
X7135929Y-12354293D01*
X7135929Y-12354293D02*
X7126405Y-12392388D01*
X7126405Y-12392388D02*
X7116882Y-12411436D01*
X7116882Y-12411436D02*
X7107358Y-12420960D01*
X7107358Y-12420960D02*
X7088310Y-12430484D01*
X7088310Y-12430484D02*
X7069262Y-12430484D01*
X7069262Y-12430484D02*
X7050215Y-12420960D01*
X7050215Y-12420960D02*
X7040691Y-12411436D01*
X7040691Y-12411436D02*
X7031167Y-12392388D01*
X7031167Y-12392388D02*
X7021643Y-12354293D01*
X7021643Y-12354293D02*
X7021643Y-12306674D01*
X7021643Y-12306674D02*
X7031167Y-12268579D01*
X7031167Y-12268579D02*
X7040691Y-12249531D01*
X7040691Y-12249531D02*
X7050215Y-12240008D01*
X7050215Y-12240008D02*
X7069262Y-12230484D01*
X7259739Y-12230484D02*
X7278786Y-12230484D01*
X7278786Y-12230484D02*
X7297834Y-12240008D01*
X7297834Y-12240008D02*
X7307358Y-12249531D01*
X7307358Y-12249531D02*
X7316882Y-12268579D01*
X7316882Y-12268579D02*
X7326405Y-12306674D01*
X7326405Y-12306674D02*
X7326405Y-12354293D01*
X7326405Y-12354293D02*
X7316882Y-12392388D01*
X7316882Y-12392388D02*
X7307358Y-12411436D01*
X7307358Y-12411436D02*
X7297834Y-12420960D01*
X7297834Y-12420960D02*
X7278786Y-12430484D01*
X7278786Y-12430484D02*
X7259739Y-12430484D01*
X7259739Y-12430484D02*
X7240691Y-12420960D01*
X7240691Y-12420960D02*
X7231167Y-12411436D01*
X7231167Y-12411436D02*
X7221643Y-12392388D01*
X7221643Y-12392388D02*
X7212120Y-12354293D01*
X7212120Y-12354293D02*
X7212120Y-12306674D01*
X7212120Y-12306674D02*
X7221643Y-12268579D01*
X7221643Y-12268579D02*
X7231167Y-12249531D01*
X7231167Y-12249531D02*
X7240691Y-12240008D01*
X7240691Y-12240008D02*
X7259739Y-12230484D01*
X7412120Y-12430484D02*
X7412120Y-12297150D01*
X7412120Y-12316198D02*
X7421643Y-12306674D01*
X7421643Y-12306674D02*
X7440691Y-12297150D01*
X7440691Y-12297150D02*
X7469263Y-12297150D01*
X7469263Y-12297150D02*
X7488310Y-12306674D01*
X7488310Y-12306674D02*
X7497834Y-12325722D01*
X7497834Y-12325722D02*
X7497834Y-12430484D01*
X7497834Y-12325722D02*
X7507358Y-12306674D01*
X7507358Y-12306674D02*
X7526405Y-12297150D01*
X7526405Y-12297150D02*
X7554977Y-12297150D01*
X7554977Y-12297150D02*
X7574024Y-12306674D01*
X7574024Y-12306674D02*
X7583548Y-12325722D01*
X7583548Y-12325722D02*
X7583548Y-12430484D01*
X7678786Y-12430484D02*
X7678786Y-12297150D01*
X7678786Y-12316198D02*
X7688310Y-12306674D01*
X7688310Y-12306674D02*
X7707358Y-12297150D01*
X7707358Y-12297150D02*
X7735929Y-12297150D01*
X7735929Y-12297150D02*
X7754977Y-12306674D01*
X7754977Y-12306674D02*
X7764501Y-12325722D01*
X7764501Y-12325722D02*
X7764501Y-12430484D01*
X7764501Y-12325722D02*
X7774024Y-12306674D01*
X7774024Y-12306674D02*
X7793072Y-12297150D01*
X7793072Y-12297150D02*
X7821643Y-12297150D01*
X7821643Y-12297150D02*
X7840691Y-12306674D01*
X7840691Y-12306674D02*
X7850215Y-12325722D01*
X7850215Y-12325722D02*
X7850215Y-12430484D01*
X8240691Y-12220960D02*
X8069263Y-12478103D01*
X8497834Y-12230484D02*
X8516882Y-12230484D01*
X8516882Y-12230484D02*
X8535929Y-12240008D01*
X8535929Y-12240008D02*
X8545453Y-12249531D01*
X8545453Y-12249531D02*
X8554977Y-12268579D01*
X8554977Y-12268579D02*
X8564501Y-12306674D01*
X8564501Y-12306674D02*
X8564501Y-12354293D01*
X8564501Y-12354293D02*
X8554977Y-12392388D01*
X8554977Y-12392388D02*
X8545453Y-12411436D01*
X8545453Y-12411436D02*
X8535929Y-12420960D01*
X8535929Y-12420960D02*
X8516882Y-12430484D01*
X8516882Y-12430484D02*
X8497834Y-12430484D01*
X8497834Y-12430484D02*
X8478787Y-12420960D01*
X8478787Y-12420960D02*
X8469263Y-12411436D01*
X8469263Y-12411436D02*
X8459739Y-12392388D01*
X8459739Y-12392388D02*
X8450215Y-12354293D01*
X8450215Y-12354293D02*
X8450215Y-12306674D01*
X8450215Y-12306674D02*
X8459739Y-12268579D01*
X8459739Y-12268579D02*
X8469263Y-12249531D01*
X8469263Y-12249531D02*
X8478787Y-12240008D01*
X8478787Y-12240008D02*
X8497834Y-12230484D01*
X8650215Y-12411436D02*
X8659739Y-12420960D01*
X8659739Y-12420960D02*
X8650215Y-12430484D01*
X8650215Y-12430484D02*
X8640691Y-12420960D01*
X8640691Y-12420960D02*
X8650215Y-12411436D01*
X8650215Y-12411436D02*
X8650215Y-12430484D01*
X8783548Y-12230484D02*
X8802596Y-12230484D01*
X8802596Y-12230484D02*
X8821644Y-12240008D01*
X8821644Y-12240008D02*
X8831168Y-12249531D01*
X8831168Y-12249531D02*
X8840691Y-12268579D01*
X8840691Y-12268579D02*
X8850215Y-12306674D01*
X8850215Y-12306674D02*
X8850215Y-12354293D01*
X8850215Y-12354293D02*
X8840691Y-12392388D01*
X8840691Y-12392388D02*
X8831168Y-12411436D01*
X8831168Y-12411436D02*
X8821644Y-12420960D01*
X8821644Y-12420960D02*
X8802596Y-12430484D01*
X8802596Y-12430484D02*
X8783548Y-12430484D01*
X8783548Y-12430484D02*
X8764501Y-12420960D01*
X8764501Y-12420960D02*
X8754977Y-12411436D01*
X8754977Y-12411436D02*
X8745453Y-12392388D01*
X8745453Y-12392388D02*
X8735929Y-12354293D01*
X8735929Y-12354293D02*
X8735929Y-12306674D01*
X8735929Y-12306674D02*
X8745453Y-12268579D01*
X8745453Y-12268579D02*
X8754977Y-12249531D01*
X8754977Y-12249531D02*
X8764501Y-12240008D01*
X8764501Y-12240008D02*
X8783548Y-12230484D01*
X8916882Y-12230484D02*
X9040691Y-12230484D01*
X9040691Y-12230484D02*
X8974025Y-12306674D01*
X8974025Y-12306674D02*
X9002596Y-12306674D01*
X9002596Y-12306674D02*
X9021644Y-12316198D01*
X9021644Y-12316198D02*
X9031168Y-12325722D01*
X9031168Y-12325722D02*
X9040691Y-12344769D01*
X9040691Y-12344769D02*
X9040691Y-12392388D01*
X9040691Y-12392388D02*
X9031168Y-12411436D01*
X9031168Y-12411436D02*
X9021644Y-12420960D01*
X9021644Y-12420960D02*
X9002596Y-12430484D01*
X9002596Y-12430484D02*
X8945453Y-12430484D01*
X8945453Y-12430484D02*
X8926406Y-12420960D01*
X8926406Y-12420960D02*
X8916882Y-12411436D01*
X9231168Y-12430484D02*
X9116882Y-12430484D01*
X9174025Y-12430484D02*
X9174025Y-12230484D01*
X9174025Y-12230484D02*
X9154977Y-12259055D01*
X9154977Y-12259055D02*
X9135929Y-12278103D01*
X9135929Y-12278103D02*
X9116882Y-12287627D01*
X9412120Y-12230484D02*
X9316882Y-12230484D01*
X9316882Y-12230484D02*
X9307358Y-12325722D01*
X9307358Y-12325722D02*
X9316882Y-12316198D01*
X9316882Y-12316198D02*
X9335929Y-12306674D01*
X9335929Y-12306674D02*
X9383549Y-12306674D01*
X9383549Y-12306674D02*
X9402596Y-12316198D01*
X9402596Y-12316198D02*
X9412120Y-12325722D01*
X9412120Y-12325722D02*
X9421644Y-12344769D01*
X9421644Y-12344769D02*
X9421644Y-12392388D01*
X9421644Y-12392388D02*
X9412120Y-12411436D01*
X9412120Y-12411436D02*
X9402596Y-12420960D01*
X9402596Y-12420960D02*
X9383549Y-12430484D01*
X9383549Y-12430484D02*
X9335929Y-12430484D01*
X9335929Y-12430484D02*
X9316882Y-12420960D01*
X9316882Y-12420960D02*
X9307358Y-12411436D01*
X9497834Y-12230484D02*
X9497834Y-12268579D01*
X9574025Y-12230484D02*
X9574025Y-12268579D01*
X9869263Y-12506674D02*
X9859739Y-12497150D01*
X9859739Y-12497150D02*
X9840691Y-12468579D01*
X9840691Y-12468579D02*
X9831168Y-12449531D01*
X9831168Y-12449531D02*
X9821644Y-12420960D01*
X9821644Y-12420960D02*
X9812120Y-12373341D01*
X9812120Y-12373341D02*
X9812120Y-12335246D01*
X9812120Y-12335246D02*
X9821644Y-12287627D01*
X9821644Y-12287627D02*
X9831168Y-12259055D01*
X9831168Y-12259055D02*
X9840691Y-12240008D01*
X9840691Y-12240008D02*
X9859739Y-12211436D01*
X9859739Y-12211436D02*
X9869263Y-12201912D01*
X10050215Y-12430484D02*
X9935930Y-12430484D01*
X9993072Y-12430484D02*
X9993072Y-12230484D01*
X9993072Y-12230484D02*
X9974025Y-12259055D01*
X9974025Y-12259055D02*
X9954977Y-12278103D01*
X9954977Y-12278103D02*
X9935930Y-12287627D01*
X10126406Y-12249531D02*
X10135930Y-12240008D01*
X10135930Y-12240008D02*
X10154977Y-12230484D01*
X10154977Y-12230484D02*
X10202596Y-12230484D01*
X10202596Y-12230484D02*
X10221644Y-12240008D01*
X10221644Y-12240008D02*
X10231168Y-12249531D01*
X10231168Y-12249531D02*
X10240691Y-12268579D01*
X10240691Y-12268579D02*
X10240691Y-12287627D01*
X10240691Y-12287627D02*
X10231168Y-12316198D01*
X10231168Y-12316198D02*
X10116882Y-12430484D01*
X10116882Y-12430484D02*
X10240691Y-12430484D01*
X10421644Y-12230484D02*
X10326406Y-12230484D01*
X10326406Y-12230484D02*
X10316882Y-12325722D01*
X10316882Y-12325722D02*
X10326406Y-12316198D01*
X10326406Y-12316198D02*
X10345453Y-12306674D01*
X10345453Y-12306674D02*
X10393072Y-12306674D01*
X10393072Y-12306674D02*
X10412120Y-12316198D01*
X10412120Y-12316198D02*
X10421644Y-12325722D01*
X10421644Y-12325722D02*
X10431168Y-12344769D01*
X10431168Y-12344769D02*
X10431168Y-12392388D01*
X10431168Y-12392388D02*
X10421644Y-12411436D01*
X10421644Y-12411436D02*
X10412120Y-12420960D01*
X10412120Y-12420960D02*
X10393072Y-12430484D01*
X10393072Y-12430484D02*
X10345453Y-12430484D01*
X10345453Y-12430484D02*
X10326406Y-12420960D01*
X10326406Y-12420960D02*
X10316882Y-12411436D01*
X10669263Y-12430484D02*
X10669263Y-12230484D01*
X10754977Y-12430484D02*
X10754977Y-12325722D01*
X10754977Y-12325722D02*
X10745453Y-12306674D01*
X10745453Y-12306674D02*
X10726406Y-12297150D01*
X10726406Y-12297150D02*
X10697834Y-12297150D01*
X10697834Y-12297150D02*
X10678787Y-12306674D01*
X10678787Y-12306674D02*
X10669263Y-12316198D01*
X10878787Y-12430484D02*
X10859739Y-12420960D01*
X10859739Y-12420960D02*
X10850215Y-12411436D01*
X10850215Y-12411436D02*
X10840692Y-12392388D01*
X10840692Y-12392388D02*
X10840692Y-12335246D01*
X10840692Y-12335246D02*
X10850215Y-12316198D01*
X10850215Y-12316198D02*
X10859739Y-12306674D01*
X10859739Y-12306674D02*
X10878787Y-12297150D01*
X10878787Y-12297150D02*
X10907358Y-12297150D01*
X10907358Y-12297150D02*
X10926406Y-12306674D01*
X10926406Y-12306674D02*
X10935930Y-12316198D01*
X10935930Y-12316198D02*
X10945453Y-12335246D01*
X10945453Y-12335246D02*
X10945453Y-12392388D01*
X10945453Y-12392388D02*
X10935930Y-12411436D01*
X10935930Y-12411436D02*
X10926406Y-12420960D01*
X10926406Y-12420960D02*
X10907358Y-12430484D01*
X10907358Y-12430484D02*
X10878787Y-12430484D01*
X11059739Y-12430484D02*
X11040692Y-12420960D01*
X11040692Y-12420960D02*
X11031168Y-12401912D01*
X11031168Y-12401912D02*
X11031168Y-12230484D01*
X11212120Y-12420960D02*
X11193072Y-12430484D01*
X11193072Y-12430484D02*
X11154977Y-12430484D01*
X11154977Y-12430484D02*
X11135930Y-12420960D01*
X11135930Y-12420960D02*
X11126406Y-12401912D01*
X11126406Y-12401912D02*
X11126406Y-12325722D01*
X11126406Y-12325722D02*
X11135930Y-12306674D01*
X11135930Y-12306674D02*
X11154977Y-12297150D01*
X11154977Y-12297150D02*
X11193072Y-12297150D01*
X11193072Y-12297150D02*
X11212120Y-12306674D01*
X11212120Y-12306674D02*
X11221644Y-12325722D01*
X11221644Y-12325722D02*
X11221644Y-12344769D01*
X11221644Y-12344769D02*
X11126406Y-12363817D01*
X11297834Y-12420960D02*
X11316882Y-12430484D01*
X11316882Y-12430484D02*
X11354977Y-12430484D01*
X11354977Y-12430484D02*
X11374025Y-12420960D01*
X11374025Y-12420960D02*
X11383549Y-12401912D01*
X11383549Y-12401912D02*
X11383549Y-12392388D01*
X11383549Y-12392388D02*
X11374025Y-12373341D01*
X11374025Y-12373341D02*
X11354977Y-12363817D01*
X11354977Y-12363817D02*
X11326406Y-12363817D01*
X11326406Y-12363817D02*
X11307358Y-12354293D01*
X11307358Y-12354293D02*
X11297834Y-12335246D01*
X11297834Y-12335246D02*
X11297834Y-12325722D01*
X11297834Y-12325722D02*
X11307358Y-12306674D01*
X11307358Y-12306674D02*
X11326406Y-12297150D01*
X11326406Y-12297150D02*
X11354977Y-12297150D01*
X11354977Y-12297150D02*
X11374025Y-12306674D01*
X11450215Y-12506674D02*
X11459739Y-12497150D01*
X11459739Y-12497150D02*
X11478787Y-12468579D01*
X11478787Y-12468579D02*
X11488311Y-12449531D01*
X11488311Y-12449531D02*
X11497834Y-12420960D01*
X11497834Y-12420960D02*
X11507358Y-12373341D01*
X11507358Y-12373341D02*
X11507358Y-12335246D01*
X11507358Y-12335246D02*
X11497834Y-12287627D01*
X11497834Y-12287627D02*
X11488311Y-12259055D01*
X11488311Y-12259055D02*
X11478787Y-12240008D01*
X11478787Y-12240008D02*
X11459739Y-12211436D01*
X11459739Y-12211436D02*
X11450215Y-12201912D01*
D10*
X6249200Y-12558000D02*
X6249200Y-12648000D01*
X6204200Y-12603000D02*
X6294200Y-12603000D01*
D11*
X6593072Y-12494484D02*
X6612120Y-12494484D01*
X6612120Y-12494484D02*
X6631167Y-12504008D01*
X6631167Y-12504008D02*
X6640691Y-12513531D01*
X6640691Y-12513531D02*
X6650215Y-12532579D01*
X6650215Y-12532579D02*
X6659739Y-12570674D01*
X6659739Y-12570674D02*
X6659739Y-12618293D01*
X6659739Y-12618293D02*
X6650215Y-12656388D01*
X6650215Y-12656388D02*
X6640691Y-12675436D01*
X6640691Y-12675436D02*
X6631167Y-12684960D01*
X6631167Y-12684960D02*
X6612120Y-12694484D01*
X6612120Y-12694484D02*
X6593072Y-12694484D01*
X6593072Y-12694484D02*
X6574024Y-12684960D01*
X6574024Y-12684960D02*
X6564501Y-12675436D01*
X6564501Y-12675436D02*
X6554977Y-12656388D01*
X6554977Y-12656388D02*
X6545453Y-12618293D01*
X6545453Y-12618293D02*
X6545453Y-12570674D01*
X6545453Y-12570674D02*
X6554977Y-12532579D01*
X6554977Y-12532579D02*
X6564501Y-12513531D01*
X6564501Y-12513531D02*
X6574024Y-12504008D01*
X6574024Y-12504008D02*
X6593072Y-12494484D01*
X6745453Y-12675436D02*
X6754977Y-12684960D01*
X6754977Y-12684960D02*
X6745453Y-12694484D01*
X6745453Y-12694484D02*
X6735929Y-12684960D01*
X6735929Y-12684960D02*
X6745453Y-12675436D01*
X6745453Y-12675436D02*
X6745453Y-12694484D01*
X6850215Y-12694484D02*
X6888310Y-12694484D01*
X6888310Y-12694484D02*
X6907358Y-12684960D01*
X6907358Y-12684960D02*
X6916882Y-12675436D01*
X6916882Y-12675436D02*
X6935929Y-12646865D01*
X6935929Y-12646865D02*
X6945453Y-12608769D01*
X6945453Y-12608769D02*
X6945453Y-12532579D01*
X6945453Y-12532579D02*
X6935929Y-12513531D01*
X6935929Y-12513531D02*
X6926405Y-12504008D01*
X6926405Y-12504008D02*
X6907358Y-12494484D01*
X6907358Y-12494484D02*
X6869262Y-12494484D01*
X6869262Y-12494484D02*
X6850215Y-12504008D01*
X6850215Y-12504008D02*
X6840691Y-12513531D01*
X6840691Y-12513531D02*
X6831167Y-12532579D01*
X6831167Y-12532579D02*
X6831167Y-12580198D01*
X6831167Y-12580198D02*
X6840691Y-12599246D01*
X6840691Y-12599246D02*
X6850215Y-12608769D01*
X6850215Y-12608769D02*
X6869262Y-12618293D01*
X6869262Y-12618293D02*
X6907358Y-12618293D01*
X6907358Y-12618293D02*
X6926405Y-12608769D01*
X6926405Y-12608769D02*
X6935929Y-12599246D01*
X6935929Y-12599246D02*
X6945453Y-12580198D01*
X7069262Y-12494484D02*
X7088310Y-12494484D01*
X7088310Y-12494484D02*
X7107358Y-12504008D01*
X7107358Y-12504008D02*
X7116882Y-12513531D01*
X7116882Y-12513531D02*
X7126405Y-12532579D01*
X7126405Y-12532579D02*
X7135929Y-12570674D01*
X7135929Y-12570674D02*
X7135929Y-12618293D01*
X7135929Y-12618293D02*
X7126405Y-12656388D01*
X7126405Y-12656388D02*
X7116882Y-12675436D01*
X7116882Y-12675436D02*
X7107358Y-12684960D01*
X7107358Y-12684960D02*
X7088310Y-12694484D01*
X7088310Y-12694484D02*
X7069262Y-12694484D01*
X7069262Y-12694484D02*
X7050215Y-12684960D01*
X7050215Y-12684960D02*
X7040691Y-12675436D01*
X7040691Y-12675436D02*
X7031167Y-12656388D01*
X7031167Y-12656388D02*
X7021643Y-12618293D01*
X7021643Y-12618293D02*
X7021643Y-12570674D01*
X7021643Y-12570674D02*
X7031167Y-12532579D01*
X7031167Y-12532579D02*
X7040691Y-12513531D01*
X7040691Y-12513531D02*
X7050215Y-12504008D01*
X7050215Y-12504008D02*
X7069262Y-12494484D01*
X7259739Y-12494484D02*
X7278786Y-12494484D01*
X7278786Y-12494484D02*
X7297834Y-12504008D01*
X7297834Y-12504008D02*
X7307358Y-12513531D01*
X7307358Y-12513531D02*
X7316882Y-12532579D01*
X7316882Y-12532579D02*
X7326405Y-12570674D01*
X7326405Y-12570674D02*
X7326405Y-12618293D01*
X7326405Y-12618293D02*
X7316882Y-12656388D01*
X7316882Y-12656388D02*
X7307358Y-12675436D01*
X7307358Y-12675436D02*
X7297834Y-12684960D01*
X7297834Y-12684960D02*
X7278786Y-12694484D01*
X7278786Y-12694484D02*
X7259739Y-12694484D01*
X7259739Y-12694484D02*
X7240691Y-12684960D01*
X7240691Y-12684960D02*
X7231167Y-12675436D01*
X7231167Y-12675436D02*
X7221643Y-12656388D01*
X7221643Y-12656388D02*
X7212120Y-12618293D01*
X7212120Y-12618293D02*
X7212120Y-12570674D01*
X7212120Y-12570674D02*
X7221643Y-12532579D01*
X7221643Y-12532579D02*
X7231167Y-12513531D01*
X7231167Y-12513531D02*
X7240691Y-12504008D01*
X7240691Y-12504008D02*
X7259739Y-12494484D01*
X7412120Y-12694484D02*
X7412120Y-12561150D01*
X7412120Y-12580198D02*
X7421643Y-12570674D01*
X7421643Y-12570674D02*
X7440691Y-12561150D01*
X7440691Y-12561150D02*
X7469263Y-12561150D01*
X7469263Y-12561150D02*
X7488310Y-12570674D01*
X7488310Y-12570674D02*
X7497834Y-12589722D01*
X7497834Y-12589722D02*
X7497834Y-12694484D01*
X7497834Y-12589722D02*
X7507358Y-12570674D01*
X7507358Y-12570674D02*
X7526405Y-12561150D01*
X7526405Y-12561150D02*
X7554977Y-12561150D01*
X7554977Y-12561150D02*
X7574024Y-12570674D01*
X7574024Y-12570674D02*
X7583548Y-12589722D01*
X7583548Y-12589722D02*
X7583548Y-12694484D01*
X7678786Y-12694484D02*
X7678786Y-12561150D01*
X7678786Y-12580198D02*
X7688310Y-12570674D01*
X7688310Y-12570674D02*
X7707358Y-12561150D01*
X7707358Y-12561150D02*
X7735929Y-12561150D01*
X7735929Y-12561150D02*
X7754977Y-12570674D01*
X7754977Y-12570674D02*
X7764501Y-12589722D01*
X7764501Y-12589722D02*
X7764501Y-12694484D01*
X7764501Y-12589722D02*
X7774024Y-12570674D01*
X7774024Y-12570674D02*
X7793072Y-12561150D01*
X7793072Y-12561150D02*
X7821643Y-12561150D01*
X7821643Y-12561150D02*
X7840691Y-12570674D01*
X7840691Y-12570674D02*
X7850215Y-12589722D01*
X7850215Y-12589722D02*
X7850215Y-12694484D01*
X8240691Y-12484960D02*
X8069263Y-12742103D01*
X8497834Y-12494484D02*
X8516882Y-12494484D01*
X8516882Y-12494484D02*
X8535929Y-12504008D01*
X8535929Y-12504008D02*
X8545453Y-12513531D01*
X8545453Y-12513531D02*
X8554977Y-12532579D01*
X8554977Y-12532579D02*
X8564501Y-12570674D01*
X8564501Y-12570674D02*
X8564501Y-12618293D01*
X8564501Y-12618293D02*
X8554977Y-12656388D01*
X8554977Y-12656388D02*
X8545453Y-12675436D01*
X8545453Y-12675436D02*
X8535929Y-12684960D01*
X8535929Y-12684960D02*
X8516882Y-12694484D01*
X8516882Y-12694484D02*
X8497834Y-12694484D01*
X8497834Y-12694484D02*
X8478787Y-12684960D01*
X8478787Y-12684960D02*
X8469263Y-12675436D01*
X8469263Y-12675436D02*
X8459739Y-12656388D01*
X8459739Y-12656388D02*
X8450215Y-12618293D01*
X8450215Y-12618293D02*
X8450215Y-12570674D01*
X8450215Y-12570674D02*
X8459739Y-12532579D01*
X8459739Y-12532579D02*
X8469263Y-12513531D01*
X8469263Y-12513531D02*
X8478787Y-12504008D01*
X8478787Y-12504008D02*
X8497834Y-12494484D01*
X8650215Y-12675436D02*
X8659739Y-12684960D01*
X8659739Y-12684960D02*
X8650215Y-12694484D01*
X8650215Y-12694484D02*
X8640691Y-12684960D01*
X8640691Y-12684960D02*
X8650215Y-12675436D01*
X8650215Y-12675436D02*
X8650215Y-12694484D01*
X8783548Y-12494484D02*
X8802596Y-12494484D01*
X8802596Y-12494484D02*
X8821644Y-12504008D01*
X8821644Y-12504008D02*
X8831168Y-12513531D01*
X8831168Y-12513531D02*
X8840691Y-12532579D01*
X8840691Y-12532579D02*
X8850215Y-12570674D01*
X8850215Y-12570674D02*
X8850215Y-12618293D01*
X8850215Y-12618293D02*
X8840691Y-12656388D01*
X8840691Y-12656388D02*
X8831168Y-12675436D01*
X8831168Y-12675436D02*
X8821644Y-12684960D01*
X8821644Y-12684960D02*
X8802596Y-12694484D01*
X8802596Y-12694484D02*
X8783548Y-12694484D01*
X8783548Y-12694484D02*
X8764501Y-12684960D01*
X8764501Y-12684960D02*
X8754977Y-12675436D01*
X8754977Y-12675436D02*
X8745453Y-12656388D01*
X8745453Y-12656388D02*
X8735929Y-12618293D01*
X8735929Y-12618293D02*
X8735929Y-12570674D01*
X8735929Y-12570674D02*
X8745453Y-12532579D01*
X8745453Y-12532579D02*
X8754977Y-12513531D01*
X8754977Y-12513531D02*
X8764501Y-12504008D01*
X8764501Y-12504008D02*
X8783548Y-12494484D01*
X8916882Y-12494484D02*
X9040691Y-12494484D01*
X9040691Y-12494484D02*
X8974025Y-12570674D01*
X8974025Y-12570674D02*
X9002596Y-12570674D01*
X9002596Y-12570674D02*
X9021644Y-12580198D01*
X9021644Y-12580198D02*
X9031168Y-12589722D01*
X9031168Y-12589722D02*
X9040691Y-12608769D01*
X9040691Y-12608769D02*
X9040691Y-12656388D01*
X9040691Y-12656388D02*
X9031168Y-12675436D01*
X9031168Y-12675436D02*
X9021644Y-12684960D01*
X9021644Y-12684960D02*
X9002596Y-12694484D01*
X9002596Y-12694484D02*
X8945453Y-12694484D01*
X8945453Y-12694484D02*
X8926406Y-12684960D01*
X8926406Y-12684960D02*
X8916882Y-12675436D01*
X9221644Y-12494484D02*
X9126406Y-12494484D01*
X9126406Y-12494484D02*
X9116882Y-12589722D01*
X9116882Y-12589722D02*
X9126406Y-12580198D01*
X9126406Y-12580198D02*
X9145453Y-12570674D01*
X9145453Y-12570674D02*
X9193072Y-12570674D01*
X9193072Y-12570674D02*
X9212120Y-12580198D01*
X9212120Y-12580198D02*
X9221644Y-12589722D01*
X9221644Y-12589722D02*
X9231168Y-12608769D01*
X9231168Y-12608769D02*
X9231168Y-12656388D01*
X9231168Y-12656388D02*
X9221644Y-12675436D01*
X9221644Y-12675436D02*
X9212120Y-12684960D01*
X9212120Y-12684960D02*
X9193072Y-12694484D01*
X9193072Y-12694484D02*
X9145453Y-12694484D01*
X9145453Y-12694484D02*
X9126406Y-12684960D01*
X9126406Y-12684960D02*
X9116882Y-12675436D01*
X9402596Y-12561150D02*
X9402596Y-12694484D01*
X9354977Y-12484960D02*
X9307358Y-12627817D01*
X9307358Y-12627817D02*
X9431168Y-12627817D01*
X9497834Y-12494484D02*
X9497834Y-12532579D01*
X9574025Y-12494484D02*
X9574025Y-12532579D01*
X9869263Y-12770674D02*
X9859739Y-12761150D01*
X9859739Y-12761150D02*
X9840691Y-12732579D01*
X9840691Y-12732579D02*
X9831168Y-12713531D01*
X9831168Y-12713531D02*
X9821644Y-12684960D01*
X9821644Y-12684960D02*
X9812120Y-12637341D01*
X9812120Y-12637341D02*
X9812120Y-12599246D01*
X9812120Y-12599246D02*
X9821644Y-12551627D01*
X9821644Y-12551627D02*
X9831168Y-12523055D01*
X9831168Y-12523055D02*
X9840691Y-12504008D01*
X9840691Y-12504008D02*
X9859739Y-12475436D01*
X9859739Y-12475436D02*
X9869263Y-12465912D01*
X9935930Y-12513531D02*
X9945453Y-12504008D01*
X9945453Y-12504008D02*
X9964501Y-12494484D01*
X9964501Y-12494484D02*
X10012120Y-12494484D01*
X10012120Y-12494484D02*
X10031168Y-12504008D01*
X10031168Y-12504008D02*
X10040691Y-12513531D01*
X10040691Y-12513531D02*
X10050215Y-12532579D01*
X10050215Y-12532579D02*
X10050215Y-12551627D01*
X10050215Y-12551627D02*
X10040691Y-12580198D01*
X10040691Y-12580198D02*
X9926406Y-12694484D01*
X9926406Y-12694484D02*
X10050215Y-12694484D01*
X10288311Y-12694484D02*
X10288311Y-12494484D01*
X10374025Y-12694484D02*
X10374025Y-12589722D01*
X10374025Y-12589722D02*
X10364501Y-12570674D01*
X10364501Y-12570674D02*
X10345453Y-12561150D01*
X10345453Y-12561150D02*
X10316882Y-12561150D01*
X10316882Y-12561150D02*
X10297834Y-12570674D01*
X10297834Y-12570674D02*
X10288311Y-12580198D01*
X10497834Y-12694484D02*
X10478787Y-12684960D01*
X10478787Y-12684960D02*
X10469263Y-12675436D01*
X10469263Y-12675436D02*
X10459739Y-12656388D01*
X10459739Y-12656388D02*
X10459739Y-12599246D01*
X10459739Y-12599246D02*
X10469263Y-12580198D01*
X10469263Y-12580198D02*
X10478787Y-12570674D01*
X10478787Y-12570674D02*
X10497834Y-12561150D01*
X10497834Y-12561150D02*
X10526406Y-12561150D01*
X10526406Y-12561150D02*
X10545453Y-12570674D01*
X10545453Y-12570674D02*
X10554977Y-12580198D01*
X10554977Y-12580198D02*
X10564501Y-12599246D01*
X10564501Y-12599246D02*
X10564501Y-12656388D01*
X10564501Y-12656388D02*
X10554977Y-12675436D01*
X10554977Y-12675436D02*
X10545453Y-12684960D01*
X10545453Y-12684960D02*
X10526406Y-12694484D01*
X10526406Y-12694484D02*
X10497834Y-12694484D01*
X10678787Y-12694484D02*
X10659739Y-12684960D01*
X10659739Y-12684960D02*
X10650215Y-12665912D01*
X10650215Y-12665912D02*
X10650215Y-12494484D01*
X10831168Y-12684960D02*
X10812120Y-12694484D01*
X10812120Y-12694484D02*
X10774025Y-12694484D01*
X10774025Y-12694484D02*
X10754977Y-12684960D01*
X10754977Y-12684960D02*
X10745453Y-12665912D01*
X10745453Y-12665912D02*
X10745453Y-12589722D01*
X10745453Y-12589722D02*
X10754977Y-12570674D01*
X10754977Y-12570674D02*
X10774025Y-12561150D01*
X10774025Y-12561150D02*
X10812120Y-12561150D01*
X10812120Y-12561150D02*
X10831168Y-12570674D01*
X10831168Y-12570674D02*
X10840692Y-12589722D01*
X10840692Y-12589722D02*
X10840692Y-12608769D01*
X10840692Y-12608769D02*
X10745453Y-12627817D01*
X10916882Y-12684960D02*
X10935930Y-12694484D01*
X10935930Y-12694484D02*
X10974025Y-12694484D01*
X10974025Y-12694484D02*
X10993073Y-12684960D01*
X10993073Y-12684960D02*
X11002596Y-12665912D01*
X11002596Y-12665912D02*
X11002596Y-12656388D01*
X11002596Y-12656388D02*
X10993073Y-12637341D01*
X10993073Y-12637341D02*
X10974025Y-12627817D01*
X10974025Y-12627817D02*
X10945453Y-12627817D01*
X10945453Y-12627817D02*
X10926406Y-12618293D01*
X10926406Y-12618293D02*
X10916882Y-12599246D01*
X10916882Y-12599246D02*
X10916882Y-12589722D01*
X10916882Y-12589722D02*
X10926406Y-12570674D01*
X10926406Y-12570674D02*
X10945453Y-12561150D01*
X10945453Y-12561150D02*
X10974025Y-12561150D01*
X10974025Y-12561150D02*
X10993073Y-12570674D01*
X11240692Y-12618293D02*
X11393073Y-12618293D01*
X11316882Y-12694484D02*
X11316882Y-12542103D01*
X11726406Y-12561150D02*
X11726406Y-12694484D01*
X11678787Y-12484960D02*
X11631168Y-12627817D01*
X11631168Y-12627817D02*
X11754977Y-12627817D01*
X11974025Y-12684960D02*
X11993073Y-12694484D01*
X11993073Y-12694484D02*
X12031168Y-12694484D01*
X12031168Y-12694484D02*
X12050215Y-12684960D01*
X12050215Y-12684960D02*
X12059739Y-12665912D01*
X12059739Y-12665912D02*
X12059739Y-12656388D01*
X12059739Y-12656388D02*
X12050215Y-12637341D01*
X12050215Y-12637341D02*
X12031168Y-12627817D01*
X12031168Y-12627817D02*
X12002596Y-12627817D01*
X12002596Y-12627817D02*
X11983549Y-12618293D01*
X11983549Y-12618293D02*
X11974025Y-12599246D01*
X11974025Y-12599246D02*
X11974025Y-12589722D01*
X11974025Y-12589722D02*
X11983549Y-12570674D01*
X11983549Y-12570674D02*
X12002596Y-12561150D01*
X12002596Y-12561150D02*
X12031168Y-12561150D01*
X12031168Y-12561150D02*
X12050215Y-12570674D01*
X12174025Y-12694484D02*
X12154977Y-12684960D01*
X12154977Y-12684960D02*
X12145454Y-12665912D01*
X12145454Y-12665912D02*
X12145454Y-12494484D01*
X12278787Y-12694484D02*
X12259739Y-12684960D01*
X12259739Y-12684960D02*
X12250215Y-12675436D01*
X12250215Y-12675436D02*
X12240692Y-12656388D01*
X12240692Y-12656388D02*
X12240692Y-12599246D01*
X12240692Y-12599246D02*
X12250215Y-12580198D01*
X12250215Y-12580198D02*
X12259739Y-12570674D01*
X12259739Y-12570674D02*
X12278787Y-12561150D01*
X12278787Y-12561150D02*
X12307358Y-12561150D01*
X12307358Y-12561150D02*
X12326406Y-12570674D01*
X12326406Y-12570674D02*
X12335930Y-12580198D01*
X12335930Y-12580198D02*
X12345454Y-12599246D01*
X12345454Y-12599246D02*
X12345454Y-12656388D01*
X12345454Y-12656388D02*
X12335930Y-12675436D01*
X12335930Y-12675436D02*
X12326406Y-12684960D01*
X12326406Y-12684960D02*
X12307358Y-12694484D01*
X12307358Y-12694484D02*
X12278787Y-12694484D01*
X12402596Y-12561150D02*
X12478787Y-12561150D01*
X12431168Y-12494484D02*
X12431168Y-12665912D01*
X12431168Y-12665912D02*
X12440692Y-12684960D01*
X12440692Y-12684960D02*
X12459739Y-12694484D01*
X12459739Y-12694484D02*
X12478787Y-12694484D01*
X12535930Y-12684960D02*
X12554977Y-12694484D01*
X12554977Y-12694484D02*
X12593073Y-12694484D01*
X12593073Y-12694484D02*
X12612120Y-12684960D01*
X12612120Y-12684960D02*
X12621644Y-12665912D01*
X12621644Y-12665912D02*
X12621644Y-12656388D01*
X12621644Y-12656388D02*
X12612120Y-12637341D01*
X12612120Y-12637341D02*
X12593073Y-12627817D01*
X12593073Y-12627817D02*
X12564501Y-12627817D01*
X12564501Y-12627817D02*
X12545454Y-12618293D01*
X12545454Y-12618293D02*
X12535930Y-12599246D01*
X12535930Y-12599246D02*
X12535930Y-12589722D01*
X12535930Y-12589722D02*
X12545454Y-12570674D01*
X12545454Y-12570674D02*
X12564501Y-12561150D01*
X12564501Y-12561150D02*
X12593073Y-12561150D01*
X12593073Y-12561150D02*
X12612120Y-12570674D01*
X12688311Y-12770674D02*
X12697835Y-12761150D01*
X12697835Y-12761150D02*
X12716882Y-12732579D01*
X12716882Y-12732579D02*
X12726406Y-12713531D01*
X12726406Y-12713531D02*
X12735930Y-12684960D01*
X12735930Y-12684960D02*
X12745454Y-12637341D01*
X12745454Y-12637341D02*
X12745454Y-12599246D01*
X12745454Y-12599246D02*
X12735930Y-12551627D01*
X12735930Y-12551627D02*
X12726406Y-12523055D01*
X12726406Y-12523055D02*
X12716882Y-12504008D01*
X12716882Y-12504008D02*
X12697835Y-12475436D01*
X12697835Y-12475436D02*
X12688311Y-12465912D01*
D10*
X6279556Y-12902356D02*
X6279556Y-12831644D01*
X6208844Y-12831644D01*
X6208844Y-12902356D01*
X6279556Y-12902356D01*
D11*
X6659739Y-12958484D02*
X6545453Y-12958484D01*
X6602596Y-12958484D02*
X6602596Y-12758484D01*
X6602596Y-12758484D02*
X6583548Y-12787055D01*
X6583548Y-12787055D02*
X6564501Y-12806103D01*
X6564501Y-12806103D02*
X6545453Y-12815627D01*
X6745453Y-12939436D02*
X6754977Y-12948960D01*
X6754977Y-12948960D02*
X6745453Y-12958484D01*
X6745453Y-12958484D02*
X6735929Y-12948960D01*
X6735929Y-12948960D02*
X6745453Y-12939436D01*
X6745453Y-12939436D02*
X6745453Y-12958484D01*
X6878786Y-12758484D02*
X6897834Y-12758484D01*
X6897834Y-12758484D02*
X6916882Y-12768008D01*
X6916882Y-12768008D02*
X6926405Y-12777531D01*
X6926405Y-12777531D02*
X6935929Y-12796579D01*
X6935929Y-12796579D02*
X6945453Y-12834674D01*
X6945453Y-12834674D02*
X6945453Y-12882293D01*
X6945453Y-12882293D02*
X6935929Y-12920388D01*
X6935929Y-12920388D02*
X6926405Y-12939436D01*
X6926405Y-12939436D02*
X6916882Y-12948960D01*
X6916882Y-12948960D02*
X6897834Y-12958484D01*
X6897834Y-12958484D02*
X6878786Y-12958484D01*
X6878786Y-12958484D02*
X6859739Y-12948960D01*
X6859739Y-12948960D02*
X6850215Y-12939436D01*
X6850215Y-12939436D02*
X6840691Y-12920388D01*
X6840691Y-12920388D02*
X6831167Y-12882293D01*
X6831167Y-12882293D02*
X6831167Y-12834674D01*
X6831167Y-12834674D02*
X6840691Y-12796579D01*
X6840691Y-12796579D02*
X6850215Y-12777531D01*
X6850215Y-12777531D02*
X6859739Y-12768008D01*
X6859739Y-12768008D02*
X6878786Y-12758484D01*
X7069262Y-12758484D02*
X7088310Y-12758484D01*
X7088310Y-12758484D02*
X7107358Y-12768008D01*
X7107358Y-12768008D02*
X7116882Y-12777531D01*
X7116882Y-12777531D02*
X7126405Y-12796579D01*
X7126405Y-12796579D02*
X7135929Y-12834674D01*
X7135929Y-12834674D02*
X7135929Y-12882293D01*
X7135929Y-12882293D02*
X7126405Y-12920388D01*
X7126405Y-12920388D02*
X7116882Y-12939436D01*
X7116882Y-12939436D02*
X7107358Y-12948960D01*
X7107358Y-12948960D02*
X7088310Y-12958484D01*
X7088310Y-12958484D02*
X7069262Y-12958484D01*
X7069262Y-12958484D02*
X7050215Y-12948960D01*
X7050215Y-12948960D02*
X7040691Y-12939436D01*
X7040691Y-12939436D02*
X7031167Y-12920388D01*
X7031167Y-12920388D02*
X7021643Y-12882293D01*
X7021643Y-12882293D02*
X7021643Y-12834674D01*
X7021643Y-12834674D02*
X7031167Y-12796579D01*
X7031167Y-12796579D02*
X7040691Y-12777531D01*
X7040691Y-12777531D02*
X7050215Y-12768008D01*
X7050215Y-12768008D02*
X7069262Y-12758484D01*
X7259739Y-12758484D02*
X7278786Y-12758484D01*
X7278786Y-12758484D02*
X7297834Y-12768008D01*
X7297834Y-12768008D02*
X7307358Y-12777531D01*
X7307358Y-12777531D02*
X7316882Y-12796579D01*
X7316882Y-12796579D02*
X7326405Y-12834674D01*
X7326405Y-12834674D02*
X7326405Y-12882293D01*
X7326405Y-12882293D02*
X7316882Y-12920388D01*
X7316882Y-12920388D02*
X7307358Y-12939436D01*
X7307358Y-12939436D02*
X7297834Y-12948960D01*
X7297834Y-12948960D02*
X7278786Y-12958484D01*
X7278786Y-12958484D02*
X7259739Y-12958484D01*
X7259739Y-12958484D02*
X7240691Y-12948960D01*
X7240691Y-12948960D02*
X7231167Y-12939436D01*
X7231167Y-12939436D02*
X7221643Y-12920388D01*
X7221643Y-12920388D02*
X7212120Y-12882293D01*
X7212120Y-12882293D02*
X7212120Y-12834674D01*
X7212120Y-12834674D02*
X7221643Y-12796579D01*
X7221643Y-12796579D02*
X7231167Y-12777531D01*
X7231167Y-12777531D02*
X7240691Y-12768008D01*
X7240691Y-12768008D02*
X7259739Y-12758484D01*
X7412120Y-12958484D02*
X7412120Y-12825150D01*
X7412120Y-12844198D02*
X7421643Y-12834674D01*
X7421643Y-12834674D02*
X7440691Y-12825150D01*
X7440691Y-12825150D02*
X7469263Y-12825150D01*
X7469263Y-12825150D02*
X7488310Y-12834674D01*
X7488310Y-12834674D02*
X7497834Y-12853722D01*
X7497834Y-12853722D02*
X7497834Y-12958484D01*
X7497834Y-12853722D02*
X7507358Y-12834674D01*
X7507358Y-12834674D02*
X7526405Y-12825150D01*
X7526405Y-12825150D02*
X7554977Y-12825150D01*
X7554977Y-12825150D02*
X7574024Y-12834674D01*
X7574024Y-12834674D02*
X7583548Y-12853722D01*
X7583548Y-12853722D02*
X7583548Y-12958484D01*
X7678786Y-12958484D02*
X7678786Y-12825150D01*
X7678786Y-12844198D02*
X7688310Y-12834674D01*
X7688310Y-12834674D02*
X7707358Y-12825150D01*
X7707358Y-12825150D02*
X7735929Y-12825150D01*
X7735929Y-12825150D02*
X7754977Y-12834674D01*
X7754977Y-12834674D02*
X7764501Y-12853722D01*
X7764501Y-12853722D02*
X7764501Y-12958484D01*
X7764501Y-12853722D02*
X7774024Y-12834674D01*
X7774024Y-12834674D02*
X7793072Y-12825150D01*
X7793072Y-12825150D02*
X7821643Y-12825150D01*
X7821643Y-12825150D02*
X7840691Y-12834674D01*
X7840691Y-12834674D02*
X7850215Y-12853722D01*
X7850215Y-12853722D02*
X7850215Y-12958484D01*
X8240691Y-12748960D02*
X8069263Y-13006103D01*
X8497834Y-12758484D02*
X8516882Y-12758484D01*
X8516882Y-12758484D02*
X8535929Y-12768008D01*
X8535929Y-12768008D02*
X8545453Y-12777531D01*
X8545453Y-12777531D02*
X8554977Y-12796579D01*
X8554977Y-12796579D02*
X8564501Y-12834674D01*
X8564501Y-12834674D02*
X8564501Y-12882293D01*
X8564501Y-12882293D02*
X8554977Y-12920388D01*
X8554977Y-12920388D02*
X8545453Y-12939436D01*
X8545453Y-12939436D02*
X8535929Y-12948960D01*
X8535929Y-12948960D02*
X8516882Y-12958484D01*
X8516882Y-12958484D02*
X8497834Y-12958484D01*
X8497834Y-12958484D02*
X8478787Y-12948960D01*
X8478787Y-12948960D02*
X8469263Y-12939436D01*
X8469263Y-12939436D02*
X8459739Y-12920388D01*
X8459739Y-12920388D02*
X8450215Y-12882293D01*
X8450215Y-12882293D02*
X8450215Y-12834674D01*
X8450215Y-12834674D02*
X8459739Y-12796579D01*
X8459739Y-12796579D02*
X8469263Y-12777531D01*
X8469263Y-12777531D02*
X8478787Y-12768008D01*
X8478787Y-12768008D02*
X8497834Y-12758484D01*
X8650215Y-12939436D02*
X8659739Y-12948960D01*
X8659739Y-12948960D02*
X8650215Y-12958484D01*
X8650215Y-12958484D02*
X8640691Y-12948960D01*
X8640691Y-12948960D02*
X8650215Y-12939436D01*
X8650215Y-12939436D02*
X8650215Y-12958484D01*
X8783548Y-12758484D02*
X8802596Y-12758484D01*
X8802596Y-12758484D02*
X8821644Y-12768008D01*
X8821644Y-12768008D02*
X8831168Y-12777531D01*
X8831168Y-12777531D02*
X8840691Y-12796579D01*
X8840691Y-12796579D02*
X8850215Y-12834674D01*
X8850215Y-12834674D02*
X8850215Y-12882293D01*
X8850215Y-12882293D02*
X8840691Y-12920388D01*
X8840691Y-12920388D02*
X8831168Y-12939436D01*
X8831168Y-12939436D02*
X8821644Y-12948960D01*
X8821644Y-12948960D02*
X8802596Y-12958484D01*
X8802596Y-12958484D02*
X8783548Y-12958484D01*
X8783548Y-12958484D02*
X8764501Y-12948960D01*
X8764501Y-12948960D02*
X8754977Y-12939436D01*
X8754977Y-12939436D02*
X8745453Y-12920388D01*
X8745453Y-12920388D02*
X8735929Y-12882293D01*
X8735929Y-12882293D02*
X8735929Y-12834674D01*
X8735929Y-12834674D02*
X8745453Y-12796579D01*
X8745453Y-12796579D02*
X8754977Y-12777531D01*
X8754977Y-12777531D02*
X8764501Y-12768008D01*
X8764501Y-12768008D02*
X8783548Y-12758484D01*
X8916882Y-12758484D02*
X9040691Y-12758484D01*
X9040691Y-12758484D02*
X8974025Y-12834674D01*
X8974025Y-12834674D02*
X9002596Y-12834674D01*
X9002596Y-12834674D02*
X9021644Y-12844198D01*
X9021644Y-12844198D02*
X9031168Y-12853722D01*
X9031168Y-12853722D02*
X9040691Y-12872769D01*
X9040691Y-12872769D02*
X9040691Y-12920388D01*
X9040691Y-12920388D02*
X9031168Y-12939436D01*
X9031168Y-12939436D02*
X9021644Y-12948960D01*
X9021644Y-12948960D02*
X9002596Y-12958484D01*
X9002596Y-12958484D02*
X8945453Y-12958484D01*
X8945453Y-12958484D02*
X8926406Y-12948960D01*
X8926406Y-12948960D02*
X8916882Y-12939436D01*
X9135929Y-12958484D02*
X9174025Y-12958484D01*
X9174025Y-12958484D02*
X9193072Y-12948960D01*
X9193072Y-12948960D02*
X9202596Y-12939436D01*
X9202596Y-12939436D02*
X9221644Y-12910865D01*
X9221644Y-12910865D02*
X9231168Y-12872769D01*
X9231168Y-12872769D02*
X9231168Y-12796579D01*
X9231168Y-12796579D02*
X9221644Y-12777531D01*
X9221644Y-12777531D02*
X9212120Y-12768008D01*
X9212120Y-12768008D02*
X9193072Y-12758484D01*
X9193072Y-12758484D02*
X9154977Y-12758484D01*
X9154977Y-12758484D02*
X9135929Y-12768008D01*
X9135929Y-12768008D02*
X9126406Y-12777531D01*
X9126406Y-12777531D02*
X9116882Y-12796579D01*
X9116882Y-12796579D02*
X9116882Y-12844198D01*
X9116882Y-12844198D02*
X9126406Y-12863246D01*
X9126406Y-12863246D02*
X9135929Y-12872769D01*
X9135929Y-12872769D02*
X9154977Y-12882293D01*
X9154977Y-12882293D02*
X9193072Y-12882293D01*
X9193072Y-12882293D02*
X9212120Y-12872769D01*
X9212120Y-12872769D02*
X9221644Y-12863246D01*
X9221644Y-12863246D02*
X9231168Y-12844198D01*
X9402596Y-12825150D02*
X9402596Y-12958484D01*
X9354977Y-12748960D02*
X9307358Y-12891817D01*
X9307358Y-12891817D02*
X9431168Y-12891817D01*
X9497834Y-12758484D02*
X9497834Y-12796579D01*
X9574025Y-12758484D02*
X9574025Y-12796579D01*
X9869263Y-13034674D02*
X9859739Y-13025150D01*
X9859739Y-13025150D02*
X9840691Y-12996579D01*
X9840691Y-12996579D02*
X9831168Y-12977531D01*
X9831168Y-12977531D02*
X9821644Y-12948960D01*
X9821644Y-12948960D02*
X9812120Y-12901341D01*
X9812120Y-12901341D02*
X9812120Y-12863246D01*
X9812120Y-12863246D02*
X9821644Y-12815627D01*
X9821644Y-12815627D02*
X9831168Y-12787055D01*
X9831168Y-12787055D02*
X9840691Y-12768008D01*
X9840691Y-12768008D02*
X9859739Y-12739436D01*
X9859739Y-12739436D02*
X9869263Y-12729912D01*
X9926406Y-12758484D02*
X10050215Y-12758484D01*
X10050215Y-12758484D02*
X9983549Y-12834674D01*
X9983549Y-12834674D02*
X10012120Y-12834674D01*
X10012120Y-12834674D02*
X10031168Y-12844198D01*
X10031168Y-12844198D02*
X10040691Y-12853722D01*
X10040691Y-12853722D02*
X10050215Y-12872769D01*
X10050215Y-12872769D02*
X10050215Y-12920388D01*
X10050215Y-12920388D02*
X10040691Y-12939436D01*
X10040691Y-12939436D02*
X10031168Y-12948960D01*
X10031168Y-12948960D02*
X10012120Y-12958484D01*
X10012120Y-12958484D02*
X9954977Y-12958484D01*
X9954977Y-12958484D02*
X9935930Y-12948960D01*
X9935930Y-12948960D02*
X9926406Y-12939436D01*
X10164501Y-12844198D02*
X10145453Y-12834674D01*
X10145453Y-12834674D02*
X10135930Y-12825150D01*
X10135930Y-12825150D02*
X10126406Y-12806103D01*
X10126406Y-12806103D02*
X10126406Y-12796579D01*
X10126406Y-12796579D02*
X10135930Y-12777531D01*
X10135930Y-12777531D02*
X10145453Y-12768008D01*
X10145453Y-12768008D02*
X10164501Y-12758484D01*
X10164501Y-12758484D02*
X10202596Y-12758484D01*
X10202596Y-12758484D02*
X10221644Y-12768008D01*
X10221644Y-12768008D02*
X10231168Y-12777531D01*
X10231168Y-12777531D02*
X10240691Y-12796579D01*
X10240691Y-12796579D02*
X10240691Y-12806103D01*
X10240691Y-12806103D02*
X10231168Y-12825150D01*
X10231168Y-12825150D02*
X10221644Y-12834674D01*
X10221644Y-12834674D02*
X10202596Y-12844198D01*
X10202596Y-12844198D02*
X10164501Y-12844198D01*
X10164501Y-12844198D02*
X10145453Y-12853722D01*
X10145453Y-12853722D02*
X10135930Y-12863246D01*
X10135930Y-12863246D02*
X10126406Y-12882293D01*
X10126406Y-12882293D02*
X10126406Y-12920388D01*
X10126406Y-12920388D02*
X10135930Y-12939436D01*
X10135930Y-12939436D02*
X10145453Y-12948960D01*
X10145453Y-12948960D02*
X10164501Y-12958484D01*
X10164501Y-12958484D02*
X10202596Y-12958484D01*
X10202596Y-12958484D02*
X10221644Y-12948960D01*
X10221644Y-12948960D02*
X10231168Y-12939436D01*
X10231168Y-12939436D02*
X10240691Y-12920388D01*
X10240691Y-12920388D02*
X10240691Y-12882293D01*
X10240691Y-12882293D02*
X10231168Y-12863246D01*
X10231168Y-12863246D02*
X10221644Y-12853722D01*
X10221644Y-12853722D02*
X10202596Y-12844198D01*
X10478787Y-12958484D02*
X10478787Y-12758484D01*
X10564501Y-12958484D02*
X10564501Y-12853722D01*
X10564501Y-12853722D02*
X10554977Y-12834674D01*
X10554977Y-12834674D02*
X10535930Y-12825150D01*
X10535930Y-12825150D02*
X10507358Y-12825150D01*
X10507358Y-12825150D02*
X10488311Y-12834674D01*
X10488311Y-12834674D02*
X10478787Y-12844198D01*
X10688311Y-12958484D02*
X10669263Y-12948960D01*
X10669263Y-12948960D02*
X10659739Y-12939436D01*
X10659739Y-12939436D02*
X10650215Y-12920388D01*
X10650215Y-12920388D02*
X10650215Y-12863246D01*
X10650215Y-12863246D02*
X10659739Y-12844198D01*
X10659739Y-12844198D02*
X10669263Y-12834674D01*
X10669263Y-12834674D02*
X10688311Y-12825150D01*
X10688311Y-12825150D02*
X10716882Y-12825150D01*
X10716882Y-12825150D02*
X10735930Y-12834674D01*
X10735930Y-12834674D02*
X10745453Y-12844198D01*
X10745453Y-12844198D02*
X10754977Y-12863246D01*
X10754977Y-12863246D02*
X10754977Y-12920388D01*
X10754977Y-12920388D02*
X10745453Y-12939436D01*
X10745453Y-12939436D02*
X10735930Y-12948960D01*
X10735930Y-12948960D02*
X10716882Y-12958484D01*
X10716882Y-12958484D02*
X10688311Y-12958484D01*
X10869263Y-12958484D02*
X10850215Y-12948960D01*
X10850215Y-12948960D02*
X10840692Y-12929912D01*
X10840692Y-12929912D02*
X10840692Y-12758484D01*
X11021644Y-12948960D02*
X11002596Y-12958484D01*
X11002596Y-12958484D02*
X10964501Y-12958484D01*
X10964501Y-12958484D02*
X10945453Y-12948960D01*
X10945453Y-12948960D02*
X10935930Y-12929912D01*
X10935930Y-12929912D02*
X10935930Y-12853722D01*
X10935930Y-12853722D02*
X10945453Y-12834674D01*
X10945453Y-12834674D02*
X10964501Y-12825150D01*
X10964501Y-12825150D02*
X11002596Y-12825150D01*
X11002596Y-12825150D02*
X11021644Y-12834674D01*
X11021644Y-12834674D02*
X11031168Y-12853722D01*
X11031168Y-12853722D02*
X11031168Y-12872769D01*
X11031168Y-12872769D02*
X10935930Y-12891817D01*
X11107358Y-12948960D02*
X11126406Y-12958484D01*
X11126406Y-12958484D02*
X11164501Y-12958484D01*
X11164501Y-12958484D02*
X11183549Y-12948960D01*
X11183549Y-12948960D02*
X11193072Y-12929912D01*
X11193072Y-12929912D02*
X11193072Y-12920388D01*
X11193072Y-12920388D02*
X11183549Y-12901341D01*
X11183549Y-12901341D02*
X11164501Y-12891817D01*
X11164501Y-12891817D02*
X11135930Y-12891817D01*
X11135930Y-12891817D02*
X11116882Y-12882293D01*
X11116882Y-12882293D02*
X11107358Y-12863246D01*
X11107358Y-12863246D02*
X11107358Y-12853722D01*
X11107358Y-12853722D02*
X11116882Y-12834674D01*
X11116882Y-12834674D02*
X11135930Y-12825150D01*
X11135930Y-12825150D02*
X11164501Y-12825150D01*
X11164501Y-12825150D02*
X11183549Y-12834674D01*
X11259739Y-13034674D02*
X11269263Y-13025150D01*
X11269263Y-13025150D02*
X11288311Y-12996579D01*
X11288311Y-12996579D02*
X11297834Y-12977531D01*
X11297834Y-12977531D02*
X11307358Y-12948960D01*
X11307358Y-12948960D02*
X11316882Y-12901341D01*
X11316882Y-12901341D02*
X11316882Y-12863246D01*
X11316882Y-12863246D02*
X11307358Y-12815627D01*
X11307358Y-12815627D02*
X11297834Y-12787055D01*
X11297834Y-12787055D02*
X11288311Y-12768008D01*
X11288311Y-12768008D02*
X11269263Y-12739436D01*
X11269263Y-12739436D02*
X11259739Y-12729912D01*
D12*
X6239200Y-13186000D02*
X6294200Y-13131000D01*
X6239200Y-13076000D01*
X6184200Y-13131000D01*
X6239200Y-13186000D01*
D11*
X6659739Y-13222484D02*
X6545453Y-13222484D01*
X6602596Y-13222484D02*
X6602596Y-13022484D01*
X6602596Y-13022484D02*
X6583548Y-13051055D01*
X6583548Y-13051055D02*
X6564501Y-13070103D01*
X6564501Y-13070103D02*
X6545453Y-13079627D01*
X6745453Y-13203436D02*
X6754977Y-13212960D01*
X6754977Y-13212960D02*
X6745453Y-13222484D01*
X6745453Y-13222484D02*
X6735929Y-13212960D01*
X6735929Y-13212960D02*
X6745453Y-13203436D01*
X6745453Y-13203436D02*
X6745453Y-13222484D01*
X6945453Y-13222484D02*
X6831167Y-13222484D01*
X6888310Y-13222484D02*
X6888310Y-13022484D01*
X6888310Y-13022484D02*
X6869262Y-13051055D01*
X6869262Y-13051055D02*
X6850215Y-13070103D01*
X6850215Y-13070103D02*
X6831167Y-13079627D01*
X7069262Y-13022484D02*
X7088310Y-13022484D01*
X7088310Y-13022484D02*
X7107358Y-13032008D01*
X7107358Y-13032008D02*
X7116882Y-13041531D01*
X7116882Y-13041531D02*
X7126405Y-13060579D01*
X7126405Y-13060579D02*
X7135929Y-13098674D01*
X7135929Y-13098674D02*
X7135929Y-13146293D01*
X7135929Y-13146293D02*
X7126405Y-13184388D01*
X7126405Y-13184388D02*
X7116882Y-13203436D01*
X7116882Y-13203436D02*
X7107358Y-13212960D01*
X7107358Y-13212960D02*
X7088310Y-13222484D01*
X7088310Y-13222484D02*
X7069262Y-13222484D01*
X7069262Y-13222484D02*
X7050215Y-13212960D01*
X7050215Y-13212960D02*
X7040691Y-13203436D01*
X7040691Y-13203436D02*
X7031167Y-13184388D01*
X7031167Y-13184388D02*
X7021643Y-13146293D01*
X7021643Y-13146293D02*
X7021643Y-13098674D01*
X7021643Y-13098674D02*
X7031167Y-13060579D01*
X7031167Y-13060579D02*
X7040691Y-13041531D01*
X7040691Y-13041531D02*
X7050215Y-13032008D01*
X7050215Y-13032008D02*
X7069262Y-13022484D01*
X7259739Y-13022484D02*
X7278786Y-13022484D01*
X7278786Y-13022484D02*
X7297834Y-13032008D01*
X7297834Y-13032008D02*
X7307358Y-13041531D01*
X7307358Y-13041531D02*
X7316882Y-13060579D01*
X7316882Y-13060579D02*
X7326405Y-13098674D01*
X7326405Y-13098674D02*
X7326405Y-13146293D01*
X7326405Y-13146293D02*
X7316882Y-13184388D01*
X7316882Y-13184388D02*
X7307358Y-13203436D01*
X7307358Y-13203436D02*
X7297834Y-13212960D01*
X7297834Y-13212960D02*
X7278786Y-13222484D01*
X7278786Y-13222484D02*
X7259739Y-13222484D01*
X7259739Y-13222484D02*
X7240691Y-13212960D01*
X7240691Y-13212960D02*
X7231167Y-13203436D01*
X7231167Y-13203436D02*
X7221643Y-13184388D01*
X7221643Y-13184388D02*
X7212120Y-13146293D01*
X7212120Y-13146293D02*
X7212120Y-13098674D01*
X7212120Y-13098674D02*
X7221643Y-13060579D01*
X7221643Y-13060579D02*
X7231167Y-13041531D01*
X7231167Y-13041531D02*
X7240691Y-13032008D01*
X7240691Y-13032008D02*
X7259739Y-13022484D01*
X7412120Y-13222484D02*
X7412120Y-13089150D01*
X7412120Y-13108198D02*
X7421643Y-13098674D01*
X7421643Y-13098674D02*
X7440691Y-13089150D01*
X7440691Y-13089150D02*
X7469263Y-13089150D01*
X7469263Y-13089150D02*
X7488310Y-13098674D01*
X7488310Y-13098674D02*
X7497834Y-13117722D01*
X7497834Y-13117722D02*
X7497834Y-13222484D01*
X7497834Y-13117722D02*
X7507358Y-13098674D01*
X7507358Y-13098674D02*
X7526405Y-13089150D01*
X7526405Y-13089150D02*
X7554977Y-13089150D01*
X7554977Y-13089150D02*
X7574024Y-13098674D01*
X7574024Y-13098674D02*
X7583548Y-13117722D01*
X7583548Y-13117722D02*
X7583548Y-13222484D01*
X7678786Y-13222484D02*
X7678786Y-13089150D01*
X7678786Y-13108198D02*
X7688310Y-13098674D01*
X7688310Y-13098674D02*
X7707358Y-13089150D01*
X7707358Y-13089150D02*
X7735929Y-13089150D01*
X7735929Y-13089150D02*
X7754977Y-13098674D01*
X7754977Y-13098674D02*
X7764501Y-13117722D01*
X7764501Y-13117722D02*
X7764501Y-13222484D01*
X7764501Y-13117722D02*
X7774024Y-13098674D01*
X7774024Y-13098674D02*
X7793072Y-13089150D01*
X7793072Y-13089150D02*
X7821643Y-13089150D01*
X7821643Y-13089150D02*
X7840691Y-13098674D01*
X7840691Y-13098674D02*
X7850215Y-13117722D01*
X7850215Y-13117722D02*
X7850215Y-13222484D01*
X8240691Y-13012960D02*
X8069263Y-13270103D01*
X8497834Y-13022484D02*
X8516882Y-13022484D01*
X8516882Y-13022484D02*
X8535929Y-13032008D01*
X8535929Y-13032008D02*
X8545453Y-13041531D01*
X8545453Y-13041531D02*
X8554977Y-13060579D01*
X8554977Y-13060579D02*
X8564501Y-13098674D01*
X8564501Y-13098674D02*
X8564501Y-13146293D01*
X8564501Y-13146293D02*
X8554977Y-13184388D01*
X8554977Y-13184388D02*
X8545453Y-13203436D01*
X8545453Y-13203436D02*
X8535929Y-13212960D01*
X8535929Y-13212960D02*
X8516882Y-13222484D01*
X8516882Y-13222484D02*
X8497834Y-13222484D01*
X8497834Y-13222484D02*
X8478787Y-13212960D01*
X8478787Y-13212960D02*
X8469263Y-13203436D01*
X8469263Y-13203436D02*
X8459739Y-13184388D01*
X8459739Y-13184388D02*
X8450215Y-13146293D01*
X8450215Y-13146293D02*
X8450215Y-13098674D01*
X8450215Y-13098674D02*
X8459739Y-13060579D01*
X8459739Y-13060579D02*
X8469263Y-13041531D01*
X8469263Y-13041531D02*
X8478787Y-13032008D01*
X8478787Y-13032008D02*
X8497834Y-13022484D01*
X8650215Y-13203436D02*
X8659739Y-13212960D01*
X8659739Y-13212960D02*
X8650215Y-13222484D01*
X8650215Y-13222484D02*
X8640691Y-13212960D01*
X8640691Y-13212960D02*
X8650215Y-13203436D01*
X8650215Y-13203436D02*
X8650215Y-13222484D01*
X8783548Y-13022484D02*
X8802596Y-13022484D01*
X8802596Y-13022484D02*
X8821644Y-13032008D01*
X8821644Y-13032008D02*
X8831168Y-13041531D01*
X8831168Y-13041531D02*
X8840691Y-13060579D01*
X8840691Y-13060579D02*
X8850215Y-13098674D01*
X8850215Y-13098674D02*
X8850215Y-13146293D01*
X8850215Y-13146293D02*
X8840691Y-13184388D01*
X8840691Y-13184388D02*
X8831168Y-13203436D01*
X8831168Y-13203436D02*
X8821644Y-13212960D01*
X8821644Y-13212960D02*
X8802596Y-13222484D01*
X8802596Y-13222484D02*
X8783548Y-13222484D01*
X8783548Y-13222484D02*
X8764501Y-13212960D01*
X8764501Y-13212960D02*
X8754977Y-13203436D01*
X8754977Y-13203436D02*
X8745453Y-13184388D01*
X8745453Y-13184388D02*
X8735929Y-13146293D01*
X8735929Y-13146293D02*
X8735929Y-13098674D01*
X8735929Y-13098674D02*
X8745453Y-13060579D01*
X8745453Y-13060579D02*
X8754977Y-13041531D01*
X8754977Y-13041531D02*
X8764501Y-13032008D01*
X8764501Y-13032008D02*
X8783548Y-13022484D01*
X9021644Y-13089150D02*
X9021644Y-13222484D01*
X8974025Y-13012960D02*
X8926406Y-13155817D01*
X8926406Y-13155817D02*
X9050215Y-13155817D01*
X9107358Y-13022484D02*
X9231168Y-13022484D01*
X9231168Y-13022484D02*
X9164501Y-13098674D01*
X9164501Y-13098674D02*
X9193072Y-13098674D01*
X9193072Y-13098674D02*
X9212120Y-13108198D01*
X9212120Y-13108198D02*
X9221644Y-13117722D01*
X9221644Y-13117722D02*
X9231168Y-13136769D01*
X9231168Y-13136769D02*
X9231168Y-13184388D01*
X9231168Y-13184388D02*
X9221644Y-13203436D01*
X9221644Y-13203436D02*
X9212120Y-13212960D01*
X9212120Y-13212960D02*
X9193072Y-13222484D01*
X9193072Y-13222484D02*
X9135929Y-13222484D01*
X9135929Y-13222484D02*
X9116882Y-13212960D01*
X9116882Y-13212960D02*
X9107358Y-13203436D01*
X9297834Y-13022484D02*
X9421644Y-13022484D01*
X9421644Y-13022484D02*
X9354977Y-13098674D01*
X9354977Y-13098674D02*
X9383549Y-13098674D01*
X9383549Y-13098674D02*
X9402596Y-13108198D01*
X9402596Y-13108198D02*
X9412120Y-13117722D01*
X9412120Y-13117722D02*
X9421644Y-13136769D01*
X9421644Y-13136769D02*
X9421644Y-13184388D01*
X9421644Y-13184388D02*
X9412120Y-13203436D01*
X9412120Y-13203436D02*
X9402596Y-13212960D01*
X9402596Y-13212960D02*
X9383549Y-13222484D01*
X9383549Y-13222484D02*
X9326406Y-13222484D01*
X9326406Y-13222484D02*
X9307358Y-13212960D01*
X9307358Y-13212960D02*
X9297834Y-13203436D01*
X9497834Y-13022484D02*
X9497834Y-13060579D01*
X9574025Y-13022484D02*
X9574025Y-13060579D01*
X9869263Y-13298674D02*
X9859739Y-13289150D01*
X9859739Y-13289150D02*
X9840691Y-13260579D01*
X9840691Y-13260579D02*
X9831168Y-13241531D01*
X9831168Y-13241531D02*
X9821644Y-13212960D01*
X9821644Y-13212960D02*
X9812120Y-13165341D01*
X9812120Y-13165341D02*
X9812120Y-13127246D01*
X9812120Y-13127246D02*
X9821644Y-13079627D01*
X9821644Y-13079627D02*
X9831168Y-13051055D01*
X9831168Y-13051055D02*
X9840691Y-13032008D01*
X9840691Y-13032008D02*
X9859739Y-13003436D01*
X9859739Y-13003436D02*
X9869263Y-12993912D01*
X9935930Y-13041531D02*
X9945453Y-13032008D01*
X9945453Y-13032008D02*
X9964501Y-13022484D01*
X9964501Y-13022484D02*
X10012120Y-13022484D01*
X10012120Y-13022484D02*
X10031168Y-13032008D01*
X10031168Y-13032008D02*
X10040691Y-13041531D01*
X10040691Y-13041531D02*
X10050215Y-13060579D01*
X10050215Y-13060579D02*
X10050215Y-13079627D01*
X10050215Y-13079627D02*
X10040691Y-13108198D01*
X10040691Y-13108198D02*
X9926406Y-13222484D01*
X9926406Y-13222484D02*
X10050215Y-13222484D01*
X10288311Y-13222484D02*
X10288311Y-13022484D01*
X10374025Y-13222484D02*
X10374025Y-13117722D01*
X10374025Y-13117722D02*
X10364501Y-13098674D01*
X10364501Y-13098674D02*
X10345453Y-13089150D01*
X10345453Y-13089150D02*
X10316882Y-13089150D01*
X10316882Y-13089150D02*
X10297834Y-13098674D01*
X10297834Y-13098674D02*
X10288311Y-13108198D01*
X10497834Y-13222484D02*
X10478787Y-13212960D01*
X10478787Y-13212960D02*
X10469263Y-13203436D01*
X10469263Y-13203436D02*
X10459739Y-13184388D01*
X10459739Y-13184388D02*
X10459739Y-13127246D01*
X10459739Y-13127246D02*
X10469263Y-13108198D01*
X10469263Y-13108198D02*
X10478787Y-13098674D01*
X10478787Y-13098674D02*
X10497834Y-13089150D01*
X10497834Y-13089150D02*
X10526406Y-13089150D01*
X10526406Y-13089150D02*
X10545453Y-13098674D01*
X10545453Y-13098674D02*
X10554977Y-13108198D01*
X10554977Y-13108198D02*
X10564501Y-13127246D01*
X10564501Y-13127246D02*
X10564501Y-13184388D01*
X10564501Y-13184388D02*
X10554977Y-13203436D01*
X10554977Y-13203436D02*
X10545453Y-13212960D01*
X10545453Y-13212960D02*
X10526406Y-13222484D01*
X10526406Y-13222484D02*
X10497834Y-13222484D01*
X10678787Y-13222484D02*
X10659739Y-13212960D01*
X10659739Y-13212960D02*
X10650215Y-13193912D01*
X10650215Y-13193912D02*
X10650215Y-13022484D01*
X10831168Y-13212960D02*
X10812120Y-13222484D01*
X10812120Y-13222484D02*
X10774025Y-13222484D01*
X10774025Y-13222484D02*
X10754977Y-13212960D01*
X10754977Y-13212960D02*
X10745453Y-13193912D01*
X10745453Y-13193912D02*
X10745453Y-13117722D01*
X10745453Y-13117722D02*
X10754977Y-13098674D01*
X10754977Y-13098674D02*
X10774025Y-13089150D01*
X10774025Y-13089150D02*
X10812120Y-13089150D01*
X10812120Y-13089150D02*
X10831168Y-13098674D01*
X10831168Y-13098674D02*
X10840692Y-13117722D01*
X10840692Y-13117722D02*
X10840692Y-13136769D01*
X10840692Y-13136769D02*
X10745453Y-13155817D01*
X10916882Y-13212960D02*
X10935930Y-13222484D01*
X10935930Y-13222484D02*
X10974025Y-13222484D01*
X10974025Y-13222484D02*
X10993073Y-13212960D01*
X10993073Y-13212960D02*
X11002596Y-13193912D01*
X11002596Y-13193912D02*
X11002596Y-13184388D01*
X11002596Y-13184388D02*
X10993073Y-13165341D01*
X10993073Y-13165341D02*
X10974025Y-13155817D01*
X10974025Y-13155817D02*
X10945453Y-13155817D01*
X10945453Y-13155817D02*
X10926406Y-13146293D01*
X10926406Y-13146293D02*
X10916882Y-13127246D01*
X10916882Y-13127246D02*
X10916882Y-13117722D01*
X10916882Y-13117722D02*
X10926406Y-13098674D01*
X10926406Y-13098674D02*
X10945453Y-13089150D01*
X10945453Y-13089150D02*
X10974025Y-13089150D01*
X10974025Y-13089150D02*
X10993073Y-13098674D01*
X11069263Y-13298674D02*
X11078787Y-13289150D01*
X11078787Y-13289150D02*
X11097834Y-13260579D01*
X11097834Y-13260579D02*
X11107358Y-13241531D01*
X11107358Y-13241531D02*
X11116882Y-13212960D01*
X11116882Y-13212960D02*
X11126406Y-13165341D01*
X11126406Y-13165341D02*
X11126406Y-13127246D01*
X11126406Y-13127246D02*
X11116882Y-13079627D01*
X11116882Y-13079627D02*
X11107358Y-13051055D01*
X11107358Y-13051055D02*
X11097834Y-13032008D01*
X11097834Y-13032008D02*
X11078787Y-13003436D01*
X11078787Y-13003436D02*
X11069263Y-12993912D01*
X6094200Y-13295000D02*
X6294200Y-13495000D01*
X6294200Y-13295000D02*
X6094200Y-13495000D01*
X6294200Y-13395000D02*
G75*
G02*
X6094200Y-13395000I-100000J0D01*
G01*
X6094200Y-13395000D02*
G75*
G02*
X6294200Y-13395000I100000J0D01*
G01*
X6545453Y-13305531D02*
X6554977Y-13296008D01*
X6554977Y-13296008D02*
X6574024Y-13286484D01*
X6574024Y-13286484D02*
X6621643Y-13286484D01*
X6621643Y-13286484D02*
X6640691Y-13296008D01*
X6640691Y-13296008D02*
X6650215Y-13305531D01*
X6650215Y-13305531D02*
X6659739Y-13324579D01*
X6659739Y-13324579D02*
X6659739Y-13343627D01*
X6659739Y-13343627D02*
X6650215Y-13372198D01*
X6650215Y-13372198D02*
X6535929Y-13486484D01*
X6535929Y-13486484D02*
X6659739Y-13486484D01*
X6745453Y-13467436D02*
X6754977Y-13476960D01*
X6754977Y-13476960D02*
X6745453Y-13486484D01*
X6745453Y-13486484D02*
X6735929Y-13476960D01*
X6735929Y-13476960D02*
X6745453Y-13467436D01*
X6745453Y-13467436D02*
X6745453Y-13486484D01*
X6935929Y-13286484D02*
X6840691Y-13286484D01*
X6840691Y-13286484D02*
X6831167Y-13381722D01*
X6831167Y-13381722D02*
X6840691Y-13372198D01*
X6840691Y-13372198D02*
X6859739Y-13362674D01*
X6859739Y-13362674D02*
X6907358Y-13362674D01*
X6907358Y-13362674D02*
X6926405Y-13372198D01*
X6926405Y-13372198D02*
X6935929Y-13381722D01*
X6935929Y-13381722D02*
X6945453Y-13400769D01*
X6945453Y-13400769D02*
X6945453Y-13448388D01*
X6945453Y-13448388D02*
X6935929Y-13467436D01*
X6935929Y-13467436D02*
X6926405Y-13476960D01*
X6926405Y-13476960D02*
X6907358Y-13486484D01*
X6907358Y-13486484D02*
X6859739Y-13486484D01*
X6859739Y-13486484D02*
X6840691Y-13476960D01*
X6840691Y-13476960D02*
X6831167Y-13467436D01*
X7069262Y-13286484D02*
X7088310Y-13286484D01*
X7088310Y-13286484D02*
X7107358Y-13296008D01*
X7107358Y-13296008D02*
X7116882Y-13305531D01*
X7116882Y-13305531D02*
X7126405Y-13324579D01*
X7126405Y-13324579D02*
X7135929Y-13362674D01*
X7135929Y-13362674D02*
X7135929Y-13410293D01*
X7135929Y-13410293D02*
X7126405Y-13448388D01*
X7126405Y-13448388D02*
X7116882Y-13467436D01*
X7116882Y-13467436D02*
X7107358Y-13476960D01*
X7107358Y-13476960D02*
X7088310Y-13486484D01*
X7088310Y-13486484D02*
X7069262Y-13486484D01*
X7069262Y-13486484D02*
X7050215Y-13476960D01*
X7050215Y-13476960D02*
X7040691Y-13467436D01*
X7040691Y-13467436D02*
X7031167Y-13448388D01*
X7031167Y-13448388D02*
X7021643Y-13410293D01*
X7021643Y-13410293D02*
X7021643Y-13362674D01*
X7021643Y-13362674D02*
X7031167Y-13324579D01*
X7031167Y-13324579D02*
X7040691Y-13305531D01*
X7040691Y-13305531D02*
X7050215Y-13296008D01*
X7050215Y-13296008D02*
X7069262Y-13286484D01*
X7259739Y-13286484D02*
X7278786Y-13286484D01*
X7278786Y-13286484D02*
X7297834Y-13296008D01*
X7297834Y-13296008D02*
X7307358Y-13305531D01*
X7307358Y-13305531D02*
X7316882Y-13324579D01*
X7316882Y-13324579D02*
X7326405Y-13362674D01*
X7326405Y-13362674D02*
X7326405Y-13410293D01*
X7326405Y-13410293D02*
X7316882Y-13448388D01*
X7316882Y-13448388D02*
X7307358Y-13467436D01*
X7307358Y-13467436D02*
X7297834Y-13476960D01*
X7297834Y-13476960D02*
X7278786Y-13486484D01*
X7278786Y-13486484D02*
X7259739Y-13486484D01*
X7259739Y-13486484D02*
X7240691Y-13476960D01*
X7240691Y-13476960D02*
X7231167Y-13467436D01*
X7231167Y-13467436D02*
X7221643Y-13448388D01*
X7221643Y-13448388D02*
X7212120Y-13410293D01*
X7212120Y-13410293D02*
X7212120Y-13362674D01*
X7212120Y-13362674D02*
X7221643Y-13324579D01*
X7221643Y-13324579D02*
X7231167Y-13305531D01*
X7231167Y-13305531D02*
X7240691Y-13296008D01*
X7240691Y-13296008D02*
X7259739Y-13286484D01*
X7412120Y-13486484D02*
X7412120Y-13353150D01*
X7412120Y-13372198D02*
X7421643Y-13362674D01*
X7421643Y-13362674D02*
X7440691Y-13353150D01*
X7440691Y-13353150D02*
X7469263Y-13353150D01*
X7469263Y-13353150D02*
X7488310Y-13362674D01*
X7488310Y-13362674D02*
X7497834Y-13381722D01*
X7497834Y-13381722D02*
X7497834Y-13486484D01*
X7497834Y-13381722D02*
X7507358Y-13362674D01*
X7507358Y-13362674D02*
X7526405Y-13353150D01*
X7526405Y-13353150D02*
X7554977Y-13353150D01*
X7554977Y-13353150D02*
X7574024Y-13362674D01*
X7574024Y-13362674D02*
X7583548Y-13381722D01*
X7583548Y-13381722D02*
X7583548Y-13486484D01*
X7678786Y-13486484D02*
X7678786Y-13353150D01*
X7678786Y-13372198D02*
X7688310Y-13362674D01*
X7688310Y-13362674D02*
X7707358Y-13353150D01*
X7707358Y-13353150D02*
X7735929Y-13353150D01*
X7735929Y-13353150D02*
X7754977Y-13362674D01*
X7754977Y-13362674D02*
X7764501Y-13381722D01*
X7764501Y-13381722D02*
X7764501Y-13486484D01*
X7764501Y-13381722D02*
X7774024Y-13362674D01*
X7774024Y-13362674D02*
X7793072Y-13353150D01*
X7793072Y-13353150D02*
X7821643Y-13353150D01*
X7821643Y-13353150D02*
X7840691Y-13362674D01*
X7840691Y-13362674D02*
X7850215Y-13381722D01*
X7850215Y-13381722D02*
X7850215Y-13486484D01*
X8240691Y-13276960D02*
X8069263Y-13534103D01*
X8497834Y-13286484D02*
X8516882Y-13286484D01*
X8516882Y-13286484D02*
X8535929Y-13296008D01*
X8535929Y-13296008D02*
X8545453Y-13305531D01*
X8545453Y-13305531D02*
X8554977Y-13324579D01*
X8554977Y-13324579D02*
X8564501Y-13362674D01*
X8564501Y-13362674D02*
X8564501Y-13410293D01*
X8564501Y-13410293D02*
X8554977Y-13448388D01*
X8554977Y-13448388D02*
X8545453Y-13467436D01*
X8545453Y-13467436D02*
X8535929Y-13476960D01*
X8535929Y-13476960D02*
X8516882Y-13486484D01*
X8516882Y-13486484D02*
X8497834Y-13486484D01*
X8497834Y-13486484D02*
X8478787Y-13476960D01*
X8478787Y-13476960D02*
X8469263Y-13467436D01*
X8469263Y-13467436D02*
X8459739Y-13448388D01*
X8459739Y-13448388D02*
X8450215Y-13410293D01*
X8450215Y-13410293D02*
X8450215Y-13362674D01*
X8450215Y-13362674D02*
X8459739Y-13324579D01*
X8459739Y-13324579D02*
X8469263Y-13305531D01*
X8469263Y-13305531D02*
X8478787Y-13296008D01*
X8478787Y-13296008D02*
X8497834Y-13286484D01*
X8650215Y-13467436D02*
X8659739Y-13476960D01*
X8659739Y-13476960D02*
X8650215Y-13486484D01*
X8650215Y-13486484D02*
X8640691Y-13476960D01*
X8640691Y-13476960D02*
X8650215Y-13467436D01*
X8650215Y-13467436D02*
X8650215Y-13486484D01*
X8783548Y-13286484D02*
X8802596Y-13286484D01*
X8802596Y-13286484D02*
X8821644Y-13296008D01*
X8821644Y-13296008D02*
X8831168Y-13305531D01*
X8831168Y-13305531D02*
X8840691Y-13324579D01*
X8840691Y-13324579D02*
X8850215Y-13362674D01*
X8850215Y-13362674D02*
X8850215Y-13410293D01*
X8850215Y-13410293D02*
X8840691Y-13448388D01*
X8840691Y-13448388D02*
X8831168Y-13467436D01*
X8831168Y-13467436D02*
X8821644Y-13476960D01*
X8821644Y-13476960D02*
X8802596Y-13486484D01*
X8802596Y-13486484D02*
X8783548Y-13486484D01*
X8783548Y-13486484D02*
X8764501Y-13476960D01*
X8764501Y-13476960D02*
X8754977Y-13467436D01*
X8754977Y-13467436D02*
X8745453Y-13448388D01*
X8745453Y-13448388D02*
X8735929Y-13410293D01*
X8735929Y-13410293D02*
X8735929Y-13362674D01*
X8735929Y-13362674D02*
X8745453Y-13324579D01*
X8745453Y-13324579D02*
X8754977Y-13305531D01*
X8754977Y-13305531D02*
X8764501Y-13296008D01*
X8764501Y-13296008D02*
X8783548Y-13286484D01*
X8945453Y-13486484D02*
X8983548Y-13486484D01*
X8983548Y-13486484D02*
X9002596Y-13476960D01*
X9002596Y-13476960D02*
X9012120Y-13467436D01*
X9012120Y-13467436D02*
X9031168Y-13438865D01*
X9031168Y-13438865D02*
X9040691Y-13400769D01*
X9040691Y-13400769D02*
X9040691Y-13324579D01*
X9040691Y-13324579D02*
X9031168Y-13305531D01*
X9031168Y-13305531D02*
X9021644Y-13296008D01*
X9021644Y-13296008D02*
X9002596Y-13286484D01*
X9002596Y-13286484D02*
X8964501Y-13286484D01*
X8964501Y-13286484D02*
X8945453Y-13296008D01*
X8945453Y-13296008D02*
X8935929Y-13305531D01*
X8935929Y-13305531D02*
X8926406Y-13324579D01*
X8926406Y-13324579D02*
X8926406Y-13372198D01*
X8926406Y-13372198D02*
X8935929Y-13391246D01*
X8935929Y-13391246D02*
X8945453Y-13400769D01*
X8945453Y-13400769D02*
X8964501Y-13410293D01*
X8964501Y-13410293D02*
X9002596Y-13410293D01*
X9002596Y-13410293D02*
X9021644Y-13400769D01*
X9021644Y-13400769D02*
X9031168Y-13391246D01*
X9031168Y-13391246D02*
X9040691Y-13372198D01*
X9154977Y-13372198D02*
X9135929Y-13362674D01*
X9135929Y-13362674D02*
X9126406Y-13353150D01*
X9126406Y-13353150D02*
X9116882Y-13334103D01*
X9116882Y-13334103D02*
X9116882Y-13324579D01*
X9116882Y-13324579D02*
X9126406Y-13305531D01*
X9126406Y-13305531D02*
X9135929Y-13296008D01*
X9135929Y-13296008D02*
X9154977Y-13286484D01*
X9154977Y-13286484D02*
X9193072Y-13286484D01*
X9193072Y-13286484D02*
X9212120Y-13296008D01*
X9212120Y-13296008D02*
X9221644Y-13305531D01*
X9221644Y-13305531D02*
X9231168Y-13324579D01*
X9231168Y-13324579D02*
X9231168Y-13334103D01*
X9231168Y-13334103D02*
X9221644Y-13353150D01*
X9221644Y-13353150D02*
X9212120Y-13362674D01*
X9212120Y-13362674D02*
X9193072Y-13372198D01*
X9193072Y-13372198D02*
X9154977Y-13372198D01*
X9154977Y-13372198D02*
X9135929Y-13381722D01*
X9135929Y-13381722D02*
X9126406Y-13391246D01*
X9126406Y-13391246D02*
X9116882Y-13410293D01*
X9116882Y-13410293D02*
X9116882Y-13448388D01*
X9116882Y-13448388D02*
X9126406Y-13467436D01*
X9126406Y-13467436D02*
X9135929Y-13476960D01*
X9135929Y-13476960D02*
X9154977Y-13486484D01*
X9154977Y-13486484D02*
X9193072Y-13486484D01*
X9193072Y-13486484D02*
X9212120Y-13476960D01*
X9212120Y-13476960D02*
X9221644Y-13467436D01*
X9221644Y-13467436D02*
X9231168Y-13448388D01*
X9231168Y-13448388D02*
X9231168Y-13410293D01*
X9231168Y-13410293D02*
X9221644Y-13391246D01*
X9221644Y-13391246D02*
X9212120Y-13381722D01*
X9212120Y-13381722D02*
X9193072Y-13372198D01*
X9402596Y-13353150D02*
X9402596Y-13486484D01*
X9354977Y-13276960D02*
X9307358Y-13419817D01*
X9307358Y-13419817D02*
X9431168Y-13419817D01*
X9497834Y-13286484D02*
X9497834Y-13324579D01*
X9574025Y-13286484D02*
X9574025Y-13324579D01*
X9869263Y-13562674D02*
X9859739Y-13553150D01*
X9859739Y-13553150D02*
X9840691Y-13524579D01*
X9840691Y-13524579D02*
X9831168Y-13505531D01*
X9831168Y-13505531D02*
X9821644Y-13476960D01*
X9821644Y-13476960D02*
X9812120Y-13429341D01*
X9812120Y-13429341D02*
X9812120Y-13391246D01*
X9812120Y-13391246D02*
X9821644Y-13343627D01*
X9821644Y-13343627D02*
X9831168Y-13315055D01*
X9831168Y-13315055D02*
X9840691Y-13296008D01*
X9840691Y-13296008D02*
X9859739Y-13267436D01*
X9859739Y-13267436D02*
X9869263Y-13257912D01*
X10031168Y-13353150D02*
X10031168Y-13486484D01*
X9983549Y-13276960D02*
X9935930Y-13419817D01*
X9935930Y-13419817D02*
X10059739Y-13419817D01*
X10288311Y-13486484D02*
X10288311Y-13286484D01*
X10374025Y-13486484D02*
X10374025Y-13381722D01*
X10374025Y-13381722D02*
X10364501Y-13362674D01*
X10364501Y-13362674D02*
X10345453Y-13353150D01*
X10345453Y-13353150D02*
X10316882Y-13353150D01*
X10316882Y-13353150D02*
X10297834Y-13362674D01*
X10297834Y-13362674D02*
X10288311Y-13372198D01*
X10497834Y-13486484D02*
X10478787Y-13476960D01*
X10478787Y-13476960D02*
X10469263Y-13467436D01*
X10469263Y-13467436D02*
X10459739Y-13448388D01*
X10459739Y-13448388D02*
X10459739Y-13391246D01*
X10459739Y-13391246D02*
X10469263Y-13372198D01*
X10469263Y-13372198D02*
X10478787Y-13362674D01*
X10478787Y-13362674D02*
X10497834Y-13353150D01*
X10497834Y-13353150D02*
X10526406Y-13353150D01*
X10526406Y-13353150D02*
X10545453Y-13362674D01*
X10545453Y-13362674D02*
X10554977Y-13372198D01*
X10554977Y-13372198D02*
X10564501Y-13391246D01*
X10564501Y-13391246D02*
X10564501Y-13448388D01*
X10564501Y-13448388D02*
X10554977Y-13467436D01*
X10554977Y-13467436D02*
X10545453Y-13476960D01*
X10545453Y-13476960D02*
X10526406Y-13486484D01*
X10526406Y-13486484D02*
X10497834Y-13486484D01*
X10678787Y-13486484D02*
X10659739Y-13476960D01*
X10659739Y-13476960D02*
X10650215Y-13457912D01*
X10650215Y-13457912D02*
X10650215Y-13286484D01*
X10831168Y-13476960D02*
X10812120Y-13486484D01*
X10812120Y-13486484D02*
X10774025Y-13486484D01*
X10774025Y-13486484D02*
X10754977Y-13476960D01*
X10754977Y-13476960D02*
X10745453Y-13457912D01*
X10745453Y-13457912D02*
X10745453Y-13381722D01*
X10745453Y-13381722D02*
X10754977Y-13362674D01*
X10754977Y-13362674D02*
X10774025Y-13353150D01*
X10774025Y-13353150D02*
X10812120Y-13353150D01*
X10812120Y-13353150D02*
X10831168Y-13362674D01*
X10831168Y-13362674D02*
X10840692Y-13381722D01*
X10840692Y-13381722D02*
X10840692Y-13400769D01*
X10840692Y-13400769D02*
X10745453Y-13419817D01*
X10916882Y-13476960D02*
X10935930Y-13486484D01*
X10935930Y-13486484D02*
X10974025Y-13486484D01*
X10974025Y-13486484D02*
X10993073Y-13476960D01*
X10993073Y-13476960D02*
X11002596Y-13457912D01*
X11002596Y-13457912D02*
X11002596Y-13448388D01*
X11002596Y-13448388D02*
X10993073Y-13429341D01*
X10993073Y-13429341D02*
X10974025Y-13419817D01*
X10974025Y-13419817D02*
X10945453Y-13419817D01*
X10945453Y-13419817D02*
X10926406Y-13410293D01*
X10926406Y-13410293D02*
X10916882Y-13391246D01*
X10916882Y-13391246D02*
X10916882Y-13381722D01*
X10916882Y-13381722D02*
X10926406Y-13362674D01*
X10926406Y-13362674D02*
X10945453Y-13353150D01*
X10945453Y-13353150D02*
X10974025Y-13353150D01*
X10974025Y-13353150D02*
X10993073Y-13362674D01*
X11069263Y-13562674D02*
X11078787Y-13553150D01*
X11078787Y-13553150D02*
X11097834Y-13524579D01*
X11097834Y-13524579D02*
X11107358Y-13505531D01*
X11107358Y-13505531D02*
X11116882Y-13476960D01*
X11116882Y-13476960D02*
X11126406Y-13429341D01*
X11126406Y-13429341D02*
X11126406Y-13391246D01*
X11126406Y-13391246D02*
X11116882Y-13343627D01*
X11116882Y-13343627D02*
X11107358Y-13315055D01*
X11107358Y-13315055D02*
X11097834Y-13296008D01*
X11097834Y-13296008D02*
X11078787Y-13267436D01*
X11078787Y-13267436D02*
X11069263Y-13257912D01*
M02*
